<?xml version="1.0" encoding="UTF-8" standalone="no" ?>
<!DOCTYPE svg PUBLIC "-//W3C//DTD SVG 1.1//EN" "http://www.w3.org/Graphics/SVG/1.1/DTD/svg11.dtd">
<svg xmlns="http://www.w3.org/2000/svg" xmlns:xlink="http://www.w3.org/1999/xlink" version="1.1" width="1080" height="1080" viewBox="0 0 1080 1080" xml:space="preserve">
<desc>Created with Fabric.js 5.2.4</desc>
<defs>
</defs>
<g transform="matrix(1 0 0 1 540 540)" id="ff532ee8-8af3-4184-aaab-f508cea1d75f"  >
<rect style="stroke: none; stroke-width: 1; stroke-dasharray: none; stroke-linecap: butt; stroke-dashoffset: 0; stroke-linejoin: miter; stroke-miterlimit: 4; fill: rgb(255,255,255); fill-rule: nonzero; opacity: 1; visibility: hidden;" vector-effect="non-scaling-stroke"  x="-540" y="-540" rx="0" ry="0" width="1080" height="1080" />
</g>
<g transform="matrix(1 0 0 1 540 540)" id="9293fd96-87f1-4374-9c92-bccf52be81c5"  >
</g>
<g transform="matrix(1 0 0 1 544.18 529.07)"  >
<path style="stroke: none; stroke-width: 2.3761003; stroke-dasharray: none; stroke-linecap: round; stroke-dashoffset: 0; stroke-linejoin: bevel; stroke-miterlimit: 4; fill: rgb(255,255,255); fill-rule: evenodd; opacity: 1;"  paint-order="stroke"  transform=" translate(-50, -50)" d="M 50 1.2929688 C 39.51051 1.2929697 29.02154 5.2890083 21.03125 13.279297 C 5.0506699 29.259879 5.0506699 55.238165 21.03125 71.21875 C 21.05679 71.24429 21.081832 71.267509 21.107422 71.292969 L 47.869141 98.052734 C 48.743504 98.926779 50.15884 98.926779 51.033203 98.052734 C 60.629777 88.687459 70.420495 79.70203 78.96875 71.21875 C 94.94933 55.238171 94.94933 29.259875 78.96875 13.279297 C 70.97846 5.2890048 60.4895 1.292968 50 1.2929688 z M 50 5.7441406 C 59.33424 5.7437949 68.669978 9.3106089 75.804688 16.445312 C 90.074088 30.714714 90.074088 53.783333 75.804688 68.052734 C 74.075778 69.781641 72.213742 71.295553 70.257812 72.605469 C 70.219382 72.627139 70.181611 72.649928 70.144531 72.673828 C 65.167551 75.969037 59.635928 77.902507 54.017578 78.523438 C 53.517198 78.578738 53.015062 78.623704 52.513672 78.658203 C 52.503272 78.658919 52.492832 78.659356 52.482422 78.660156 C 52.475922 78.660596 52.469371 78.659719 52.462891 78.660156 C 51.967331 78.693566 51.470489 78.717319 50.974609 78.730469 C 50.964809 78.730728 50.955083 78.732122 50.945312 78.732422 C 50.932952 78.732741 50.920573 78.732116 50.908203 78.732422 C 50.417573 78.744542 49.92779 78.747884 49.4375 78.740234 C 49.40625 78.739753 49.375 78.738881 49.34375 78.738281 C 48.85415 78.729381 48.3636 78.712124 47.875 78.683594 C 45.32161 78.534516 42.787543 78.117695 40.314453 77.4375 C 39.832933 77.305062 39.353433 77.162137 38.876953 77.009766 C 38.848923 77.000766 38.820989 76.991452 38.792969 76.982422 C 36.362539 76.1987 34.001599 75.15513 31.755859 73.857422 C 31.384939 73.643085 31.02075 73.417672 30.65625 73.189453 C 30.5383 73.115463 30.418071 73.042269 30.300781 72.966797 C 30.000151 72.773713 29.704093 72.573702 29.408203 72.371094 C 29.219853 72.241872 29.032163 72.111669 28.845703 71.978516 C 28.587363 71.794362 28.330542 71.60756 28.076172 71.416016 C 27.863382 71.255474 27.653419 71.089608 27.443359 70.923828 C 27.207349 70.737853 26.970521 70.551863 26.738281 70.359375 C 26.504361 70.165228 26.275102 69.96456 26.044922 69.763672 C 25.846992 69.591125 25.649988 69.421564 25.455078 69.244141 C 25.030358 68.857199 24.609779 68.461347 24.199219 68.050781 C 9.929809 53.781373 9.929809 30.714716 24.199219 16.445312 C 31.333919 9.3106119 40.66576 5.7444864 50 5.7441406 z M 70.697266 15.302734 L 50.646484 35.353516 L 56.339844 41.048828 L 76.390625 20.998047 L 70.697266 15.302734 z M 33.044922 15.585938 C 31.895443 15.603587 30.757583 15.827885 29.6875 16.248047 L 36.574219 23.134766 L 31.154297 28.556641 L 24.271484 21.673828 C 22.880256 25.218002 23.71975 29.249223 26.408203 31.945312 C 29.022894 34.554575 32.903514 35.430521 36.384766 34.195312 L 69.224609 67.035156 L 74.919922 61.341797 L 42.142578 28.5625 C 43.480312 25.037882 42.628209 21.05681 39.964844 18.388672 C 38.131539 16.557521 35.635785 15.546466 33.044922 15.585938 z M 70.921875 19.253906 C 71.291255 19.258906 71.645114 19.406676 71.90625 19.667969 C 72.46005 20.222152 72.459146 21.120626 71.904297 21.673828 C 71.633595 21.944696 71.263769 22.095182 70.880859 22.089844 C 70.512096 22.084344 70.161088 21.934696 69.900391 21.673828 C 69.346101 21.120136 69.346101 20.221662 69.900391 19.667969 C 70.171092 19.397102 70.538964 19.248569 70.921875 19.253906 z M 66.033203 21.896484 L 66.830078 22.693359 L 55.884766 33.638672 L 55.089844 32.841797 L 66.033203 21.896484 z M 67.685547 23.517578 L 68.482422 24.3125 L 57.535156 35.257812 L 56.740234 34.462891 L 67.685547 23.517578 z M 69.337891 25.136719 L 70.132812 25.931641 L 59.1875 36.878906 L 58.390625 36.082031 L 69.337891 25.136719 z M 44.789062 44.007812 L 33.119141 55.677734 C 32.360313 55.0743 31.637741 54.522392 31.535156 54.521484 C 31.033174 58.836898 31.661931 54.507936 25.058594 60.886719 C 27.447849 63.246194 29.198281 65.124212 31.421875 67.363281 C 37.715329 61.004087 32.841888 60.904153 37.900391 61 C 37.901691 60.860872 37.062055 59.76377 36.273438 58.759766 L 47.90625 47.125 L 44.789062 44.007812 z M 69.570312 60.126953 C 69.939944 60.132453 70.291884 60.282978 70.552734 60.544922 C 71.107023 61.098615 71.107023 61.997088 70.552734 62.550781 C 69.998754 63.103397 69.101828 63.102492 68.548828 62.548828 C 67.995231 61.995828 67.994326 61.098901 68.546875 60.544922 C 68.817281 60.273403 69.187144 60.122084 69.570312 60.126953 z" stroke-linecap="round" />
</g>
</svg>