<svg width="276" height="237" viewBox="0 0 276 237" fill="none" xmlns="http://www.w3.org/2000/svg">
<path d="M207.761 51.078H207.76C206.433 51.0636 205.149 50.6746 204.178 49.9714C203.141 49.2217 202.575 48.1983 202.575 47.1271C202.575 46.056 203.141 45.0326 204.178 44.2828M207.761 51.078L204.178 44.2828M207.761 51.078C209.138 51.0919 210.489 50.7017 211.497 49.9717C212.535 49.2227 213.103 48.1998 213.105 47.1287C213.106 46.0575 212.541 45.0336 211.504 44.2831L211.211 44.688L211.504 44.2831M207.761 51.078L211.504 44.2831M204.178 44.2828C205.187 43.5522 206.532 43.1671 207.908 43.181M204.178 44.2828L207.908 43.181M199.637 149.379C200.666 150.125 201.992 150.485 203.295 150.486C204.598 150.486 205.925 150.129 206.956 149.384L206.956 149.384C207.993 148.634 208.56 147.611 208.56 146.54C208.56 145.469 207.993 144.445 206.956 143.696C205.985 142.99 204.698 142.599 203.368 142.584L203.367 142.584L199.924 144.101L199.63 143.696C199.63 143.696 199.63 143.696 199.63 143.696C198.596 144.447 198.032 145.469 198.033 146.539C198.035 147.609 198.602 148.631 199.637 149.379ZM199.637 149.379C199.637 149.379 199.637 149.379 199.637 149.379L199.93 148.974L199.637 149.379C199.637 149.379 199.637 149.379 199.637 149.379ZM211.504 44.2831C210.53 43.5776 209.236 43.194 207.908 43.181M211.504 44.2831L207.908 43.181M40.8202 169.835L40.8192 169.834C40.7969 169.818 40.7747 169.803 40.7531 169.787C40.7296 169.771 40.7066 169.755 40.6848 169.74C40.642 169.71 40.603 169.683 40.5642 169.654C13.8229 150.299 0.500001 124.928 0.500001 99.6051C0.500001 74.2819 13.8229 48.9114 40.5642 29.5558C67.3111 10.1962 102.446 0.500002 137.606 0.5C172.766 0.499998 207.901 10.1962 234.648 29.5558C261.389 48.9114 274.712 74.2819 274.712 99.6051C274.712 124.928 261.39 150.298 234.649 169.653C218.978 180.91 202.079 192.52 184.717 204.449C170.248 214.389 155.458 224.55 140.789 234.911L140.785 234.915C139.416 235.905 137.6 236.414 135.762 236.414C133.924 236.414 132.108 235.905 130.74 234.915L40.8202 169.835ZM205.861 173.895L205.876 173.889L205.89 173.882C212.486 170.685 218.768 166.988 224.603 162.765C248.681 145.337 260.769 122.495 260.769 99.6051C260.769 76.7151 248.681 53.8733 224.603 36.4455C200.53 19.0213 169.054 10.3244 137.606 10.3253C106.158 10.3261 74.695 19.0214 50.6223 36.4455C26.5444 53.8732 14.4565 76.7139 14.4565 99.6028C14.4565 122.492 26.5444 145.332 50.6223 162.76C52.0093 163.764 53.4288 164.731 54.8599 165.675L54.86 165.675C55.3994 166.03 55.944 166.373 56.4861 166.714C56.6076 166.791 56.729 166.867 56.8502 166.944L56.9724 167.021C57.7041 167.483 58.4393 167.948 59.1892 168.398L59.1895 168.398C59.9288 168.842 60.6813 169.271 61.4268 169.696L61.5677 169.776L61.568 169.777L61.6148 169.803C62.3043 170.197 62.9984 170.594 63.7024 170.978L63.7027 170.978C64.5615 171.446 65.4277 171.902 66.298 172.351C66.9279 172.677 67.5612 172.995 68.1952 173.31L68.1956 173.31C69.191 173.803 70.19 174.292 71.2056 174.764C71.4646 174.885 71.7309 175.004 71.9929 175.122C72.1319 175.184 72.2696 175.246 72.4044 175.308L72.4047 175.308C73.6302 175.863 74.8594 176.414 76.1128 176.938C83.6854 180.105 91.6448 182.652 99.8368 184.564L99.9504 184.077L99.8369 184.564C99.9156 184.582 100.035 184.611 100.119 184.63L100.12 184.63C101.726 185.002 103.342 185.351 104.965 185.674C113.3 187.333 121.84 188.35 130.445 188.714C132.092 188.783 133.745 188.825 135.394 188.847C135.493 188.848 135.606 188.851 135.71 188.852C137.363 188.87 139.014 188.862 140.667 188.833C140.679 188.832 140.693 188.833 140.715 188.833C140.735 188.833 140.763 188.833 140.792 188.833L140.793 188.833C140.82 188.832 140.844 188.831 140.859 188.83L140.862 188.829C140.88 188.828 140.886 188.828 140.89 188.828C142.559 188.796 144.231 188.738 145.898 188.657L145.902 188.657C145.907 188.657 145.917 188.657 145.928 188.657C145.939 188.657 145.954 188.657 145.971 188.656L145.975 188.656C146.016 188.654 146.021 188.654 146.077 188.652C147.767 188.567 149.459 188.458 151.145 188.323C170.077 186.808 188.723 182.092 205.506 174.05C205.622 173.996 205.741 173.944 205.861 173.895ZM51.3332 50.3101L73.9913 66.7103L74.2846 66.9225L74.5777 66.7102L92.7887 53.5242L93.3481 53.1192L92.7886 52.7142L70.498 36.5801C73.7535 35.7456 77.1814 35.2989 80.6426 35.2605C89.2567 35.1655 97.5336 37.6 103.594 41.9815C112.385 48.3553 115.119 57.7786 110.762 66.0873L110.561 66.4707L110.912 66.7245L220.484 146.039L202.201 159.268L92.152 79.6135L91.9619 79.4758L91.7345 79.5342C80.1629 82.506 67.2807 80.3894 58.6304 74.1412C49.9372 67.8306 47.1771 58.5427 51.3332 50.3101ZM191.771 49.7027L191.478 49.4905L191.184 49.7027L154.415 76.3217L153.856 76.7263L154.414 77.1314L157.085 79.0695L157.379 79.2822L157.672 79.0698L194.448 52.4508L195.008 52.0458L194.448 51.6407L191.771 49.7027ZM197.322 53.6449L197.029 53.4333L196.736 53.6452L159.96 80.2642L159.4 80.6693L159.96 81.0743L162.631 83.0075L162.924 83.2197L163.217 83.0076L200 56.3886L200.561 55.983L200 55.5781L197.322 53.6449ZM202.875 57.583L202.581 57.3708L202.288 57.5829L165.505 84.202L164.946 84.607L165.505 85.012L168.183 86.95L168.476 87.1623L168.769 86.95L205.546 60.3263L206.105 59.9212L205.545 59.5162L202.875 57.583ZM129.718 111.464L91.1916 139.354L90.6965 139.713L91.146 140.127C92.4702 141.347 93.8333 142.62 94.8636 143.629C95.2801 144.037 95.6385 144.398 95.9166 144.693C94.2981 144.672 93.0162 144.659 91.9975 144.671C90.7761 144.686 89.8988 144.736 89.2575 144.862C88.605 144.989 88.1372 145.205 87.7952 145.593C87.4762 145.955 87.3128 146.423 87.1506 146.896C87.1378 146.933 87.1248 146.971 87.1116 147.01C86.7844 147.968 86.3113 149.353 84.7207 151.401C83.086 153.506 80.2609 156.322 75.1826 160.063C72.1924 157.881 69.4452 155.832 66.7009 153.784C62.898 150.947 59.1007 148.114 54.6701 144.938C65.2436 137.622 70.0802 136.403 72.4491 135.806L72.4935 135.795L72.5154 135.789C73.1021 135.642 73.6054 135.515 74.0051 135.322C74.4447 135.11 74.7693 134.815 75.0147 134.35C75.2443 133.915 75.3976 133.342 75.5455 132.59C75.6693 131.962 75.796 131.169 75.9553 130.172C75.9573 130.159 75.9593 130.147 75.9613 130.134C75.9639 130.135 75.9666 130.137 75.9693 130.138C76.2737 130.282 76.6804 130.491 77.1622 130.749C78.1242 131.265 79.3634 131.964 80.637 132.697L80.9174 132.859L81.1796 132.669L120.097 104.5L129.718 111.464ZM225.426 47.9227L158.908 96.069L140.631 82.8353L207.149 34.689L225.426 47.9227Z" fill="#F8F9FA" stroke="#FFD700"/>
</svg>
