<svg width="2860" height="3166" viewBox="0 0 2860 3166" fill="none" xmlns="http://www.w3.org/2000/svg">
<path d="M2161.22 678.642H2161.21C2147.37 678.448 2133.98 673.229 2123.86 663.793C2113.05 653.734 2107.14 640.003 2107.14 625.629C2107.14 611.258 2113.05 597.526 2123.86 587.465M2161.22 678.642L2123.86 587.465ZM2161.22 678.642C2175.58 678.828 2189.67 673.592 2200.18 663.797C2211 653.748 2216.93 640.023 2216.95 625.651C2216.96 611.278 2211.07 597.539 2200.25 587.469M2161.22 678.642L2200.25 587.469ZM2123.86 587.465C2134.38 577.662 2148.41 572.495 2162.75 572.682ZM2123.86 587.465L2162.75 572.682ZM2076.51 1997.62C2087.24 2007.63 2101.07 2012.46 2114.65 2012.47C2128.24 2012.47 2142.08 2007.68 2152.83 1997.68C2163.64 1987.62 2169.55 1973.89 2169.55 1959.52C2169.55 1945.15 2163.64 1931.41 2152.83 1921.36C2142.7 1911.89 2129.28 1906.64 2115.41 1906.44L2079.5 1926.8L2076.44 1921.36C2065.65 1931.44 2059.77 1945.15 2059.78 1959.51C2059.8 1973.87 2065.72 1987.58 2076.51 1997.62ZM2200.25 587.469C2190.1 578.003 2176.6 572.856 2162.75 572.682ZM2200.25 587.469L2162.75 572.682ZM420.44 2272.09L420.43 2272.08C420.197 2271.86 419.966 2271.66 419.741 2271.45C419.496 2271.23 419.256 2271.02 419.028 2270.82C418.582 2270.41 418.176 2270.05 417.771 2269.66C138.925 2009.96 0 1669.54 0 1329.76C0 989.985 138.925 649.571 417.771 389.863C696.675 130.101 1063.05 2.68354e-05 1429.68 0C1796.31 -2.68354e-05 2162.68 130.101 2441.59 389.863C2720.43 649.571 2859.36 989.985 2859.36 1329.76C2859.36 1669.54 2720.44 2009.95 2441.6 2269.65C2278.19 2420.69 2101.97 2576.47 1920.93 2736.53C1770.05 2869.9 1615.83 3006.24 1462.87 3145.26L1462.83 3145.32C1448.55 3158.6 1429.62 3165.43 1410.45 3165.43C1391.28 3165.43 1372.35 3158.6 1358.08 3145.32L420.44 2272.09ZM2141.41 2326.57L2141.57 2326.49L2141.71 2326.39C2210.49 2283.5 2276 2233.89 2336.84 2177.23C2587.92 1943.38 2713.96 1636.9 2713.96 1329.76C2713.96 1022.63 2587.92 716.148 2336.84 482.307C2085.82 248.514 1757.6 131.821 1429.68 131.833C1101.75 131.844 773.671 248.515 522.652 482.307C271.579 716.147 145.532 1022.62 145.532 1329.73C145.532 1636.85 271.579 1943.32 522.652 2177.16C537.115 2190.63 551.917 2203.61 566.84 2216.27C572.464 2221.04 578.144 2225.64 583.797 2230.21C585.064 2231.25 586.33 2232.27 587.594 2233.3L588.868 2234.33C596.498 2240.53 604.164 2246.77 611.984 2252.81C619.693 2258.77 627.543 2264.52 635.316 2270.22L636.786 2271.3L636.789 2271.31L637.277 2271.66C644.467 2276.95 651.704 2282.27 659.045 2287.43C668.001 2293.71 677.036 2299.82 686.111 2305.85C692.679 2310.22 699.283 2314.49 705.894 2318.72C716.274 2325.33 726.695 2331.89 737.285 2338.23C739.986 2339.85 742.763 2341.45 745.495 2343.03C746.944 2343.86 748.38 2344.69 749.786 2345.53C762.565 2352.97 775.385 2360.37 788.455 2367.4C867.419 2409.89 950.416 2444.06 1035.84 2469.72C1036.66 2469.96 1037.9 2470.35 1038.78 2470.61C1055.53 2475.6 1072.39 2480.28 1089.31 2484.61C1176.23 2506.87 1265.28 2520.52 1355.01 2525.4C1372.18 2526.33 1389.42 2526.89 1406.61 2527.19C1407.64 2527.2 1408.82 2527.24 1409.91 2527.25C1427.14 2527.5 1444.36 2527.39 1461.6 2527C1461.72 2526.99 1461.87 2527 1462.1 2527C1462.31 2527 1462.6 2527 1462.9 2527C1463.18 2526.99 1463.44 2526.97 1463.6 2526.96L1463.63 2526.95C1463.82 2526.93 1463.88 2526.93 1463.92 2526.93C1481.33 2526.5 1498.76 2525.73 1516.14 2524.64H1516.18C1516.24 2524.64 1516.34 2524.64 1516.46 2524.64C1516.57 2524.64 1516.73 2524.64 1516.9 2524.62H1516.95C1517.37 2524.6 1517.43 2524.6 1518.01 2524.57C1535.63 2523.43 1553.28 2521.97 1570.86 2520.16C1768.27 2499.83 1962.7 2436.55 2137.71 2328.65C2138.92 2327.92 2140.16 2327.22 2141.41 2326.57ZM530.065 668.338L766.333 888.391L769.392 891.239L772.448 888.39L962.344 711.464L968.177 706.03L962.343 700.596L729.907 484.113C763.854 472.916 799.598 466.922 835.69 466.407C925.514 465.132 1011.82 497.797 1075.02 556.587C1166.68 642.109 1195.19 768.548 1149.76 880.032L1147.67 885.177L1151.33 888.582L2293.89 1952.8L2103.24 2130.3L955.705 1061.52L953.722 1059.68L951.351 1060.46C830.688 1100.33 696.358 1071.93 606.157 988.097C515.508 903.423 486.727 778.801 530.065 668.338ZM1994.49 660.188L1991.43 657.341L1988.36 660.188L1604.95 1017.35L1599.13 1022.78L1604.94 1028.22L1632.8 1054.22L1635.86 1057.08L1638.92 1054.23L2022.4 697.061L2028.24 691.627L2022.4 686.192L1994.49 660.188ZM2052.37 713.083L2049.31 710.244L2046.26 713.087L1662.78 1070.25L1656.94 1075.69L1662.78 1081.12L1690.63 1107.06L1693.68 1109.91L1696.74 1107.06L2080.29 749.898L2086.14 744.455L2080.29 739.023L2052.37 713.083ZM2110.27 765.924L2107.21 763.077L2104.15 765.922L1720.6 1123.09L1714.77 1128.52L1720.6 1133.96L1748.52 1159.96L1751.58 1162.81L1754.63 1159.96L2138.12 802.733L2143.95 797.297L2138.11 791.863L2110.27 765.924ZM1347.43 1488.88L945.69 1863.1L940.527 1867.92L945.215 1873.48C959.023 1889.85 973.236 1906.93 983.98 1920.47C988.323 1925.94 992.06 1930.78 994.96 1934.74C978.083 1934.46 964.716 1934.29 954.094 1934.45C941.357 1934.65 932.209 1935.32 925.522 1937.01C918.718 1938.71 913.84 1941.61 910.274 1946.82C906.948 1951.67 905.244 1957.95 903.552 1964.3C903.419 1964.8 903.283 1965.31 903.146 1965.83C899.734 1978.68 894.801 1997.27 878.214 2024.75C861.169 2052.99 831.71 2090.78 778.756 2140.97C747.575 2111.69 718.929 2084.2 690.312 2056.72C650.657 2018.66 611.061 1980.64 564.861 1938.03C675.116 1839.86 725.55 1823.51 750.252 1815.5L750.715 1815.35L750.943 1815.27C757.061 1813.3 762.309 1811.59 766.477 1809C771.061 1806.16 774.446 1802.2 777.005 1795.96C779.399 1790.13 780.998 1782.44 782.54 1772.35C783.831 1763.92 785.152 1753.28 786.813 1739.9C786.834 1739.73 786.855 1739.57 786.876 1739.39C786.903 1739.41 786.931 1739.43 786.959 1739.45C790.133 1741.38 794.374 1744.18 799.398 1747.64C809.429 1754.57 822.351 1763.95 835.632 1773.78L838.555 1775.96L841.29 1773.41L1247.1 1395.44L1347.43 1488.88ZM2345.42 636.305L1651.81 1282.32L1461.22 1104.75L2154.84 458.738L2345.42 636.305Z" fill="#16A34A"/>
</svg>
