<svg width="48" height="48" viewBox="0 0 48 48" fill="none" xmlns="http://www.w3.org/2000/svg">
<path fill-rule="evenodd" clip-rule="evenodd" d="M19.3554 18.6228H0.621849C0.285016 18.6228 0 18.3314 0 17.9567V0.666078C0 0.305287 0.272052 0 0.621849 0H19.3554C19.6923 0 19.9773 0.291402 19.9773 0.666078V17.9706C19.9773 18.3314 19.6923 18.6228 19.3554 18.6228ZM1.24373 17.3045H18.7466V1.31831H1.24373V17.3045Z" fill="#172554"/>
<path fill-rule="evenodd" clip-rule="evenodd" d="M19.3554 46.9439H0.621849C0.285016 46.9439 0 46.6525 0 46.2779V17.9552C0 17.5944 0.272052 17.2891 0.621849 17.2891L19.3554 17.2891C19.6923 17.2891 19.9773 17.5805 19.9773 17.9551V46.2778C19.9773 46.6525 19.6923 46.9439 19.3554 46.9439ZM1.24373 45.6256H18.7466V18.6212L1.24373 18.6213V45.6256Z" fill="#172554"/>
<path fill-rule="evenodd" clip-rule="evenodd" d="M17.2826 13.3783C16.9458 13.3783 16.6608 13.0869 16.6608 12.7122V7.34186C16.6608 6.98107 16.9328 6.67578 17.2826 6.67578C17.6324 6.67578 17.9045 6.96718 17.9045 7.34186V12.7122C17.8915 13.0869 17.6194 13.3783 17.2826 13.3783Z" fill="#172554"/>
<path fill-rule="evenodd" clip-rule="evenodd" d="M17.2826 35.0111C16.9458 35.0111 16.6608 34.7197 16.6608 34.345V27.3926C16.6608 27.0318 16.9328 26.7266 17.2826 26.7266C17.6324 26.7266 17.9045 27.018 17.9045 27.3926V34.345C17.8915 34.7197 17.6194 35.0111 17.2826 35.0111Z" fill="#172554"/>
<path fill-rule="evenodd" clip-rule="evenodd" d="M45.3699 36.7196H26.0274C24.5764 36.7196 23.3975 35.4568 23.3975 33.9026V14.8912C23.3975 13.337 24.5764 12.0742 26.0274 12.0742H45.3699C46.8209 12.0742 47.9999 13.337 47.9999 14.8912V33.9026C48.0128 35.4568 46.8209 36.7196 45.3699 36.7196ZM26.0274 13.3787C25.2501 13.3787 24.6282 14.0586 24.6282 14.8774V33.8887C24.6282 34.7214 25.263 35.3874 26.0274 35.3874L45.3699 35.3874C46.1472 35.3874 46.7691 34.7074 46.7691 33.8887V14.8773C46.7691 14.0447 46.1343 13.3786 45.3699 13.3786L26.0274 13.3787Z" fill="#172554"/>
<path fill-rule="evenodd" clip-rule="evenodd" d="M37.519 32.4571H28.9814C27.349 32.4571 26.0276 31.0417 26.0276 29.2932V20.1483C26.0276 18.3998 27.349 16.9844 28.9814 16.9844H37.519C39.1514 16.9844 40.4729 18.3998 40.4729 20.1483V29.2932C40.4729 30.1397 40.1619 30.9307 39.6049 31.5274C39.0478 32.124 38.3093 32.4571 37.519 32.4571ZM28.9814 18.3027C28.0357 18.3027 27.2584 19.1353 27.2584 20.1483V29.2932C27.2584 30.3062 28.0357 31.1388 28.9814 31.1388H37.519C37.9725 31.1388 38.413 30.9445 38.7368 30.5976C39.0607 30.2507 39.2421 29.7789 39.2421 29.2932V20.1483C39.2421 19.1353 38.4648 18.3027 37.519 18.3027H28.9814Z" fill="#172554"/>
<path fill-rule="evenodd" clip-rule="evenodd" d="M45.681 32.1095H41.7685C41.4316 32.1095 41.1466 31.8181 41.1466 31.4435C41.1466 31.0688 41.4187 30.7774 41.7685 30.7774L45.681 30.7773C46.0178 30.7773 46.3028 31.0687 46.3028 31.4434C46.3028 31.8181 46.0178 32.1095 45.681 32.1095Z" fill="#172554"/>
<path fill-rule="evenodd" clip-rule="evenodd" d="M45.681 29.0861H41.7685C41.4316 29.0861 41.1466 28.7947 41.1466 28.42C41.1466 28.0453 41.4187 27.7539 41.7685 27.7539L45.681 27.7539C46.0178 27.7539 46.3028 28.0453 46.3028 28.42C46.3028 28.7947 46.0178 29.0861 45.681 29.0861Z" fill="#172554"/>
<path fill-rule="evenodd" clip-rule="evenodd" d="M45.681 26.0743H41.7685C41.4316 26.0743 41.1466 25.7829 41.1466 25.4083C41.1466 25.0336 41.4187 24.7422 41.7685 24.7422H45.681C46.0178 24.7422 46.3028 25.0336 46.3028 25.4083C46.3028 25.7829 46.0178 26.0743 45.681 26.0743Z" fill="#172554"/>
<path fill-rule="evenodd" clip-rule="evenodd" d="M43.7247 23.0649C42.2478 23.0649 41.0559 21.7744 41.0559 20.2063C41.0559 18.6382 42.2608 17.3477 43.7247 17.3477C45.1887 17.3477 46.3935 18.6382 46.3935 20.2063C46.3935 21.7744 45.1887 23.0649 43.7247 23.0649ZM43.7247 18.6521C42.9345 18.6521 42.2867 19.3459 42.2867 20.1924C42.2867 21.0389 42.9345 21.7327 43.7247 21.7327C44.515 21.7327 45.1628 21.0389 45.1628 20.1924C45.1628 19.3459 44.515 18.6521 43.7247 18.6521Z" fill="#172554"/>
<path fill-rule="evenodd" clip-rule="evenodd" d="M30.2381 30.1005C29.9531 30.1005 29.694 29.8923 29.6422 29.5732C29.5774 29.2124 29.7847 28.8654 30.1215 28.796C30.7434 28.6573 31.1321 28.4075 31.2745 28.0467C31.5207 27.45 31.132 26.548 30.9636 26.2566C30.9636 26.2427 30.9506 26.2288 30.9377 26.215L29.9531 24.2445C28.7612 21.8437 31.0932 19.5957 31.1968 19.5124C31.456 19.2765 31.8446 19.3043 32.0648 19.5679C32.2851 19.8455 32.2592 20.2618 32.013 20.4977C31.9871 20.5255 30.3159 22.1491 31.0414 23.6339L32.013 25.5767C32.1555 25.8264 32.9199 27.2696 32.4017 28.5602C32.0907 29.3373 31.4041 29.8507 30.3677 30.0867C30.3159 30.1005 30.277 30.1005 30.2381 30.1005Z" fill="#172554"/>
<path fill-rule="evenodd" clip-rule="evenodd" d="M34.5521 30.1005C34.2671 30.1005 34.008 29.8923 33.9562 29.5732C33.8914 29.2124 34.0987 28.8654 34.4355 28.796C35.0574 28.6573 35.4461 28.4075 35.5885 28.0467C35.8347 27.45 35.446 26.548 35.2776 26.2566C35.2646 26.2427 35.2646 26.2288 35.2517 26.215C35.2517 26.215 35.1999 26.1178 34.2671 24.2445C33.0751 21.8437 35.4071 19.5957 35.5108 19.5124C35.7699 19.2765 36.1586 19.3043 36.3788 19.5679C36.599 19.8455 36.5731 20.2618 36.327 20.4977C36.3011 20.5116 34.6298 22.1491 35.3553 23.6339L36.3141 25.5767V25.5905C36.4566 25.8264 37.2209 27.2835 36.7027 28.5741C36.3918 29.3512 35.7051 29.8646 34.6687 30.1005C34.6428 30.1005 34.604 30.1005 34.5521 30.1005Z" fill="#172554"/>
<path fill-rule="evenodd" clip-rule="evenodd" d="M41.2759 1.96887H30.1212C29.7844 1.96887 29.4994 1.67747 29.4994 1.3028C29.4994 0.92812 29.7714 0.636719 30.1212 0.636719H41.2759C41.6127 0.636719 41.8977 0.92812 41.8977 1.3028C41.8977 1.67747 41.6127 1.96887 41.2759 1.96887Z" fill="#172554"/>
<path fill-rule="evenodd" clip-rule="evenodd" d="M41.2759 4.99626H30.1212C29.7844 4.99626 29.4994 4.70486 29.4994 4.33018C29.4994 3.9555 29.7714 3.6641 30.1212 3.6641L41.2759 3.66406C41.6127 3.66406 41.8977 3.95546 41.8977 4.33014C41.8977 4.70482 41.6127 4.99626 41.2759 4.99626Z" fill="#172554"/>
<path fill-rule="evenodd" clip-rule="evenodd" d="M41.2759 8.00798H30.1212C29.7844 8.00798 29.4994 7.71657 29.4994 7.3419C29.4994 6.96722 29.7714 6.67582 30.1212 6.67582L41.2759 6.67578C41.6127 6.67578 41.8977 6.96718 41.8977 7.34186C41.8977 7.71653 41.6127 8.00798 41.2759 8.00798Z" fill="#172554"/>
<path fill-rule="evenodd" clip-rule="evenodd" d="M41.2759 41.965H30.1212C29.7844 41.965 29.4994 41.6736 29.4994 41.2989C29.4994 40.9243 29.7714 40.6329 30.1212 40.6329L41.2759 40.6328C41.6127 40.6328 41.8977 40.9242 41.8977 41.2989C41.8977 41.6736 41.6127 41.965 41.2759 41.965Z" fill="#172554"/>
<path fill-rule="evenodd" clip-rule="evenodd" d="M41.2759 44.9884H30.1212C29.7844 44.9884 29.4994 44.697 29.4994 44.3223C29.4994 43.9477 29.7714 43.6562 30.1212 43.6562H41.2759C41.6127 43.6562 41.8977 43.9477 41.8977 44.3223C41.8977 44.697 41.6127 44.9884 41.2759 44.9884Z" fill="#172554"/>
<path fill-rule="evenodd" clip-rule="evenodd" d="M41.2759 48.0002H30.1212C29.7844 48.0002 29.4994 47.7088 29.4994 47.3341C29.4994 46.9594 29.7714 46.668 30.1212 46.668L41.2759 46.668C41.6127 46.668 41.8977 46.9594 41.8977 47.334C41.8977 47.7087 41.6127 48.0002 41.2759 48.0002Z" fill="#172554"/>
<path fill-rule="evenodd" clip-rule="evenodd" d="M2.73354 44.1966C2.39671 44.1966 2.11169 43.9052 2.11169 43.5305V20.7169C2.11169 20.3561 2.38375 20.0508 2.73354 20.0508C3.08334 20.0508 3.35539 20.3422 3.35539 20.7169L3.35543 43.5305C3.34247 43.9052 3.07038 44.1966 2.73354 44.1966Z" fill="#172554"/>
<path fill-rule="evenodd" clip-rule="evenodd" d="M2.73354 16.4028C2.39671 16.4028 2.11169 16.1114 2.11169 15.7368V2.62311C2.11169 2.26232 2.38375 1.95703 2.73354 1.95703C3.08334 1.95703 3.35539 2.24843 3.35539 2.62311V15.7368C3.34247 16.0976 3.07038 16.4028 2.73354 16.4028Z" fill="#172554"/>
</svg>
