<svg width="48" height="48" viewBox="0 0 48 48" fill="none" xmlns="http://www.w3.org/2000/svg">
<path d="M42.1413 42.4882C41.0966 42.4883 40.0778 42.158 39.2262 41.5431C38.3745 40.9282 37.7322 40.0592 37.3882 39.0565C37.0443 38.0539 37.0158 36.9673 37.3067 35.9474C37.5976 34.9276 38.1935 34.025 39.0117 33.3649C39.9007 32.6443 41.0043 32.2525 42.1413 32.2539C42.8028 32.2532 43.458 32.3851 44.0694 32.6419C44.6807 32.8988 45.2363 33.2756 45.7043 33.7508C46.1723 34.2261 46.5436 34.7904 46.7969 35.4116C47.0503 36.0328 47.1806 36.6986 47.1806 37.371C47.1806 38.0435 47.0503 38.7093 46.7969 39.3305C46.5436 39.9517 46.1723 40.516 45.7043 40.9913C45.2363 41.4665 44.6807 41.8433 44.0694 42.1002C43.458 42.357 42.8028 42.4889 42.1413 42.4882ZM42.1413 33.141C41.3183 33.1411 40.5137 33.3892 39.8294 33.8541C39.1452 34.3189 38.6118 34.9795 38.2969 35.7525C37.982 36.5254 37.8996 37.3759 38.0602 38.1964C38.2208 39.0169 38.6171 39.7706 39.1991 40.3621C39.781 40.9537 40.5225 41.3565 41.3297 41.5198C42.1369 41.683 42.9736 41.5993 43.734 41.2792C44.4944 40.9591 45.1444 40.4171 45.6017 39.7215C46.059 39.026 46.3032 38.2082 46.3033 37.3716C46.3052 36.8155 46.1989 36.2645 45.9904 35.7503C45.7819 35.2361 45.4754 34.769 45.0886 34.3757C44.7017 33.9825 44.2421 33.671 43.7363 33.459C43.2305 33.2471 42.6884 33.139 42.1413 33.141Z" fill="#172554"/>
<path d="M29.6125 42.4882C28.9065 42.4877 28.2084 42.3364 27.5637 42.0439C26.919 41.7514 26.342 41.3243 25.8702 40.7904C25.3985 40.2565 25.0425 39.6277 24.8253 38.9448C24.6082 38.2619 24.5348 37.5403 24.6099 36.8267C24.685 36.1131 24.9069 35.4236 25.2613 34.8028C25.6156 34.1821 26.0945 33.6441 26.6667 33.2237C27.2389 32.8033 27.8917 32.51 28.5827 32.3628C29.2737 32.2155 29.9875 32.2177 30.6776 32.3691C31.8018 32.6168 32.8087 33.2483 33.5308 34.1584C34.253 35.0685 34.6469 36.2024 34.6472 37.3716C34.6455 38.7283 34.1145 40.0289 33.1707 40.9881C32.2268 41.9473 30.9472 42.4868 29.6125 42.4882ZM29.6125 33.141C28.625 33.141 27.6697 33.4979 26.9172 34.1479C26.1647 34.7979 25.6641 35.6988 25.5049 36.6894C25.3457 37.6801 25.5381 38.696 26.048 39.5557C26.5578 40.4153 27.3517 41.0627 28.2879 41.3822C29.224 41.7017 30.2414 41.6724 31.1583 41.2995C32.0752 40.9267 32.8318 40.2347 33.2929 39.347C33.754 38.4594 33.8896 37.434 33.6755 36.4541C33.4613 35.4742 32.9114 34.6037 32.1239 33.998C31.6422 33.6252 31.0855 33.365 30.4935 33.2362C30.204 33.1728 29.9087 33.1409 29.6125 33.141Z" fill="#172554"/>
<path d="M24.5811 47.6027C24.4654 47.6027 24.3544 47.556 24.2726 47.4728C24.1908 47.3896 24.1448 47.2768 24.1448 47.1592C24.1448 47.0415 24.1908 46.9287 24.2726 46.8455C24.3544 46.7623 24.4654 46.7156 24.5811 46.7156C29.1072 46.7156 29.1756 42.2346 29.1763 42.0438C29.1767 41.9265 29.2229 41.814 29.3047 41.7311C29.3864 41.6482 29.4972 41.6017 29.6127 41.6016H29.6135C29.729 41.6017 29.8398 41.6484 29.9215 41.7315C30.0031 41.8146 30.049 41.9272 30.049 42.0447C30.049 42.1003 29.9865 47.6027 24.5811 47.6027Z" fill="#172554"/>
<path d="M47.5637 48.0003C44.54 48.0003 43.1026 46.3684 42.4292 44.9995C41.9858 44.0777 41.7391 43.071 41.7054 42.0455C41.7054 41.9872 41.7166 41.9296 41.7385 41.8757C41.7604 41.8219 41.7925 41.773 41.8329 41.7317C41.8734 41.6905 41.9215 41.6578 41.9744 41.6355C42.0273 41.6131 42.0841 41.6016 42.1414 41.6016C42.1987 41.6015 42.2554 41.6129 42.3084 41.6352C42.3613 41.6574 42.4095 41.69 42.45 41.7312C42.4906 41.7724 42.5228 41.8212 42.5447 41.875C42.5667 41.9288 42.5781 41.9865 42.5781 42.0447C42.5788 42.2517 42.6518 47.1132 47.5637 47.1132C47.6794 47.1132 47.7904 47.16 47.8722 47.2432C47.954 47.3263 48 47.4391 48 47.5568C48 47.6744 47.954 47.7872 47.8722 47.8704C47.7904 47.9536 47.6794 48.0003 47.5637 48.0003Z" fill="#172554"/>
<path d="M32.3875 34.0893C32.2923 34.0893 32.1997 34.0577 32.1238 33.9992C31.6421 33.6264 31.0854 33.3663 30.4934 33.2374C30.4334 33.2243 30.3768 33.1984 30.3273 33.1615C30.2778 33.1246 30.2365 33.0775 30.2061 33.0233C30.1757 32.9691 30.1569 32.9089 30.151 32.8468C30.145 32.7847 30.1521 32.722 30.1716 32.6628L33.8071 21.6443C33.8344 21.5616 33.885 21.489 33.9527 21.4354C34.0204 21.3818 34.1021 21.3497 34.1877 21.3431C34.2732 21.3365 34.3588 21.3556 34.4337 21.3982C34.5086 21.4407 34.5695 21.5047 34.6087 21.5823C34.6332 21.6305 34.6535 21.6666 34.6695 21.6931C35.057 21.7338 35.4319 21.8558 35.7707 22.0514C35.8682 22.1048 35.9421 22.1939 35.9773 22.3007L36.1831 22.9234C36.2129 23.0136 36.2134 23.1111 36.1845 23.2016L32.8025 33.7829C32.774 33.872 32.7185 33.9496 32.644 34.0046C32.5695 34.0597 32.4797 34.0893 32.3875 34.0893ZM31.1468 32.4972C31.4969 32.6104 31.8336 32.7628 32.1505 32.9518L35.3099 23.0669L35.2071 22.7558C34.9904 22.6444 34.7525 22.5822 34.5098 22.5735C34.4808 22.5736 34.4519 22.5712 34.4233 22.5665L31.1468 32.4972Z" fill="#172554"/>
<path d="M36.6622 20.7125C36.5721 20.7125 36.4841 20.6841 36.4105 20.6312C36.3368 20.5784 36.2811 20.5036 36.251 20.4172L34.8135 16.2946C34.7765 16.1884 34.7806 16.0719 34.825 15.9687L41.0293 1.548C41.257 0.901509 41.7422 -0.136917 42.4633 0.03691C42.573 0.0632863 42.6759 0.113433 42.7648 0.183924C42.8538 0.254415 42.9267 0.34359 42.9787 0.445358C43.2904 1.04174 42.9446 2.10169 42.8245 2.42872L37.0773 20.4061C37.0491 20.4942 36.9945 20.5711 36.9211 20.6261C36.8477 20.6811 36.7592 20.7113 36.6681 20.7125L36.6622 20.7125ZM35.6937 16.1635L36.6444 18.8899L41.9975 2.14525L42.0039 2.12653C42.1339 1.78241 42.2123 1.42036 42.2364 1.05253C42.0763 1.30565 41.9454 1.57667 41.8463 1.86024C41.8429 1.86992 41.8391 1.87983 41.835 1.88927L35.6937 16.1635Z" fill="#172554"/>
<path d="M39.2828 34.1562C39.1914 34.1561 39.1023 34.1269 39.028 34.0726C38.9538 34.0184 38.8982 33.9418 38.8692 33.8536L35.2073 22.7549C34.9906 22.6435 34.7527 22.5813 34.51 22.5727C34.1294 22.5727 33.9293 22.1774 33.8331 21.9874C32.6645 19.7069 29.9167 7.50002 28.7895 2.35771C28.7633 2.23831 28.7478 2.16757 28.7441 2.1513C28.7417 2.14101 28.7397 2.13064 28.7381 2.12021C28.5832 1.29623 28.5263 0.27209 29.1248 0.0403612C29.2038 0.0104687 29.2879 -0.00305747 29.3721 0.000578762C29.4564 0.004215 29.539 0.0249402 29.6152 0.0615345C30.0991 0.285616 30.4763 1.21013 30.616 1.59722L37.0737 20.1208L41.4541 32.6841C41.4745 32.7425 41.4826 32.8046 41.4779 32.8664C41.4732 32.9282 41.4558 32.9884 41.4268 33.0429C41.3979 33.0975 41.358 33.1452 41.3098 33.1832C41.2615 33.2211 41.206 33.2483 41.1468 33.2631C40.5654 33.4073 40.0221 33.6791 39.555 34.0593C39.4777 34.1221 39.3817 34.1562 39.2828 34.1562ZM34.6698 21.6922C35.0572 21.7329 35.4322 21.8549 35.7709 22.0505C35.8684 22.1039 35.9423 22.193 35.9776 22.2998L39.5107 33.0082C39.8155 32.817 40.1399 32.6601 40.4781 32.5403L34.8136 16.2946L29.795 1.89813C29.7161 1.68182 29.6232 1.47103 29.5169 1.26714C29.5286 1.5015 29.5555 1.73481 29.5975 1.96556C29.6044 1.99666 29.6193 2.06441 29.6413 2.16485C30.5149 6.15034 33.4548 19.3289 34.608 21.5796C34.633 21.6288 34.6535 21.6654 34.6698 21.6922Z" fill="#172554"/>
<path d="M35.2248 21.5287C34.9898 21.5287 34.7601 21.4579 34.5647 21.3252C34.3693 21.1925 34.217 21.0039 34.1271 20.7832C34.0371 20.5625 34.0136 20.3197 34.0595 20.0854C34.1053 19.8511 34.2185 19.6359 34.3846 19.467C34.5508 19.2981 34.7625 19.1831 34.993 19.1365C35.2235 19.0899 35.4624 19.1138 35.6795 19.2052C35.8966 19.2966 36.0822 19.4514 36.2127 19.65C36.3433 19.8487 36.4129 20.0822 36.4129 20.321C36.4126 20.6412 36.2873 20.9482 36.0646 21.1746C35.8418 21.401 35.5398 21.5284 35.2248 21.5287ZM35.2248 20.0004C35.1624 20.0004 35.1014 20.0192 35.0496 20.0544C34.9977 20.0896 34.9572 20.1397 34.9334 20.1983C34.9095 20.2569 34.9032 20.3214 34.9154 20.3836C34.9276 20.4458 34.9576 20.5029 35.0017 20.5477C35.0458 20.5926 35.102 20.6231 35.1632 20.6355C35.2244 20.6479 35.2878 20.6415 35.3455 20.6173C35.4031 20.593 35.4524 20.5519 35.4871 20.4992C35.5217 20.4465 35.5402 20.3845 35.5402 20.321C35.5401 20.236 35.5069 20.1545 35.4478 20.0944C35.3886 20.0343 35.3084 20.0005 35.2248 20.0004Z" fill="#172554"/>
<path d="M42.1417 40.8937C41.4564 40.8937 40.7865 40.6872 40.2167 40.3002C39.6469 39.9132 39.2028 39.3631 38.9405 38.7195C38.6782 38.0759 38.6096 37.3678 38.7433 36.6846C38.877 36.0013 39.207 35.3738 39.6916 34.8812C40.1762 34.3886 40.7936 34.0532 41.4658 33.9173C42.1379 33.7814 42.8346 33.8511 43.4677 34.1177C44.1009 34.3843 44.642 34.8357 45.0228 35.4149C45.4035 35.9941 45.6067 36.6751 45.6067 37.3717C45.6057 38.3055 45.2403 39.2007 44.5907 39.861C43.9411 40.5213 43.0604 40.8927 42.1417 40.8937ZM42.1417 34.7367C41.629 34.7367 41.1278 34.8912 40.7015 35.1807C40.2752 35.4703 39.943 35.8818 39.7468 36.3633C39.5506 36.8448 39.4992 37.3746 39.5992 37.8857C39.6993 38.3969 39.9462 38.8664 40.3087 39.2349C40.6712 39.6034 41.1332 39.8544 41.636 39.956C42.1389 40.0577 42.6601 40.0055 43.1338 39.8061C43.6075 39.6067 44.0123 39.2689 44.2972 38.8356C44.582 38.4023 44.734 37.8928 44.734 37.3717C44.7333 36.6731 44.4599 36.0033 43.9739 35.5093C43.4879 35.0153 42.829 34.7375 42.1417 34.7367Z" fill="#172554"/>
<path d="M29.613 40.8937C28.9277 40.8937 28.2578 40.6872 27.688 40.3002C27.1182 39.9132 26.6741 39.3631 26.4118 38.7195C26.1495 38.0759 26.0809 37.3678 26.2146 36.6846C26.3483 36.0013 26.6783 35.3738 27.1629 34.8812C27.6475 34.3886 28.2649 34.0532 28.9371 33.9173C29.6092 33.7814 30.3059 33.8511 30.939 34.1177C31.5722 34.3843 32.1133 34.8357 32.4941 35.4149C32.8748 35.9941 33.078 36.6751 33.078 37.3717C33.077 38.3055 32.7116 39.2007 32.062 39.861C31.4124 40.5213 30.5317 40.8927 29.613 40.8937ZM29.613 34.7367C29.1003 34.7367 28.5991 34.8912 28.1728 35.1807C27.7465 35.4703 27.4143 35.8818 27.2181 36.3633C27.0219 36.8448 26.9705 37.3746 27.0706 37.8857C27.1706 38.3969 27.4175 38.8664 27.78 39.2349C28.1425 39.6034 28.6045 39.8544 29.1073 39.956C29.6102 40.0577 30.1314 40.0055 30.6051 39.8061C31.0788 39.6067 31.4836 39.2689 31.7685 38.8356C32.0533 38.4023 32.2053 37.8928 32.2053 37.3717C32.2046 36.6731 31.9312 36.0033 31.4452 35.5093C30.9592 35.0153 30.3003 34.7375 29.613 34.7367Z" fill="#172554"/>
<path d="M10.0361 48.0005C9.69081 48.0002 9.35966 47.8613 9.11455 47.6142C8.86945 47.367 8.7302 47.0315 8.72705 46.6806L7.86855 26.61C3.43124 25.3027 1.2582e-10 20.9293 1.2582e-10 16.5094V12.9611C-1.37592e-06 12.9029 0.0112842 12.8452 0.0332123 12.7914C0.0551404 12.7376 0.0872818 12.6887 0.127801 12.6475C0.16832 12.6063 0.216423 12.5736 0.269364 12.5513C0.322305 12.529 0.379047 12.5176 0.436349 12.5176H19.6358C19.6931 12.5176 19.7498 12.529 19.8027 12.5513C19.8557 12.5736 19.9038 12.6063 19.9443 12.6475C19.9848 12.6887 20.017 12.7376 20.0389 12.7914C20.0608 12.8452 20.0721 12.9029 20.0721 12.9611V16.5094C20.0721 20.9293 16.6408 25.3027 12.2036 26.61L11.3451 46.6806C11.3419 47.0315 11.2027 47.367 10.9576 47.6142C10.7125 47.8613 10.3813 48.0002 10.0361 48.0005ZM0.872699 13.4046V16.5094C0.872699 20.6466 4.1784 24.744 8.39844 25.8375C8.48926 25.861 8.57021 25.9136 8.62932 25.9875C8.68842 26.0615 8.72253 26.1528 8.7266 26.248L9.5993 46.6507L9.59971 46.6699C9.59971 46.7876 9.64568 46.9004 9.72751 46.9835C9.80934 47.0667 9.92033 47.1135 10.0361 47.1135C10.1518 47.1135 10.2628 47.0667 10.3446 46.9835C10.4264 46.9004 10.4724 46.7876 10.4724 46.6699L10.4728 46.6507L11.3455 26.248C11.3496 26.1528 11.3837 26.0615 11.4428 25.9875C11.5019 25.9136 11.5829 25.861 11.6737 25.8375C15.8937 24.744 19.1994 20.6466 19.1994 16.5094V13.4046H0.872699Z" fill="#172554"/>
<path d="M19.6358 13.4038H0.436349C0.379047 13.4038 0.322305 13.3923 0.269364 13.37C0.216423 13.3477 0.16832 13.315 0.127801 13.2739C0.0872818 13.2327 0.0551404 13.1838 0.0332123 13.13C0.0112842 13.0762 -1.37592e-06 13.0185 1.25821e-10 12.9602V0.541192C-1.58192e-09 0.482946 0.0112867 0.425271 0.0332153 0.371458C0.0551439 0.317646 0.0872851 0.268751 0.127804 0.227565C0.168323 0.186379 0.216425 0.153708 0.269366 0.131418C0.322306 0.109129 0.379047 0.0976563 0.436349 0.0976562C0.493652 0.0976563 0.550393 0.109129 0.603333 0.131418C0.656273 0.153708 0.704376 0.186379 0.744895 0.227565C0.785414 0.268751 0.817555 0.317646 0.839484 0.371458C0.861412 0.425271 0.872699 0.482946 0.872699 0.541192V12.5167H19.1994V0.541192C19.1994 0.423559 19.2454 0.310744 19.3272 0.227565C19.409 0.144386 19.52 0.0976562 19.6358 0.0976562C19.7515 0.0976562 19.8625 0.144386 19.9443 0.227565C20.0261 0.310744 20.0721 0.423559 20.0721 0.541192V12.9602C20.0721 13.0185 20.0608 13.0762 20.0389 13.13C20.017 13.1838 19.9848 13.2327 19.9443 13.2739C19.9038 13.3151 19.8557 13.3477 19.8027 13.37C19.7498 13.3923 19.6931 13.4038 19.6358 13.4038Z" fill="#172554"/>
<path d="M19.6358 15.1781H8.29066C8.17493 15.1781 8.06394 15.1314 7.98211 15.0482C7.90028 14.965 7.85431 14.8522 7.85431 14.7346C7.85431 14.6169 7.90028 14.5041 7.98211 14.4209C8.06394 14.3377 8.17493 14.291 8.29066 14.291H19.6358C19.7515 14.291 19.8625 14.3377 19.9443 14.4209C20.0261 14.5041 20.0721 14.6169 20.0721 14.7346C20.0721 14.8522 20.0261 14.965 19.9443 15.0482C19.8625 15.1314 19.7515 15.1781 19.6358 15.1781Z" fill="#172554"/>
<path d="M6.54524 15.1781H3.92714C3.81141 15.1781 3.70043 15.1314 3.6186 15.0482C3.53676 14.965 3.49079 14.8522 3.49079 14.7346C3.49079 14.6169 3.53676 14.5041 3.6186 14.4209C3.70043 14.3377 3.81141 14.291 3.92714 14.291H6.54524C6.66097 14.291 6.77196 14.3377 6.85379 14.4209C6.93562 14.5041 6.98159 14.6169 6.98159 14.7346C6.98159 14.8522 6.93562 14.965 6.85379 15.0482C6.77196 15.1314 6.66097 15.1781 6.54524 15.1781Z" fill="#172554"/>
<path d="M17.8904 13.4038C17.8331 13.4038 17.7763 13.3923 17.7234 13.37C17.6704 13.3477 17.6223 13.315 17.5818 13.2739C17.5413 13.2327 17.5092 13.1838 17.4872 13.13C17.4653 13.0762 17.454 13.0185 17.454 12.9602V0.541192C17.454 0.423559 17.5 0.310744 17.5818 0.227565C17.6636 0.144386 17.7746 0.0976562 17.8904 0.0976562C18.0061 0.0976562 18.1171 0.144386 18.1989 0.227565C18.2807 0.310744 18.3267 0.423559 18.3267 0.541192V12.9602C18.3267 13.0185 18.3154 13.0762 18.2935 13.13C18.2716 13.1838 18.2394 13.2327 18.1989 13.2739C18.1584 13.3151 18.1103 13.3477 18.0573 13.37C18.0044 13.3923 17.9477 13.4038 17.8904 13.4038Z" fill="#172554"/>
<path d="M16.145 13.4042C16.0876 13.4042 16.0309 13.3927 15.978 13.3704C15.925 13.3481 15.8769 13.3155 15.8364 13.2743C15.7959 13.2331 15.7637 13.1842 15.7418 13.1304C15.7199 13.0766 15.7086 13.0189 15.7086 12.9607V0.541614C15.709 0.424247 15.7551 0.311825 15.8369 0.228977C15.9187 0.146129 16.0295 0.0996094 16.1449 0.0996094C16.2604 0.0996094 16.3712 0.146129 16.453 0.228977C16.5348 0.311825 16.5809 0.424247 16.5813 0.541614V12.9607C16.5813 13.0189 16.57 13.0766 16.5481 13.1304C16.5262 13.1842 16.494 13.2331 16.4535 13.2743C16.413 13.3155 16.3649 13.3481 16.3119 13.3704C16.259 13.3927 16.2023 13.4042 16.145 13.4042Z" fill="#172554"/>
<path d="M14.3996 13.4038C14.3423 13.4038 14.2855 13.3923 14.2326 13.37C14.1796 13.3477 14.1315 13.315 14.091 13.2739C14.0505 13.2327 14.0184 13.1838 13.9964 13.13C13.9745 13.0762 13.9632 13.0185 13.9632 12.9602V0.541192C13.9632 0.423559 14.0092 0.310744 14.091 0.227565C14.1729 0.144386 14.2838 0.0976563 14.3996 0.0976562C14.5153 0.0976563 14.6263 0.144386 14.7081 0.227565C14.7899 0.310744 14.8359 0.423559 14.8359 0.541192V12.9602C14.8359 13.0185 14.8246 13.0762 14.8027 13.13C14.7808 13.1838 14.7486 13.2327 14.7081 13.2739C14.6676 13.3151 14.6195 13.3477 14.5665 13.37C14.5136 13.3923 14.4569 13.4038 14.3996 13.4038Z" fill="#172554"/>
<path d="M12.6542 13.4038C12.5969 13.4038 12.5401 13.3923 12.4872 13.37C12.4342 13.3477 12.3861 13.315 12.3456 13.2739C12.3051 13.2327 12.2729 13.1838 12.251 13.13C12.2291 13.0762 12.2178 13.0185 12.2178 12.9602V0.541192C12.2178 0.423559 12.2638 0.310744 12.3456 0.227565C12.4274 0.144386 12.5384 0.0976563 12.6542 0.0976562C12.7699 0.0976563 12.8809 0.144386 12.9627 0.227565C13.0445 0.310744 13.0905 0.423559 13.0905 0.541192V12.9602C13.0905 13.0185 13.0792 13.0762 13.0573 13.13C13.0354 13.1838 13.0032 13.2327 12.9627 13.2739C12.9222 13.3151 12.8741 13.3477 12.8211 13.37C12.7682 13.3923 12.7115 13.4038 12.6542 13.4038Z" fill="#172554"/>
<path d="M10.9088 13.4038C10.8515 13.4038 10.7947 13.3923 10.7418 13.37C10.6888 13.3477 10.6407 13.315 10.6002 13.2739C10.5597 13.2327 10.5276 13.1838 10.5056 13.13C10.4837 13.0762 10.4724 13.0185 10.4724 12.9602V0.541192C10.4724 0.423559 10.5184 0.310744 10.6002 0.227565C10.682 0.144386 10.793 0.0976563 10.9088 0.0976562C11.0245 0.0976563 11.1355 0.144386 11.2173 0.227565C11.2991 0.310744 11.3451 0.423559 11.3451 0.541192V12.9602C11.3451 13.0185 11.3338 13.0762 11.3119 13.13C11.29 13.1838 11.2578 13.2327 11.2173 13.2739C11.1768 13.3151 11.1287 13.3477 11.0757 13.37C11.0228 13.3923 10.9661 13.4038 10.9088 13.4038Z" fill="#172554"/>
<path d="M9.16335 13.4042C9.10605 13.4042 9.04931 13.3927 8.99637 13.3704C8.94342 13.3481 8.89532 13.3155 8.8548 13.2743C8.81428 13.2331 8.78214 13.1842 8.76021 13.1304C8.73828 13.0766 8.727 13.0189 8.727 12.9607V0.541614C8.7274 0.424247 8.77355 0.311825 8.85533 0.228977C8.93712 0.146129 9.04788 0.0996094 9.16335 0.0996094C9.27882 0.0996094 9.38958 0.146129 9.47136 0.228977C9.55315 0.311825 9.5993 0.424247 9.5997 0.541614V12.9607C9.5997 13.0189 9.58841 13.0766 9.56648 13.1304C9.54456 13.1842 9.51241 13.2331 9.47189 13.2743C9.43138 13.3155 9.38327 13.3481 9.33033 13.3704C9.27739 13.3927 9.22065 13.4042 9.16335 13.4042Z" fill="#172554"/>
<path d="M7.41795 13.4038C7.36064 13.4038 7.3039 13.3923 7.25096 13.37C7.19802 13.3477 7.14992 13.315 7.1094 13.2739C7.06888 13.2327 7.03674 13.1838 7.01481 13.13C6.99288 13.0762 6.9816 13.0185 6.9816 12.9602V0.541192C6.9816 0.423559 7.02757 0.310744 7.1094 0.227565C7.19123 0.144386 7.30222 0.0976563 7.41795 0.0976562C7.53367 0.0976563 7.64466 0.144386 7.72649 0.227565C7.80832 0.310744 7.8543 0.423559 7.8543 0.541192V12.9602C7.8543 13.0185 7.84301 13.0762 7.82108 13.13C7.79915 13.1838 7.76701 13.2327 7.72649 13.2739C7.68597 13.3151 7.63787 13.3477 7.58493 13.37C7.53199 13.3923 7.47525 13.4038 7.41795 13.4038Z" fill="#172554"/>
<path d="M5.67256 13.4038C5.61525 13.4038 5.55851 13.3923 5.50557 13.37C5.45263 13.3477 5.40453 13.315 5.36401 13.2739C5.32349 13.2327 5.29135 13.1838 5.26942 13.13C5.24749 13.0762 5.2362 13.0185 5.23621 12.9602V0.541192C5.23621 0.423559 5.28218 0.310744 5.36401 0.227565C5.44584 0.144386 5.55683 0.0976562 5.67256 0.0976563C5.78828 0.0976562 5.89927 0.144386 5.9811 0.227565C6.06293 0.310744 6.1089 0.423559 6.1089 0.541192V12.9602C6.1089 13.0185 6.09762 13.0762 6.07569 13.13C6.05376 13.1838 6.02162 13.2327 5.9811 13.2739C5.94058 13.3151 5.89248 13.3477 5.83954 13.37C5.7866 13.3923 5.72986 13.4038 5.67256 13.4038Z" fill="#172554"/>
<path d="M3.92714 13.4038C3.86984 13.4038 3.8131 13.3923 3.76016 13.37C3.70721 13.3477 3.65911 13.315 3.61859 13.2739C3.57807 13.2327 3.54593 13.1838 3.524 13.13C3.50208 13.0762 3.49079 13.0185 3.49079 12.9602V0.541192C3.49079 0.423559 3.53676 0.310744 3.6186 0.227565C3.70043 0.144386 3.81141 0.0976562 3.92714 0.0976562C4.04287 0.0976562 4.15385 0.144386 4.23569 0.227565C4.31752 0.310744 4.36349 0.423559 4.36349 0.541192V12.9602C4.36349 13.0185 4.3522 13.0762 4.33027 13.13C4.30834 13.1838 4.2762 13.2327 4.23568 13.2739C4.19516 13.3151 4.14706 13.3477 4.09412 13.37C4.04118 13.3923 3.98444 13.4038 3.92714 13.4038Z" fill="#172554"/>
<path d="M2.18175 13.4042C2.12444 13.4042 2.0677 13.3927 2.01476 13.3704C1.96182 13.3481 1.91372 13.3155 1.8732 13.2743C1.83268 13.2331 1.80053 13.1842 1.77861 13.1304C1.75668 13.0766 1.74539 13.0189 1.74539 12.9607V0.541614C1.74579 0.424247 1.79194 0.311825 1.87373 0.228977C1.95552 0.146129 2.06628 0.0996094 2.18174 0.0996094C2.29721 0.0996094 2.40797 0.146129 2.48976 0.228977C2.57155 0.311825 2.6177 0.424247 2.6181 0.541614V12.9607C2.61809 13.0189 2.60681 13.0766 2.58488 13.1304C2.56295 13.1842 2.53081 13.2331 2.49029 13.2743C2.44977 13.3155 2.40167 13.3481 2.34873 13.3704C2.29579 13.3927 2.23905 13.4042 2.18175 13.4042Z" fill="#172554"/>
</svg>
