<svg width="48" height="48" viewBox="0 0 48 48" fill="none" xmlns="http://www.w3.org/2000/svg">
<path fill-rule="evenodd" clip-rule="evenodd" d="M5.28572 12.7827C7.066 13.2427 8.63981 14.4076 9.67702 16.013L12.3471 14.3256C11.5409 12.5696 11.3556 10.5391 11.845 8.66734C12.2471 7.13156 12.0438 5.45964 11.2874 4.08069C10.5207 2.68221 9.28778 1.70896 7.81589 1.3381C6.34517 0.968232 4.83611 1.25405 3.56681 2.14438C1.22702 3.78348 0.414548 7.14597 1.71713 9.79945C2.45273 11.2992 3.75341 12.3862 5.28572 12.7827ZM9.50015 17.4001C9.31566 17.4001 9.13565 17.3008 9.03192 17.1205L9.02655 17.1102C9.02457 17.1071 9.02266 17.1041 9.02078 17.1C8.15146 15.5172 6.69623 14.3616 5.02825 13.9302C5.02831 13.9302 5.02828 13.9302 5.02825 13.9302C3.18883 13.4538 1.62737 12.1496 0.744542 10.3496C-0.819671 7.16339 0.156039 3.12483 2.96601 1.15576C4.48928 0.0881986 6.30088 -0.254972 8.06666 0.189663C9.83406 0.634268 11.3142 1.80324 12.2347 3.48141C13.1423 5.13687 13.386 7.14292 12.9034 8.98601C12.4454 10.7379 12.6832 12.6558 13.5558 14.2469C13.7099 14.5275 13.6225 14.8892 13.361 15.0552L9.7785 17.3192C9.69099 17.3735 9.59497 17.4002 9.50015 17.4001Z" fill="#172554"/>
<path fill-rule="evenodd" clip-rule="evenodd" d="M27.1502 47.997C26.9586 47.997 26.7768 47.8895 26.6765 47.7061L9.67303 16.7026C9.51899 16.422 9.60619 16.0593 9.86779 15.8943C10.1294 15.7294 10.4663 15.8226 10.6203 16.1033L26.699 45.4213L26.867 42.0651C26.9208 39.7518 26.371 37.4744 25.2769 35.4797L17.3015 20.9195L14.8348 20.1634C14.6994 20.1214 14.5839 20.0261 14.5123 19.895L11.9619 15.255C11.8077 14.9744 11.8945 14.6127 12.156 14.4467C12.4174 14.2818 12.7544 14.375 12.9087 14.6558L15.3477 19.0928L17.8148 19.8489C17.9506 19.8908 18.0661 19.9872 18.1377 20.1173L26.2244 34.8804C27.4241 37.0686 28.0264 39.5664 27.9657 42.1031C27.9657 42.1092 27.9654 42.1144 27.9652 42.1205L27.6991 47.4387C27.686 47.6979 27.5159 47.9181 27.2804 47.9796C27.237 47.9908 27.1933 47.9971 27.1502 47.997Z" fill="#172554"/>
<path fill-rule="evenodd" clip-rule="evenodd" d="M15.4418 22.3045C15.4055 22.3045 15.3692 22.3014 15.3339 22.2932C15.2996 22.286 15.2642 22.2748 15.2318 22.2594C15.1984 22.245 15.1661 22.2266 15.1364 22.2051C15.1068 22.1836 15.0782 22.159 15.0524 22.1324C14.9503 22.0217 14.8921 21.8701 14.8921 21.7154C14.8921 21.6764 14.8959 21.6375 14.9026 21.5996C14.9093 21.5616 14.9207 21.5248 14.9341 21.489C14.9475 21.4541 14.9646 21.4193 14.9847 21.3876C15.0047 21.3547 15.0276 21.3251 15.0524 21.2974C15.0782 21.2707 15.1068 21.2462 15.1364 21.2246C15.1661 21.2031 15.1984 21.1847 15.2318 21.1703C15.2643 21.1549 15.2996 21.1437 15.3339 21.1365C15.4055 21.1212 15.4781 21.1212 15.5486 21.1365C15.584 21.1436 15.6183 21.155 15.6517 21.1703C15.6851 21.1847 15.7167 21.2031 15.7471 21.2246C15.7767 21.2461 15.8053 21.2708 15.8301 21.2974C15.856 21.325 15.8788 21.3548 15.8989 21.3876C15.9189 21.4193 15.9351 21.4542 15.9494 21.489C15.9628 21.5248 15.9733 21.5617 15.981 21.5996C15.9876 21.6375 15.9914 21.6765 15.9914 21.7154C15.9915 21.7532 15.9876 21.7922 15.981 21.8301C15.9733 21.868 15.9628 21.9049 15.9494 21.9408C15.9352 21.9766 15.9189 22.0104 15.8989 22.0422C15.8788 22.0749 15.856 22.1047 15.8301 22.1324C15.8053 22.1589 15.7767 22.1836 15.7471 22.2051C15.7167 22.2265 15.6851 22.245 15.6517 22.2594C15.6184 22.2747 15.5839 22.286 15.5486 22.2932C15.5133 22.3014 15.477 22.3045 15.4418 22.3045Z" fill="#172554"/>
<path fill-rule="evenodd" clip-rule="evenodd" d="M6.56651 3.84425C4.91223 3.84425 3.56638 5.28986 3.56638 7.0653C3.56641 8.84177 4.9122 10.2863 6.56645 10.2863C8.22076 10.2863 9.56655 8.8418 9.56655 7.0653C9.56658 5.2898 8.22069 3.84429 6.56651 3.84425ZM6.56651 11.4665C4.30611 11.4665 2.46704 9.49234 2.46704 7.0653C2.46707 4.63826 4.30605 2.66406 6.56645 2.66406C8.8269 2.66403 10.6658 4.63826 10.6658 7.0653C10.6658 9.49228 8.82687 11.4666 6.56651 11.4665Z" fill="#172554"/>
<path fill-rule="evenodd" clip-rule="evenodd" d="M18.5362 14.3257L21.2064 16.013C22.2435 14.4076 23.8173 13.2428 25.5976 12.7828C27.1299 12.3864 28.4306 11.2994 29.1662 9.80053C30.4688 7.14601 29.6563 3.78363 27.3165 2.14444C26.0472 1.25411 24.5381 0.968285 23.0674 1.33815C21.5956 1.70894 20.3627 2.68229 19.5959 4.08075C18.8395 5.4596 18.6363 7.13168 19.0383 8.66637C19.5278 10.5392 19.3425 12.5697 18.5362 14.3257ZM21.3832 17.4002C21.2883 17.4002 21.1923 17.3736 21.1048 17.3193L17.5224 15.0551C17.2608 14.8892 17.1735 14.5276 17.3275 14.2469C18.2001 12.6558 18.438 10.7379 17.9799 8.98603C17.4974 7.14294 17.741 5.13596 18.6486 3.48142C19.5692 1.80321 21.0494 0.634317 22.8166 0.189681C24.5827 -0.255022 26.3942 0.0882827 27.9174 1.15578C30.7273 3.12484 31.703 7.16347 30.1387 10.3496C29.256 12.1496 27.6947 13.4539 25.8553 13.9303C25.8553 13.9303 25.8552 13.9302 25.8553 13.9303C24.1873 14.3615 22.732 15.5172 21.8626 17.1C21.8605 17.1041 21.858 17.1082 21.8557 17.1123L21.8503 17.1215C21.7464 17.3018 21.567 17.4002 21.3832 17.4002Z" fill="#172554"/>
<path fill-rule="evenodd" clip-rule="evenodd" d="M18.0986 21.8037C18.0038 21.8037 17.9077 21.7782 17.8201 21.7228C17.5586 21.5569 17.4714 21.1952 17.6255 20.9145L20.2643 16.1034C20.4184 15.8227 20.7551 15.7285 21.0169 15.8945C21.2785 16.0594 21.3656 16.4211 21.2115 16.7028L18.5727 21.5138C18.4703 21.7002 18.2869 21.8038 18.0986 21.8037Z" fill="#172554"/>
<path fill-rule="evenodd" clip-rule="evenodd" d="M15.7651 20.4263C15.6701 20.4263 15.5738 20.3997 15.4861 20.3444C15.2248 20.1784 15.1379 19.8168 15.2922 19.5361L17.9747 14.6574C18.1291 14.3766 18.4661 14.2835 18.7274 14.4494C18.9889 14.6144 19.0757 14.9771 18.9215 15.2567L16.239 20.1364C16.1364 20.3228 15.9532 20.4264 15.7651 20.4263Z" fill="#172554"/>
<path fill-rule="evenodd" clip-rule="evenodd" d="M3.73339 47.9982C3.69018 47.9982 3.64644 47.9932 3.60301 47.9809C3.36741 47.9193 3.19736 47.6991 3.18437 47.44L2.91935 42.1217C2.9191 42.1156 2.91888 42.1105 2.9187 42.1054C2.85821 39.5676 3.46044 37.0699 4.66036 34.8816L12.3105 20.9135C12.4643 20.6328 12.8012 20.5396 13.0629 20.7046C13.3246 20.8694 13.412 21.2311 13.2582 21.5118L5.60781 35.4799C4.5136 37.4755 3.96371 39.7531 4.01757 42.0664L4.18478 45.4216L14.9692 25.7584C15.1232 25.4777 15.4603 25.3845 15.7216 25.5495C15.9832 25.7154 16.0705 26.0771 15.9164 26.3578L4.20694 47.7073C4.10657 47.8907 3.92479 47.9983 3.73339 47.9982Z" fill="#172554"/>
<path fill-rule="evenodd" clip-rule="evenodd" d="M24.3171 3.84425C22.6629 3.84425 21.317 5.28986 21.317 7.0653C21.317 8.84177 22.6629 10.2863 24.3171 10.2863C25.9714 10.2863 27.3172 8.8418 27.3172 7.0653C27.3172 5.2898 25.9714 3.84429 24.3171 3.84425ZM24.3171 11.4665C22.0567 11.4665 20.2178 9.49234 20.2178 7.0653C20.2178 4.63826 22.0567 2.66406 24.3171 2.66406C26.5775 2.66403 28.4165 4.63826 28.4165 7.0653C28.4165 9.49228 26.5775 11.4666 24.3171 11.4665Z" fill="#172554"/>
<path fill-rule="evenodd" clip-rule="evenodd" d="M36.9681 1.25282C36.0579 1.50075 35.3827 2.38801 35.3827 3.4412L35.3827 45.9866C35.3827 46.4465 35.7312 46.8206 36.1596 46.8206L36.1912 46.8206C36.6195 46.8206 36.968 46.4466 36.968 45.9867L36.9681 1.25282ZM36.1912 48.0008H36.1596C35.1251 48.0008 34.2834 47.0972 34.2834 45.9867V3.4412C34.2834 1.54581 35.7196 0.00400552 37.485 0.00400552L37.5177 0.00390625C37.8213 0.00390625 38.0674 0.268298 38.0674 0.594118L38.0674 45.9865C38.0674 47.0971 37.2257 48.0008 36.1912 48.0008Z" fill="#172554"/>
<path fill-rule="evenodd" clip-rule="evenodd" d="M47.4504 1.18413H37.5166C37.2131 1.18413 36.967 0.919905 36.967 0.594118C36.967 0.268298 37.2131 0.00400552 37.5166 0.00400552L47.4503 0.00390625C47.7538 0.00390625 48 0.268298 48 0.594118C48 0.919838 47.7538 1.18423 47.4504 1.18413Z" fill="#172554"/>
<path fill-rule="evenodd" clip-rule="evenodd" d="M47.4504 4.79155H37.5166C37.2131 4.79155 36.967 4.52726 36.967 4.20147C36.967 3.87562 37.2131 3.61136 37.5166 3.61136L47.4503 3.61133C47.7538 3.61133 48 3.87572 48 4.20147C48 4.52726 47.7538 4.79159 47.4504 4.79155Z" fill="#172554"/>
<path fill-rule="evenodd" clip-rule="evenodd" d="M47.4504 8.40093H37.5166C37.2131 8.40093 36.967 8.13664 36.967 7.81082C36.967 7.48496 37.2131 7.2207 37.5166 7.2207H47.4503C47.7538 7.2207 48 7.48503 48 7.81082C48 8.13654 47.7538 8.40093 47.4504 8.40093Z" fill="#172554"/>
<path fill-rule="evenodd" clip-rule="evenodd" d="M47.4504 12.0084H37.5166C37.2131 12.0084 36.967 11.7441 36.967 11.4183C36.967 11.0925 37.2131 10.8282 37.5166 10.8282L47.4503 10.8281C47.7538 10.8281 48 11.0925 48 11.4183C48 11.744 47.7538 12.0084 47.4504 12.0084Z" fill="#172554"/>
<path fill-rule="evenodd" clip-rule="evenodd" d="M47.4504 15.6158H37.5166C37.2131 15.6158 36.967 15.3515 36.967 15.0257C36.967 14.6998 37.2131 14.4356 37.5166 14.4356L47.4503 14.4355C47.7538 14.4355 48 14.6999 48 15.0257C48 15.3515 47.7538 15.6158 47.4504 15.6158Z" fill="#172554"/>
<path fill-rule="evenodd" clip-rule="evenodd" d="M47.4504 19.2251H37.5166C37.2131 19.2251 36.967 18.9609 36.967 18.635C36.967 18.3092 37.2131 18.0449 37.5166 18.0449H47.4503C47.7538 18.0449 48 18.3093 48 18.635C48 18.9608 47.7538 19.2251 47.4504 19.2251Z" fill="#172554"/>
<path fill-rule="evenodd" clip-rule="evenodd" d="M47.4504 22.8326H37.5166C37.2131 22.8326 36.967 22.5683 36.967 22.2425C36.967 21.9167 37.2131 21.6524 37.5166 21.6524L47.4503 21.6523C47.7538 21.6523 48 21.9167 48 22.2425C48 22.5683 47.7538 22.8326 47.4504 22.8326Z" fill="#172554"/>
<path fill-rule="evenodd" clip-rule="evenodd" d="M47.4504 26.4419H37.5166C37.2131 26.4419 36.967 26.1777 36.967 25.8519C36.967 25.526 37.2131 25.2618 37.5166 25.2618L47.4503 25.2617C47.7538 25.2617 48 25.5261 48 25.8519C48 26.1776 47.7538 26.442 47.4504 26.4419Z" fill="#172554"/>
</svg>
