<svg width="48" height="48" viewBox="0 0 48 48" fill="none" xmlns="http://www.w3.org/2000/svg">
<path d="M48 14.018C48 6.2886 42.0903 0 34.8266 0C27.8348 0 22.1006 5.82707 21.6805 13.1564H12.9783C10.3684 13.1564 8.24501 15.4159 8.24501 18.1932V19.0635H3.11449C1.39705 19.0635 0 20.5501 0 22.3777V44.6858C0 46.5134 1.39705 48 3.11449 48H32.4957C34.2131 48 35.6101 46.5134 35.6101 44.6858V39.3655H38.1814C39.8645 39.3655 41.2338 37.9084 41.2338 36.118C41.2338 35.4773 41.0561 34.8813 40.7543 34.378C42.2211 34.1426 43.3506 32.7963 43.3506 31.1705C43.3506 30.5113 43.1637 29.8984 42.8455 29.3858C42.8907 25.1474 44.0884 23.5437 45.3574 21.8553C46.6563 20.1263 48 18.3382 48 14.018ZM22.5419 19.0635H12.2122V18.1932C12.2122 17.7514 12.5631 17.378 12.9783 17.378H21.9927C22.1393 18.0135 22.3272 18.5655 22.5419 19.0635ZM9.69982 18.1932C9.69982 16.2694 11.171 14.7039 12.9789 14.7039H21.6669C21.6805 15.1028 21.7083 15.4757 21.7448 15.8299H12.9783C11.754 15.8299 10.7574 16.8898 10.7574 18.1926V19.0629H9.69928L9.69982 18.1932ZM3.11449 20.6116H23.3788C23.6562 21.0366 23.9466 21.4315 24.2354 21.8211C25.4989 23.5269 26.6928 25.1376 26.6928 29.5673H26.7053C26.5173 29.9175 26.3904 30.3083 26.3359 30.724C25.7469 31.0221 25.1143 31.3288 24.449 31.6506C23.1663 32.271 21.8516 32.9082 20.7112 33.557C20.1761 32.4235 19.076 31.6419 17.8053 31.6419C16.502 31.6419 15.3779 32.4635 14.8598 33.6445L1.45427 26.6735V22.3777C1.45427 21.4036 2.19911 20.6116 3.11449 20.6116ZM19.6034 35.1033C19.6034 36.1586 18.797 37.0167 17.8053 37.0167C16.8137 37.0167 16.0067 36.158 16.0067 35.1033C16.0067 34.0481 16.8137 33.19 17.8053 33.19C18.7965 33.19 19.6034 34.0481 19.6034 35.1033ZM34.1553 44.6864C34.1553 45.6605 33.4105 46.4531 32.4951 46.4531H3.11449C2.19911 46.4531 1.45427 45.6605 1.45427 44.6864V28.3961L14.5574 35.2106C14.6113 37.0695 16.0454 38.5648 17.8053 38.5648C19.5942 38.5648 21.0495 37.0202 21.0571 35.1184C22.2232 34.4279 23.6567 33.7338 25.0505 33.0601C25.5578 32.8148 26.0455 32.5783 26.5135 32.3463C26.9042 33.412 27.807 34.2035 28.9 34.3792C28.5982 34.883 28.4206 35.479 28.4206 36.1192C28.4206 37.9096 29.7898 39.3667 31.4724 39.3667H34.1553V44.6864ZM38.1809 37.818H31.4724C30.5919 37.818 29.8748 37.0555 29.8748 36.1186C29.8748 35.1816 30.5913 34.4186 31.4724 34.4186H38.1814C39.0625 34.4186 39.779 35.181 39.779 36.1186C39.779 37.0561 39.0625 37.818 38.1809 37.818ZM40.2982 32.8711H38.1809H31.4724H29.355C28.4745 32.8711 27.758 32.1086 27.758 31.1711C27.758 30.2341 28.4745 29.4717 29.355 29.4717H40.2982C41.1787 29.4717 41.8953 30.2341 41.8953 31.1711C41.8958 32.108 41.1793 32.8711 40.2982 32.8711ZM41.4381 28.1607C41.0856 28.0088 40.7014 27.9236 40.2988 27.9236H29.355C28.9088 27.9236 28.4859 28.0285 28.1034 28.2123C27.8599 24.2255 26.55 22.445 25.378 20.8627C24.1597 19.2189 23.108 17.799 23.108 14.018C23.108 7.14208 28.365 1.54751 34.8266 1.54751C41.2883 1.54751 46.5457 7.1415 46.5457 14.018C46.5457 17.7961 45.4685 19.2293 44.2213 20.8888C43.0324 22.4705 41.7051 24.2476 41.4381 28.1607Z" fill="#172554"/>
</svg>
