<svg width="48" height="48" viewBox="0 0 48 48" fill="none" xmlns="http://www.w3.org/2000/svg">
<path d="M37.6881 37.8458C33.3361 38.4574 25.5763 38.5261 23.9951 38.539C22.4066 38.5325 14.6539 38.4639 10.3022 37.8458C9.86188 37.7836 9.40698 37.8909 9.06397 38.1548C8.72098 38.4124 8.52637 38.7901 8.52637 39.185C8.52637 39.6206 8.7672 40.037 9.17589 40.2902L10.9347 41.389C11.7642 41.9105 12.7372 42.2238 13.737 42.2925C17.617 42.5672 22.1055 42.6252 23.6935 42.6359H23.7056H23.9976H24.2895H24.3016C25.8974 42.6252 30.3807 42.5737 34.2581 42.2925C35.2628 42.2238 36.231 41.9084 37.0605 41.389L38.8192 40.2838C39.2206 40.0327 39.4688 39.6142 39.4688 39.1785C39.4688 38.7772 39.2741 38.406 38.9311 38.1484C38.5882 37.8908 38.1333 37.7814 37.6929 37.8394L37.6881 37.8458ZM38.2597 39.5863L36.501 40.6851C35.8125 41.1143 35.0098 41.3783 34.1851 41.4341C30.0473 41.726 25.2138 41.7668 23.9951 41.7711C22.7764 41.7711 17.9428 41.726 13.8051 41.4341C12.9756 41.3762 12.1777 41.1144 11.4892 40.6851L9.73048 39.5863C9.58209 39.494 9.48965 39.3395 9.48965 39.1807C9.48965 39.0326 9.5602 38.8996 9.68426 38.803C9.81319 38.7064 9.96887 38.6656 10.1392 38.6892C14.3306 39.2794 21.5628 39.376 23.6839 39.3867H23.6961H23.988H24.2799H24.292C26.406 39.3695 33.6457 39.2773 37.8368 38.6892C38.0046 38.6656 38.1676 38.7064 38.2917 38.803C38.4206 38.8996 38.4863 39.0326 38.4863 39.1807C38.4863 39.3417 38.3963 39.4897 38.2455 39.5863H38.2597Z" fill="#172554"/>
<path d="M6.16176 31.0977C4.54648 31.0977 3.23535 32.2544 3.23535 33.6794C3.23535 35.1044 4.54655 36.2612 6.16176 36.2612C7.77698 36.2612 9.08817 35.1044 9.08817 33.6794C9.08817 32.2544 7.77698 31.0977 6.16176 31.0977ZM6.16176 35.4006C5.0841 35.4006 4.20839 34.628 4.20839 33.6773C4.20839 32.7265 5.0841 31.954 6.16176 31.954C7.23943 31.954 8.11513 32.7265 8.11513 33.6773C8.11513 34.628 7.23943 35.4006 6.16176 35.4006Z" fill="#172554"/>
<path d="M4.54672 38.8906C3.70258 38.8906 3.02148 39.498 3.02148 40.2362C3.02148 40.9745 3.70264 41.5818 4.54672 41.5818C5.39079 41.5818 6.07195 40.9745 6.07195 40.2362C6.07195 39.498 5.3835 38.8906 4.54672 38.8906ZM4.54672 40.7212C4.24264 40.7212 3.99451 40.5045 3.99451 40.2341C3.99451 39.9658 4.24021 39.7469 4.54672 39.7469C4.85079 39.7469 5.09892 39.9637 5.09892 40.2341C5.09892 40.5023 4.85322 40.7212 4.54672 40.7212Z" fill="#172554"/>
<path d="M12.6813 37.1849H35.307C35.774 37.1849 36.1949 36.9381 36.3773 36.5561C36.5598 36.172 36.4625 35.7385 36.1316 35.4402L33.8669 33.425C33.4582 33.058 32.8817 32.8477 32.2979 32.8477H15.6855C15.1017 32.8477 14.5251 33.0601 14.1165 33.425L11.8517 35.4402C11.5209 35.7321 11.4236 36.172 11.606 36.5561C11.7885 36.9403 12.2093 37.1849 12.6764 37.1849H12.6813ZM12.5524 36.0454L14.8171 34.0301C15.0434 33.8241 15.3693 33.7104 15.6928 33.7104H32.3052C32.6361 33.7104 32.9548 33.8306 33.1809 34.0301L35.4457 36.0454C35.5235 36.114 35.5041 36.1892 35.4846 36.2235C35.4651 36.2578 35.4189 36.3265 35.3095 36.3265H12.6813C12.5719 36.3265 12.5256 36.2643 12.5062 36.2235C12.4867 36.1827 12.4673 36.114 12.5451 36.0454H12.5524Z" fill="#172554"/>
<path d="M44.7527 33.6794C44.7527 32.2544 43.4415 31.0977 41.8263 31.0977C40.2111 31.0977 38.8999 32.2544 38.8999 33.6794C38.8999 35.1044 40.2111 36.2612 41.8263 36.2612C43.4415 36.2612 44.7527 35.1044 44.7527 33.6794ZM41.8263 35.4027C40.7486 35.4027 39.8729 34.6302 39.8729 33.6794C39.8729 32.7287 40.7486 31.9561 41.8263 31.9561C42.904 31.9561 43.7797 32.7287 43.7797 33.6794C43.7797 34.6302 42.904 35.4027 41.8263 35.4027Z" fill="#172554"/>
<path d="M43.4437 38.8906C42.5996 38.8906 41.9185 39.498 41.9185 40.2362C41.9185 40.9745 42.6069 41.5818 43.4437 41.5818C44.2805 41.5818 44.9689 40.9745 44.9689 40.2362C44.9689 39.498 44.2878 38.8906 43.4437 38.8906ZM43.4437 40.7212C43.1396 40.7212 42.8915 40.5045 42.8915 40.2341C42.8915 39.9658 43.1372 39.7469 43.4437 39.7469C43.7478 39.7469 43.9959 39.9637 43.9959 40.2341C43.9959 40.5023 43.7502 40.7212 43.4437 40.7212Z" fill="#172554"/>
<path d="M46.0174 30.1602L42.1374 27.6814C42.1374 27.6814 42.1179 27.6642 42.1058 27.6578H44.3511C45.5187 27.6578 46.465 26.823 46.465 25.7928C46.465 24.7627 45.5187 23.9279 44.3511 23.9279H44.1297C42.5023 23.9279 41.1133 24.855 40.6 26.1362L37.5714 21.3912C36.9754 20.464 35.8588 19.8867 34.645 19.8867H13.3502C12.1363 19.8867 11.0221 20.464 10.4238 21.3912L7.39515 26.1362C6.88187 24.855 5.49527 23.9279 3.86542 23.9279H3.64405C2.4764 23.9279 1.53014 24.7627 1.53014 25.7928C1.53014 26.823 2.4764 27.6578 3.64405 27.6578H5.88937C5.88937 27.6578 5.8699 27.675 5.85774 27.6814L1.97772 30.1602C0.739512 30.9499 0 32.2311 0 33.5832V44.846C0 46.5866 1.60308 47.9987 3.57351 47.9987C4.53441 47.9987 5.43446 47.666 6.10342 47.0716C6.77723 46.4771 7.14701 45.6873 7.14701 44.846V44.537H40.8457V44.846C40.8457 45.6938 41.2228 46.4835 41.8966 47.0716C42.5704 47.666 43.4656 47.9987 44.4265 47.9987C46.3994 47.9987 48 46.5844 48 44.846V39.2427V39.219V33.581C48 32.2312 47.2605 30.9477 46.0223 30.158L46.0174 30.1602ZM44.1224 24.7798H44.3438C44.9738 24.7798 45.4846 25.2326 45.4846 25.7863C45.4846 26.3422 44.9714 26.7928 44.3438 26.7928H41.393C41.6265 25.649 42.7626 24.7776 44.1248 24.7776L44.1224 24.7798ZM7.4582 27.5333C7.4582 27.5333 7.47036 27.5225 7.47766 27.5097C7.75011 27.235 7.99094 26.9366 8.19768 26.6169L11.2725 21.8032C11.6933 21.1443 12.4912 20.7323 13.3475 20.7323H34.6379C35.5015 20.7323 36.2921 21.1443 36.7129 21.8032L39.7877 26.6169C39.9897 26.9324 40.2353 27.2285 40.5078 27.5097C40.5151 27.5161 40.5199 27.5204 40.5272 27.5333C40.5467 27.5569 40.5661 27.5783 40.5929 27.5955H7.40238C7.40238 27.5955 7.44131 27.5504 7.46807 27.5333H7.4582ZM3.63659 26.795C3.00656 26.795 2.49572 26.3422 2.49572 25.7885C2.49572 25.2326 3.009 24.782 3.63659 24.782H3.85796C5.22022 24.782 6.35623 25.6511 6.58976 26.7972H3.639L3.63659 26.795ZM6.1665 44.8331C6.1665 45.4447 5.89405 46.0242 5.4075 46.4577C4.92098 46.8933 4.26663 47.1337 3.56604 47.1337C2.13322 47.1337 0.96557 46.1036 0.96557 44.8395V42.1032C2.04323 43.5625 3.89684 44.5305 6.01324 44.5305H6.16893V44.8395L6.1665 44.8331ZM47.0218 44.8331C47.0218 46.0972 45.8541 47.1273 44.4213 47.1273C43.728 47.1273 43.0712 46.8869 42.5799 46.4512C42.086 46.022 41.8136 45.4447 41.8136 44.8309V44.5219H41.9693C44.0832 44.5219 45.9393 43.554 47.0169 42.0946V44.8309L47.0218 44.8331ZM47.0218 39.2017V39.2253C47.0096 41.6697 44.7522 43.6549 41.9741 43.6549H6.02047C3.23754 43.6549 0.972794 41.6568 0.972794 39.2017V33.5636C0.972794 32.4885 1.56392 31.469 2.54909 30.8402L6.29771 28.443H41.6971L45.4457 30.8402C46.4309 31.469 47.022 32.4885 47.022 33.5636L47.0218 39.2017Z" fill="#172554"/>
<path d="M3.8415 5.16357H44.145C45.8454 5.16357 47.2271 3.94455 47.2271 2.44446V1.90578C47.2271 0.852018 46.2614 0 45.067 0L2.91946 0.00214664C1.72503 0.00214664 0.759277 0.854165 0.759277 1.90793V2.4466C0.759277 3.94675 2.14103 5.16572 3.84138 5.16572L3.8415 5.16357ZM1.73244 1.90791C1.73244 1.33059 2.26518 0.860628 2.91952 0.860628H45.072C45.7264 0.860628 46.2591 1.33063 46.2591 1.90791V2.44658C46.2591 3.47029 45.3128 4.30725 44.15 4.30725L3.8415 4.30511C2.68113 4.30511 1.73244 3.47029 1.73244 2.44444V1.90576V1.90791Z" fill="#172554"/>
<path d="M5.92812 8.105C5.92812 7.87108 5.70675 7.67578 5.4416 7.67578C5.17645 7.67578 4.95508 7.87108 4.95508 8.105V9.64378C4.95508 9.87771 5.17645 10.073 5.4416 10.073C5.70675 10.073 5.92812 9.87771 5.92812 9.64378V8.105Z" fill="#172554"/>
<path d="M12.1122 8.105C12.1122 7.87108 11.8908 7.67578 11.6257 7.67578C11.3605 7.67578 11.1392 7.87108 11.1392 8.105V9.64378C11.1392 9.87771 11.3605 10.073 11.6257 10.073C11.8908 10.073 12.1122 9.87771 12.1122 9.64378V8.105Z" fill="#172554"/>
<path d="M18.3002 8.105C18.3002 7.87108 18.0788 7.67578 17.8137 7.67578C17.5485 7.67578 17.3271 7.87108 17.3271 8.105V9.64378C17.3271 9.87771 17.5485 10.073 17.8137 10.073C18.0788 10.073 18.3002 9.87771 18.3002 9.64378V8.105Z" fill="#172554"/>
<path d="M24.4818 8.105C24.4818 7.87108 24.2605 7.67578 23.9953 7.67578C23.7302 7.67578 23.5088 7.87108 23.5088 8.105V9.64378C23.5088 9.87771 23.7302 10.073 23.9953 10.073C24.2605 10.073 24.4818 9.87771 24.4818 9.64378V8.105Z" fill="#172554"/>
<path d="M30.663 8.105C30.663 7.87108 30.4416 7.67578 30.1765 7.67578C29.9113 7.67578 29.6899 7.87108 29.6899 8.105V9.64378C29.6899 9.87771 29.9113 10.073 30.1765 10.073C30.4416 10.073 30.663 9.87771 30.663 9.64378V8.105Z" fill="#172554"/>
<path d="M36.8519 8.105C36.8519 7.87108 36.6306 7.67578 36.3654 7.67578C36.1003 7.67578 35.8789 7.87108 35.8789 8.105V9.64378C35.8789 9.87771 36.1003 10.073 36.3654 10.073C36.6306 10.073 36.8519 9.87771 36.8519 9.64378V8.105Z" fill="#172554"/>
<path d="M43.0351 8.105C43.0351 7.87108 42.8137 7.67578 42.5485 7.67578C42.2834 7.67578 42.062 7.87108 42.062 8.105V9.64378C42.062 9.87771 42.2834 10.073 42.5485 10.073C42.8137 10.073 43.0351 9.87771 43.0351 9.64378V8.105Z" fill="#172554"/>
<path d="M5.4416 12.4102C5.17645 12.4102 4.95508 12.6055 4.95508 12.8394V14.3782C4.95508 14.6121 5.17645 14.8074 5.4416 14.8074C5.70675 14.8074 5.92812 14.6121 5.92812 14.3782V12.8394C5.92812 12.6055 5.70675 12.4102 5.4416 12.4102Z" fill="#172554"/>
<path d="M11.6257 12.4102C11.3605 12.4102 11.1392 12.6055 11.1392 12.8394V14.3782C11.1392 14.6121 11.3605 14.8074 11.6257 14.8074C11.8908 14.8074 12.1122 14.6121 12.1122 14.3782V12.8394C12.1122 12.6055 11.8908 12.4102 11.6257 12.4102Z" fill="#172554"/>
<path d="M17.8137 12.4102C17.5485 12.4102 17.3271 12.6055 17.3271 12.8394V14.3782C17.3271 14.6121 17.5485 14.8074 17.8137 14.8074C18.0788 14.8074 18.3002 14.6121 18.3002 14.3782V12.8394C18.3002 12.6055 18.0788 12.4102 17.8137 12.4102Z" fill="#172554"/>
<path d="M23.9953 12.4102C23.7302 12.4102 23.5088 12.6055 23.5088 12.8394V14.3782C23.5088 14.6121 23.7302 14.8074 23.9953 14.8074C24.2605 14.8074 24.4818 14.6121 24.4818 14.3782V12.8394C24.4818 12.6055 24.2605 12.4102 23.9953 12.4102Z" fill="#172554"/>
<path d="M30.1765 12.4102C29.9113 12.4102 29.6899 12.6055 29.6899 12.8394V14.3782C29.6899 14.6121 29.9113 14.8074 30.1765 14.8074C30.4416 14.8074 30.663 14.6121 30.663 14.3782V12.8394C30.663 12.6055 30.4416 12.4102 30.1765 12.4102Z" fill="#172554"/>
<path d="M36.3649 12.4102C36.0998 12.4102 35.8784 12.6055 35.8784 12.8394V14.3782C35.8784 14.6121 36.0998 14.8074 36.3649 14.8074C36.6301 14.8074 36.8515 14.6121 36.8515 14.3782V12.8394C36.8515 12.6055 36.6301 12.4102 36.3649 12.4102Z" fill="#172554"/>
<path d="M42.5485 12.4102C42.2834 12.4102 42.062 12.6055 42.062 12.8394V14.3782C42.062 14.6121 42.2834 14.8074 42.5485 14.8074C42.8137 14.8074 43.0351 14.6121 43.0351 14.3782V12.8394C43.0351 12.6055 42.8137 12.4102 42.5485 12.4102Z" fill="#172554"/>
<path d="M8.0498 10.0816V11.6203C8.0498 11.8543 8.27117 12.0496 8.53633 12.0496C8.80148 12.0496 9.02285 11.8543 9.02285 11.6203V10.0816C9.02285 9.84764 8.80148 9.65234 8.53633 9.65234C8.27117 9.65234 8.0498 9.84764 8.0498 10.0816Z" fill="#172554"/>
<path d="M14.2329 10.0816V11.6203C14.2329 11.8543 14.4543 12.0496 14.7194 12.0496C14.9846 12.0496 15.206 11.8543 15.206 11.6203V10.0816C15.206 9.84764 14.9846 9.65234 14.7194 9.65234C14.4543 9.65234 14.2329 9.84764 14.2329 10.0816Z" fill="#172554"/>
<path d="M20.4146 10.0816V11.6203C20.4146 11.8543 20.6359 12.0496 20.9011 12.0496C21.1662 12.0496 21.3876 11.8543 21.3876 11.6203V10.0816C21.3876 9.84764 21.1662 9.65234 20.9011 9.65234C20.6359 9.65234 20.4146 9.84764 20.4146 10.0816Z" fill="#172554"/>
<path d="M26.6035 10.0816V11.6203C26.6035 11.8543 26.8249 12.0496 27.09 12.0496C27.3552 12.0496 27.5766 11.8543 27.5766 11.6203V10.0816C27.5766 9.84764 27.3552 9.65234 27.09 9.65234C26.8249 9.65234 26.6035 9.84764 26.6035 10.0816Z" fill="#172554"/>
<path d="M32.7842 10.0816V11.6203C32.7842 11.8543 33.0055 12.0496 33.2707 12.0496C33.5359 12.0496 33.7572 11.8543 33.7572 11.6203V10.0816C33.7572 9.84764 33.5359 9.65234 33.2707 9.65234C33.0055 9.65234 32.7842 9.84764 32.7842 10.0816Z" fill="#172554"/>
<path d="M38.9678 10.0816V11.6203C38.9678 11.8543 39.1891 12.0496 39.4543 12.0496C39.7194 12.0496 39.9408 11.8543 39.9408 11.6203V10.0816C39.9408 9.84764 39.7194 9.65234 39.4543 9.65234C39.1891 9.65234 38.9678 9.84764 38.9678 10.0816Z" fill="#172554"/>
</svg>
