<svg width="48" height="48" viewBox="0 0 48 48" fill="none" xmlns="http://www.w3.org/2000/svg">
<path d="M15.0602 26.5329C15.0115 26.4838 14.8653 26.4838 14.8166 26.5329C13.2082 28.2032 10.3814 29.9225 6.23867 31.691C6.14119 31.7402 6.09245 31.8384 6.14119 31.8875C6.14119 31.9367 6.23867 31.9858 6.2874 31.9858C6.33614 32.0349 6.38488 32.0349 6.38488 32.0349C10.5764 30.2173 13.4032 28.4979 15.0602 26.7786C15.109 26.7294 15.109 26.6312 15.0602 26.5329Z" fill="#172554"/>
<path d="M8.2365 32.6717C8.28523 32.7209 8.33397 32.77 8.38271 32.77C8.43145 32.7209 8.48019 32.7209 8.48019 32.7209C13.2078 30.3138 16.0833 28.5944 17.8866 27.0715C17.9354 27.0224 17.9354 26.9242 17.8866 26.8259C17.8379 26.7768 17.7404 26.7768 17.6429 26.8259C15.8884 28.3488 13.0128 30.0681 8.28523 32.4752C8.2365 32.5244 8.18776 32.6226 8.2365 32.6717Z" fill="#172554"/>
<path d="M38.8929 28.7927C37.5283 28.9401 36.7484 30.2665 35.9199 31.5437C35.3838 32.428 35.1401 33.1648 34.8964 33.9017C34.5552 34.8842 34.0191 36.5544 34.1653 38.6668C34.2628 39.8949 34.5065 40.6318 34.7014 41.123C35.0426 41.8108 35.5787 43.0389 36.6022 43.088C36.651 43.088 36.651 43.088 36.6997 43.088C37.4795 43.088 38.0644 42.4003 38.2593 42.1546C38.698 41.5651 39.0879 40.3862 39.0879 40.337C39.2828 39.7967 40.1114 37.8317 41.4273 35.5719C42.597 33.5087 42.6945 33.1157 42.7432 32.7227V32.6245C42.8894 31.7893 42.597 30.9051 41.9147 30.1191C41.0861 29.2348 39.8677 28.6945 38.8929 28.7927ZM41.8172 32.4771V32.5753C41.7685 32.8701 41.7197 33.2139 40.5988 35.1298C39.3316 37.2422 38.4055 39.3545 38.1619 40.0914C38.0156 40.4844 37.7232 41.2704 37.4795 41.6143C37.3333 41.8108 36.9921 42.1546 36.6997 42.1546C36.2611 42.1055 35.8712 41.2213 35.6275 40.73C35.4813 40.337 35.2376 39.7475 35.1401 38.6668C34.9939 36.7018 35.53 35.1789 35.8224 34.2456C36.0661 33.5578 36.2611 32.8701 36.7484 32.0841C37.382 31.0033 38.0644 29.9226 38.9904 29.8243C39.0391 29.8243 39.0879 29.8243 39.1853 29.8243C39.8677 29.8243 40.6475 30.2173 41.2323 30.856C41.7197 31.3472 41.9634 31.9367 41.8172 32.4771Z" fill="#172554"/>
<path d="M47.3246 30.7081C45.4238 29.087 43.5718 27.7115 41.7685 26.5816L47.5683 23.0447C47.7145 22.9464 47.812 22.799 47.812 22.6517V16.9532C47.812 16.8058 47.7145 16.6584 47.5683 16.5602L36.456 9.83011C36.3098 9.73186 36.1149 9.73186 36.0174 9.83011L26.0748 15.3321C26.0261 15.3812 25.9774 15.4303 25.9286 15.4795L8.52915 0.692917C7.55439 -0.142203 6.14099 -0.240452 5.06875 0.496418L0.73107 3.39478C0.633594 3.4439 0.584856 3.49302 0.584856 3.59127C0.584856 3.93515 0.584856 4.86852 0.584856 5.01589V5.21239L2.047 5.45801L1.99826 6.93175L3.4604 7.17738L3.36292 8.70024L4.82506 8.94587L4.77633 10.4196L6.23847 10.7144L6.18973 12.1881L7.60313 12.4337L7.55439 13.9075L9.01653 14.2022L8.9678 15.6759L10.4299 15.9216L10.3325 17.4444L11.7946 17.6901L11.7459 19.1638L13.208 19.4094L13.1105 20.9323L14.5727 21.1779V21.8165L0.24369 29.7256C0.097476 29.8239 0 29.9712 0 30.1186V36.1118C0 36.2592 0.097476 36.4557 0.24369 36.5048L12.0383 43.3823C12.087 43.4314 12.1845 43.4314 12.282 43.4314C12.3795 43.4314 12.4282 43.4314 12.5257 43.3823L25.7337 35.6697L25.6849 36.6522L27.1471 36.9469L27.0983 38.4207L28.5605 38.6663L28.5117 39.9435H29.0966V39.8453C29.0966 39.8453 29.0966 39.8453 29.1453 39.8453L30.1201 38.8628C30.2663 38.7154 30.5587 38.8137 30.5587 39.0102L30.705 40.8278C30.705 40.8769 30.705 40.8769 30.7537 40.926C30.7537 40.926 30.7537 40.9752 30.7537 41.0243C30.8024 41.0734 30.8024 41.1225 30.8512 41.1717L38.0644 47.607C38.4056 47.9017 38.7467 48 39.0392 48C39.2828 48 39.4778 47.9017 39.624 47.8526C40.6475 47.3123 41.0374 45.4455 40.8912 43.8244C40.8912 43.7753 40.8912 43.7261 40.9399 43.677C43.2306 40.533 44.8877 37.3891 45.8625 34.2451C45.8625 34.196 45.9112 34.1468 46.0087 34.0977C46.9347 33.6065 47.8607 33.0661 47.9582 32.231C48.1044 31.7397 47.8607 31.1994 47.3246 30.7081ZM39.7215 24.0763C39.6727 24.0271 39.5753 23.978 39.5265 24.0271C39.1366 24.2236 38.7955 24.4693 38.4056 24.6658C38.0644 24.5184 37.772 24.371 37.4308 24.2236C38.6005 23.5359 39.819 22.8482 40.9887 22.1113C40.9887 22.1113 41.0374 22.013 40.9887 21.9148C40.9399 21.8657 40.8425 21.8165 40.7937 21.8657C39.5753 22.6025 38.3081 23.3394 37.0896 24.0763C36.651 23.9289 36.2611 23.7324 35.8712 23.585L46.9347 17.3462V18.1813C45.7163 18.9673 44.3029 19.8024 42.6945 20.7849C42.6458 20.834 42.597 20.9323 42.6458 20.9814C42.6945 21.0305 42.7432 21.0305 42.792 21.0305C42.8407 21.0305 42.8407 21.0305 42.8895 21.0305C44.4491 20.0972 45.7163 19.3112 46.886 18.5743V19.5568C45.2776 20.5393 43.6205 21.62 41.4273 22.8973C41.3786 22.9464 41.3298 23.0447 41.3786 23.0938C41.4273 23.1429 41.4761 23.1429 41.5248 23.1429C41.5735 23.1429 41.5735 23.1429 41.6223 23.1429C43.6693 21.8657 45.3751 20.834 46.886 19.9007V20.9323C44.5465 22.406 42.0609 23.8798 39.6727 25.2553C39.3316 25.0588 39.0392 24.9114 38.698 24.764C39.0392 24.5675 39.3316 24.371 39.6727 24.1745C39.7702 24.2728 39.819 24.1745 39.7215 24.0763ZM38.9417 19.2621C36.4073 19.2129 34.2628 19.6059 31.9721 20.5884L30.8999 19.7042C31.2898 19.2129 31.3385 18.6234 31.436 17.9848C31.631 16.3637 31.8747 14.2513 37.2358 11.4512L38.3081 12.0898C34.5553 14.3496 32.8982 16.3146 33.5318 17.5427C33.9217 18.2796 35.0426 18.6726 36.6023 18.6726C38.8929 18.6726 42.1584 17.8866 45.5213 16.4128L46.7398 17.1497L35.4813 23.5359C35.4325 23.5359 35.4325 23.4868 35.3838 23.4868L32.3133 20.8832C34.7015 19.9007 36.7485 19.7042 38.9417 19.6059C38.9904 19.6059 39.0879 19.5568 39.0879 19.4586C39.0879 19.3603 39.0392 19.2621 38.9417 19.2621ZM28.5117 16.2654C28.4143 16.2654 28.3655 16.3146 28.3655 16.4128C28.3655 16.7567 28.3168 17.1006 28.2193 17.3953L26.6597 16.0689L36.2124 10.7635L36.8947 11.1565C31.5335 13.9566 31.2898 16.1672 31.0949 17.8374C31.0461 18.4761 30.9486 18.9673 30.6075 19.4586L28.5117 17.6409C28.658 17.1988 28.7067 16.8058 28.7067 16.3637C28.658 16.3146 28.6092 16.2654 28.5117 16.2654ZM39.2341 12.5811C38.3568 13.1215 37.6745 13.6127 37.0896 14.104C37.0409 14.1531 37.0409 14.2513 37.0896 14.3496C37.1384 14.3987 37.1871 14.3987 37.2358 14.3987C37.2846 14.3987 37.2846 14.3987 37.3333 14.3496C37.8694 13.8583 38.6005 13.318 39.5265 12.7776L40.6475 13.4653C39.2828 14.3496 39.1366 14.89 39.2828 15.1847C39.4291 15.4303 39.819 15.5777 40.3063 15.5777C41.0374 15.5777 42.0122 15.3321 43.0357 14.89L43.9617 15.4303C40.1601 17.0514 36.8947 17.1988 36.2611 16.3146C35.9199 15.8724 36.4073 15.1847 36.8459 14.7426C36.8947 14.6935 36.8947 14.5461 36.8459 14.497C36.7972 14.4478 36.651 14.4478 36.6023 14.497C35.6275 15.4795 35.725 16.1181 35.9687 16.4619C36.3098 16.9041 37.0896 17.1497 38.1131 17.1497C39.6727 17.1497 41.9634 16.6093 44.2541 15.6268L45.0827 16.1181C42.597 17.1988 39.9652 17.9848 37.772 18.1813C35.6762 18.3778 34.2141 18.0339 33.8729 17.2971C33.3368 16.2163 35.1401 14.3005 38.6005 12.1881L39.2341 12.5811ZM42.6945 14.6935C41.0374 15.3321 39.819 15.3321 39.624 14.9882C39.5265 14.8408 39.7702 14.3987 40.9399 13.6127L42.6945 14.6935ZM46.9347 21.3744V22.3569L40.9399 25.9921C40.6475 25.8448 40.3551 25.6483 40.1114 25.5009C42.3533 24.1745 44.644 22.799 46.9347 21.3744ZM16.2298 24.4693C16.0835 24.8131 15.9373 25.157 15.6936 25.55C15.6449 25.6483 15.6449 25.7465 15.7424 25.7956C15.7424 25.7956 15.7911 25.8448 15.8399 25.8448C15.8886 25.8448 15.9373 25.8448 15.9861 25.7465C16.2785 25.3535 16.4735 24.9605 16.6197 24.5184L17.3507 24.6658L17.302 26.1395L18.7641 26.4343L18.7154 27.908C16.2785 29.1361 13.6466 31.052 10.235 33.7538C10.1862 33.803 10.1375 33.9012 10.1862 33.9995C10.235 34.0486 10.235 34.0486 10.3325 34.0486C10.3812 34.0486 10.3812 34.0486 10.4299 33.9995C14.1828 31.052 16.9121 29.1852 19.2515 28.0062L20.1775 28.1536L20.0801 29.6765H20.2263C19.8364 29.9221 19.4465 30.1186 19.0566 30.266C18.9591 30.3151 18.9104 30.4134 18.9104 30.4625C18.9104 30.5116 19.0078 30.6099 19.0566 30.6099H19.1053C19.6414 30.4625 20.1775 30.1677 20.6649 29.7747L21.5422 29.9221L21.4935 31.3959L12.3307 36.5539L1.16971 30.266L14.8651 22.7008L16.0348 22.8973L15.9861 24.4201L16.2298 24.4693ZM12.1845 37.7329C10.7224 37.1434 9.84508 36.0627 9.50391 35.3258L12.1845 36.7996V37.7329ZM12.1845 38.0768V39.1576C10.3812 38.4207 8.13925 36.3574 7.50565 34.196L9.06527 35.0802C9.26022 35.8662 10.2837 37.3891 12.1845 38.0768ZM12.1358 39.4523V40.533C11.2097 40.1892 9.69887 39.3541 8.3342 38.0768C7.16449 37.0452 5.79982 35.3258 5.5074 33.0661L7.06701 33.9503C7.60313 36.3083 10.1375 38.7154 12.1358 39.4523ZM12.1845 40.926V42.3998L7.9443 39.9435C6.09225 38.1751 4.14273 36.1118 3.80157 32.0836L5.21497 32.8696C5.60487 37.4873 10.3812 40.2383 12.1845 40.926ZM6.62837 39.1576L4.4839 37.9294C2.97302 35.5223 2.19321 33.4591 2.047 31.1502L3.41166 31.9362C3.70409 35.4732 5.11749 37.5364 6.62837 39.1576ZM3.80157 37.4873L2.09573 36.5048C1.60835 35.7679 1.16971 34.589 0.926022 33.5573V30.5116L1.60835 30.9537C1.80331 33.2135 2.4369 35.2276 3.80157 37.4873ZM0.97476 35.8662V34.7855C1.16971 35.3258 1.36466 35.8171 1.60835 36.2592L0.97476 35.8662ZM12.5257 42.3015V40.926C16.0835 39.1084 19.9339 36.8978 24.3203 34.3433L24.2715 34.9328L24.9539 35.0311L12.5257 42.3015ZM24.3203 33.9503C19.9339 36.4557 16.0835 38.7154 12.4769 40.533V39.4523C15.5962 37.8803 19.5439 35.6697 23.7354 33.3117L24.369 33.41L24.3203 33.9503ZM12.5257 39.1084V38.0768C15.5474 36.5048 19.154 34.589 22.9556 32.4275L22.9069 33.1643L23.248 33.2135C19.3003 35.5223 15.4987 37.5364 12.5257 39.1084ZM22.9556 32.0836C19.2028 34.2451 15.6449 36.1609 12.5744 37.7329V36.7996L21.9808 31.4941L22.9556 31.6906V32.0836ZM30.0226 29.5291C29.9251 29.6274 29.9251 29.7256 29.9251 29.873L30.51 37.4873C30.51 37.5856 30.51 37.6347 30.4125 37.6838L29.1941 38.9119L29.2428 38.1751L27.7807 37.9294L27.8294 36.4557L26.3673 36.1609L26.416 34.6872L24.9539 34.4416L25.0513 32.9187L23.5892 32.6731L23.6379 31.1994L22.1758 30.9046L22.2245 29.4309L20.7624 29.1852L20.8599 27.6624L19.3977 27.4168L19.4465 25.943L17.9843 25.6483L18.0331 24.1745L16.6197 23.9289L16.6684 22.406L15.2063 22.1604V22.1113L15.255 20.6867L13.7929 20.441L13.8903 18.9182L12.4282 18.6726L12.4769 17.1988L11.0148 16.9532L11.1123 15.4303L9.65013 15.1847L9.69887 13.711L8.23673 13.4162L8.28546 11.9425L6.87206 11.6968L6.9208 10.2231L5.45866 9.92836L5.5074 8.45462L4.04526 8.209L4.14273 6.68613L2.68059 6.44051L2.72933 4.96677L1.26719 4.72114V4.13165L5.55613 1.28241C6.2872 0.791166 7.21323 0.889416 7.84682 1.42979L34.2141 23.7324C34.3116 23.8306 34.3603 23.978 34.2628 24.0763L30.0226 29.5291ZM33.9704 42.5472L31.8259 40.6313C31.7772 40.5822 31.7285 40.533 31.7285 40.4348L30.9486 30.1186C30.9486 30.0695 30.9486 29.9712 30.9974 29.9221L35.1888 24.5675C35.2376 24.4693 35.3838 24.4201 35.4813 24.4693C38.1619 25.4026 40.9887 26.9746 43.913 29.1852C41.1836 27.6624 38.8442 26.3851 37.8694 26.3851C37.5283 26.3851 37.1871 26.4834 36.8947 26.7781C36.5048 27.1711 36.2611 27.7606 36.2611 28.2519C36.2611 28.301 36.2123 28.3992 36.1636 28.3992L33.8242 30.6099C33.7754 30.659 33.7754 30.7081 33.7267 30.7572L32.362 39.7962C32.362 39.8453 32.362 39.8944 32.4108 39.9927L34.0191 42.3507L33.9704 42.5472ZM45.3751 33.41C45.2776 33.4591 45.2289 33.5082 45.1801 33.6065C45.1801 33.6556 45.1314 33.6556 45.1314 33.7047C44.1566 36.8978 42.4508 40.14 40.0627 43.3823C39.9652 43.4805 39.9652 43.6279 39.9652 43.7753C40.1601 45.4946 39.6727 46.8701 39.2341 47.0666C39.1854 47.0666 39.0879 47.1649 38.7955 46.9193L34.3603 42.9402L34.5553 42.4489V42.3998V42.3507V42.3015V42.2524L32.9956 39.9435C32.8982 39.8453 32.8982 39.747 32.8982 39.6979L34.2141 31.0029C34.2141 30.9537 34.2628 30.9046 34.3116 30.8555L36.6997 28.6449C36.7485 28.5957 36.7972 28.5466 36.7972 28.4484C36.7972 28.1045 36.9922 27.515 37.3333 27.1711C37.5283 26.9746 37.7232 26.8764 37.9182 26.9255C38.9904 26.9255 42.6458 29.0379 45.8625 30.9537L46.5448 31.3467C46.5935 31.3959 46.6423 31.3958 46.6423 31.445C46.8372 31.6415 47.0809 31.9362 47.0809 32.1818C47.0322 32.5748 46.0087 33.0661 45.3751 33.41Z" fill="#172554"/>
<path d="M35.4323 27.4653C35.8222 27.4653 36.1147 27.1706 36.1147 26.7776C36.1147 26.3846 35.7735 26.0898 35.4323 26.0898C35.0424 26.0898 34.75 26.3846 34.75 26.7776C34.75 27.1706 35.0424 27.4653 35.4323 27.4653ZM35.4323 26.4828C35.5785 26.4828 35.7248 26.6302 35.7248 26.7776C35.7248 26.925 35.5785 27.0723 35.4323 27.0723C35.2861 27.0723 35.1399 26.925 35.1399 26.7776C35.1399 26.6302 35.2861 26.4828 35.4323 26.4828Z" fill="#172554"/>
<path d="M33.0444 30.5588C33.0444 30.1658 32.7519 29.8711 32.362 29.8711C31.9721 29.8711 31.6797 30.1658 31.6797 30.5588C31.6797 30.9518 31.9721 31.2466 32.362 31.2466C32.7519 31.2466 33.0444 30.9518 33.0444 30.5588ZM32.0696 30.5588C32.0696 30.4115 32.2158 30.2641 32.362 30.2641C32.5082 30.2641 32.6544 30.4115 32.6544 30.5588C32.6544 30.7062 32.5082 30.8536 32.362 30.8536C32.2158 30.8536 32.0696 30.7062 32.0696 30.5588Z" fill="#172554"/>
<path d="M8.38291 3.88488C7.993 3.54101 7.45689 3.54101 7.06698 3.93401C6.72582 4.32701 6.72582 4.86738 7.11572 5.26038L7.70058 5.80075C7.89553 5.94812 8.09048 6.04637 8.33417 6.04637C8.33417 6.04637 8.33417 6.04637 8.38291 6.04637C8.6266 6.04637 8.87029 5.94812 9.0165 5.75162C9.35767 5.35862 9.35767 4.81825 8.96776 4.42526L8.38291 3.88488ZM8.67534 5.40775C8.57786 5.506 8.48038 5.55512 8.38291 5.55512C8.28543 5.55512 8.13922 5.506 8.09048 5.45687L7.50562 4.9165C7.31067 4.76913 7.31067 4.47438 7.45689 4.32701C7.55436 4.22876 7.65184 4.17963 7.74931 4.17963C7.84679 4.17963 7.94427 4.22876 8.04174 4.27788L8.6266 4.81825C8.82155 4.96563 8.82155 5.21125 8.67534 5.40775Z" fill="#172554"/>
<path d="M12.3794 37.0464C12.3306 37.0464 12.2819 37.0464 12.2819 36.9972L0.53603 30.4145C0.438554 30.3654 0.389816 30.218 0.438554 30.0706C0.487292 29.9724 0.633506 29.9233 0.77972 29.9724L12.5256 36.5551C12.6231 36.6042 12.6718 36.7516 12.6231 36.899C12.5743 36.9972 12.4768 37.0464 12.3794 37.0464Z" fill="#172554"/>
<path d="M12.3306 43.0391C12.1844 43.0391 12.0869 42.9409 12.0869 42.7935L12.1357 36.8003C12.1357 36.6529 12.2331 36.5547 12.3793 36.5547C12.5256 36.5547 12.623 36.6529 12.623 36.8003L12.5743 42.7935C12.5743 42.8918 12.4768 43.0391 12.3306 43.0391Z" fill="#172554"/>
<path d="M12.3796 37.046C12.2821 37.046 12.2334 36.9969 12.1846 36.8986C12.1359 36.8004 12.1846 36.653 12.2821 36.5547L22.0785 31.0036C22.1759 30.9545 22.3222 31.0036 22.4196 31.1019C22.4684 31.2001 22.4196 31.3475 22.3222 31.4458L12.5258 36.9969C12.4771 37.046 12.4283 37.046 12.3796 37.046Z" fill="#172554"/>
<path d="M35.1399 24.0755C35.0424 24.0755 34.9936 24.0264 34.9449 23.9281C34.8962 23.8299 34.9449 23.6825 35.0424 23.5842L47.1781 16.7068C47.2756 16.6576 47.4218 16.7068 47.5193 16.805C47.5681 16.9033 47.5193 17.0506 47.4218 17.1489L35.2861 24.0264C35.2373 24.0755 35.1886 24.0755 35.1399 24.0755Z" fill="#172554"/>
</svg>
