<svg width="48" height="48" viewBox="0 0 48 48" fill="none" xmlns="http://www.w3.org/2000/svg">
<path d="M29.7973 11.5231C33.285 12.8536 36.1679 15.3782 37.9116 18.6295C38.0072 18.8065 38.1922 18.9082 38.3834 18.9082C38.4665 18.9082 38.5517 18.8899 38.6307 18.8492C38.8905 18.7149 38.9903 18.4016 38.8552 18.1453C36.9908 14.6725 33.9105 11.9748 30.1838 10.553C29.9095 10.4492 29.6019 10.5814 29.4938 10.8479C29.3899 11.1185 29.525 11.4193 29.7973 11.5231Z" fill="#172554"/>
<path d="M47.4678 23.2535H45.3644C44.1922 13.118 35.9157 5.40957 25.6273 4.6669C26.2218 3.8735 26.5626 2.77491 26.5626 2.05677C26.5626 0.787304 25.5795 0 23.9999 0C22.4182 0 21.4372 0.789335 21.4372 2.05677C21.4372 2.77491 21.7781 3.8735 22.3725 4.6669C12.0842 5.40946 3.80976 13.118 2.63545 23.2535H0.532082C0.239022 23.2535 0 23.4874 0 23.7743V25.6602C0 26.9886 1.10364 28.0669 2.4588 28.0669H9.59402C8.90604 29.0474 9.06817 30.3515 9.07441 30.4105C9.10143 30.6078 9.24069 30.7746 9.43191 30.8377C11.2381 31.4317 12.0736 32.1397 11.9905 33.0003C11.7037 35.9339 11.7037 35.9339 9.36747 37.0345C9.35292 37.0406 9.33629 37.0487 9.32175 37.0548V35.2137C9.32175 34.9288 9.08688 34.6949 8.7959 34.6929L2.28003 34.6298C2.13246 34.6339 2.00151 34.6827 1.89967 34.7803C1.79991 34.878 1.74171 35.0102 1.74171 35.1506V47.4161C1.74171 47.7009 1.97657 47.9349 2.26755 47.9369L8.78343 48H8.78966C8.92892 48 9.06402 47.9451 9.16378 47.8495C9.26355 47.7518 9.32174 47.6196 9.32174 47.4792L9.3259 45.4855C17.2864 45.4163 24.031 43.8295 25.8311 41.5754C26.1782 41.14 26.6521 40.4524 27.2028 39.6549C28.5122 37.7568 30.3039 35.1568 31.8856 33.7797C34.0118 31.9243 35.554 31.845 37.3394 31.7555C37.5348 31.7453 37.7322 31.7351 37.9339 31.7229C39.3327 31.6375 40.0518 30.4555 40.0165 29.3874C40.0019 28.9337 39.8461 28.4658 39.5468 28.0691H45.5412C46.8984 28.0691 48 26.9889 48 25.6624V23.7765C48 23.4877 47.7629 23.2535 47.4678 23.2535ZM22.5014 2.05922C22.5014 1.38582 23.0065 1.04406 24 1.04406C24.9935 1.04406 25.4985 1.38584 25.4985 2.05922C25.4985 3.04182 24.6796 4.60425 24 4.60425C23.3203 4.60425 22.5014 3.03979 22.5014 2.05922ZM8.25972 46.9564L2.80801 46.9035V35.6796L8.25972 35.7325V46.9564ZM38.9502 29.4198C38.9689 30.0138 38.6031 30.6384 37.8652 30.6832C37.6699 30.6954 37.4745 30.7056 37.2832 30.7157C35.3794 30.8113 33.5815 30.9029 31.1765 33.0024C29.4972 34.4692 27.6619 37.1302 26.3213 39.0729C25.783 39.8541 25.3174 40.5275 24.9932 40.9344C23.4302 42.8915 16.7501 44.3766 9.32601 44.4437L9.32393 38.2164C9.50268 38.131 9.67311 38.0517 9.83107 37.9764C12.5995 36.6703 12.7201 36.4872 13.0506 33.1019C13.2335 31.2303 11.18 30.3413 10.1179 29.969C10.12 29.5926 10.1886 28.9559 10.5731 28.5327C10.8537 28.2214 11.2652 28.0709 11.8326 28.0709C15.5115 28.0709 16.2493 30.1602 16.9622 32.1804C17.1264 32.6462 17.2823 33.0857 17.4714 33.4885C17.9038 34.4121 18.5668 34.9878 19.4418 35.1953C20.8842 35.5391 22.7528 34.8434 24.9973 33.1304C29.2082 29.914 33.6542 28.0688 37.1915 28.0688C38.4573 28.0688 38.9294 28.7667 38.9502 29.4198ZM15.6051 28.0689H31.8857C29.4249 28.962 26.8372 30.4044 24.343 32.3086C22.4225 33.7754 20.7722 34.4407 19.6935 34.1823C19.1448 34.0521 18.7332 33.6819 18.4381 33.0532C18.2697 32.6952 18.1242 32.2801 17.9683 31.8387C17.5277 30.5916 16.9831 29.0638 15.6051 28.0689ZM46.9357 25.6622C46.9357 26.415 46.3101 27.0273 45.541 27.0273H2.45891C1.68989 27.0273 1.06427 26.415 1.06427 25.6622V24.2972L14.146 24.2951C14.4391 24.2951 14.6781 24.0612 14.6781 23.7743C14.6781 23.4875 14.4391 23.2535 14.146 23.2535H3.70606C4.93235 13.1769 13.5538 5.64554 24.0002 5.64554C34.4466 5.64554 43.0679 13.1769 44.2943 23.2551L18.6836 23.253C18.3906 23.253 18.1515 23.487 18.1515 23.7738C18.1515 24.0607 18.3906 24.2946 18.6836 24.2946H46.9361L46.9357 25.6622Z" fill="#172554"/>
</svg>
