<svg width="48" height="48" viewBox="0 0 48 48" fill="none" xmlns="http://www.w3.org/2000/svg">
<path fill-rule="evenodd" clip-rule="evenodd" d="M4.59232 47.9999C4.02899 47.9999 3.48039 47.5573 3.08851 46.7838C2.69663 46.0149 2.49579 45.013 2.51294 43.9506L2.8093 20.2607C2.05495 19.6363 1.38631 18.6251 0.896429 17.3484C0.308612 15.8293 0 14.04 0 12.176V0.931957C0 0.419378 0.22043 0 0.489848 0C0.759266 0 0.979696 0.419378 0.979696 0.931957V12.176C0.979696 15.1024 2.00347 17.8051 3.4632 18.751C3.66649 18.8815 3.79875 19.2449 3.7963 19.655L3.49014 44.0022V44.0115C3.48035 44.5614 3.58811 45.0832 3.79385 45.484C4.00204 45.8987 4.29595 46.1317 4.59228 46.1317C4.90089 46.1317 5.20459 45.8848 5.42256 45.4561C5.62829 45.0553 5.73606 44.5427 5.72627 44.0116V44.0069L5.39072 19.6597C5.38582 19.2496 5.52298 18.8815 5.72382 18.7511C7.22763 17.7958 8.23673 15.1491 8.23673 12.1761V0.932023C8.23673 0.419444 8.45716 6.59833e-05 8.72658 6.59833e-05C8.99599 6.59833e-05 9.21642 0.419444 9.21642 0.932023V12.1761C9.21642 14.0447 8.90292 15.834 8.3151 17.3531C7.81301 18.6531 7.14436 19.6504 6.37778 20.2701L6.70598 43.9517C6.72558 44.9908 6.51984 45.9833 6.13041 46.7522C5.72629 47.5397 5.16539 47.9918 4.59231 47.9918L4.59232 47.9999Z" fill="#172554"/>
<path fill-rule="evenodd" clip-rule="evenodd" d="M3.24485 15.8471C2.97543 15.8471 2.755 15.4277 2.755 14.9151V1.57844C2.755 1.06586 2.97543 0.646484 3.24485 0.646484C3.51427 0.646484 3.7347 1.06586 3.7347 1.57844V14.9199C3.7347 15.4325 3.51427 15.8519 3.24485 15.8519V15.8471Z" fill="#172554"/>
<path fill-rule="evenodd" clip-rule="evenodd" d="M5.96861 15.8471C5.69919 15.8471 5.47876 15.4277 5.47876 14.9151V1.57844C5.47876 1.06586 5.69919 0.646484 5.96861 0.646484C6.23803 0.646484 6.45846 1.06586 6.45846 1.57844V14.9199C6.45846 15.4325 6.23803 15.8519 5.96861 15.8519V15.8471Z" fill="#172554"/>
<path fill-rule="evenodd" clip-rule="evenodd" d="M33.9831 27.3811C33.7627 27.3811 33.5594 27.0968 33.508 26.6635C32.7512 20.629 30.1819 15.918 26.9658 14.664C26.6988 14.5569 26.5299 14.0676 26.5837 13.5643C26.6401 13.0564 26.8972 12.7349 27.1618 12.8374C30.7499 14.24 33.6155 19.4962 34.4582 26.2337C34.5194 26.7323 34.3578 27.2356 34.0933 27.3567C34.059 27.3754 34.0199 27.3811 33.9831 27.3811Z" fill="#172554"/>
<path fill-rule="evenodd" clip-rule="evenodd" d="M38.176 40.6045H11.2342C10.6439 40.6045 10.0855 40.1571 9.65935 39.3463C9.23318 38.5355 8.99805 37.4684 8.99805 36.3501C8.99805 35.2317 9.23317 34.1647 9.65935 33.3539C10.0855 32.5431 10.6464 32.0957 11.2342 32.0957H38.176C38.7663 32.0957 39.3247 32.543 39.7508 33.3539C40.177 34.1647 40.4121 35.2317 40.4121 36.3501C40.4121 37.4684 40.177 38.5355 39.7508 39.3463C39.3247 40.1571 38.7687 40.6045 38.176 40.6045ZM11.2342 33.9643C10.5533 33.9643 9.98019 35.0593 9.98019 36.3501C9.98019 37.6455 10.5558 38.7359 11.2342 38.7359H38.176C38.8569 38.7359 39.43 37.6408 39.43 36.3501C39.43 35.0547 38.8544 33.9643 38.176 33.9643H11.2342Z" fill="#172554"/>
<path fill-rule="evenodd" clip-rule="evenodd" d="M36.6775 33.966C36.4081 33.966 36.1876 33.5466 36.1876 33.034V32.0461C36.1876 20.0002 31.0394 10.2017 24.7059 10.2017C18.3744 10.2017 13.2242 19.9965 13.2242 32.0461V33.034C13.2242 33.5466 13.0038 33.966 12.7344 33.966C12.4649 33.966 12.2445 33.5466 12.2445 33.034V32.0461C12.2445 28.8588 12.5752 25.7601 13.2266 22.8383C13.8561 20.0192 14.7574 17.4842 15.9036 15.3035C17.0499 13.1181 18.3847 11.4079 19.8665 10.2104C21.4046 8.97082 23.0334 8.3418 24.7062 8.3418C26.3815 8.3418 28.0102 8.97087 29.546 10.2104C31.0278 11.4079 32.3602 13.1227 33.5088 15.3035C34.6575 17.4842 35.5564 20.0238 36.1858 22.8383C36.8373 25.7647 37.168 28.8588 37.168 32.0461V33.034C37.168 33.5466 36.9469 33.966 36.6775 33.966Z" fill="#172554"/>
<path fill-rule="evenodd" clip-rule="evenodd" d="M27.0027 10.6066C26.7333 10.6066 26.5128 10.1872 26.5128 9.6746V7.75009C26.5128 5.88617 25.685 4.31584 24.7078 4.31584C23.7281 4.31584 22.9027 5.89083 22.9027 7.75009V9.6746C22.9027 10.1872 22.6822 10.6066 22.4128 10.6066C22.1434 10.6066 21.923 10.1872 21.923 9.6746V7.75009C21.923 6.34747 22.2144 5.01941 22.7435 4.0083C23.2725 3.00179 23.9705 2.44727 24.7078 2.44727C25.445 2.44727 26.143 3.00178 26.6745 4.0083C27.2035 5.01482 27.495 6.34282 27.495 7.75009V9.6746C27.495 10.1872 27.2746 10.6066 27.0051 10.6066H27.0027Z" fill="#172554"/>
<path fill-rule="evenodd" clip-rule="evenodd" d="M43.9024 48C43.3293 48 42.7684 47.5433 42.3643 46.7511C41.9748 45.9823 41.7716 44.985 41.7887 43.9505L42.1169 19.9338C41.458 19.1463 40.8996 17.9347 40.4808 16.397C40.013 14.6543 39.7632 12.6133 39.7632 10.4885C39.7632 7.72523 40.1722 5.13435 40.9217 3.17727C41.703 1.13168 42.7586 0.00390625 43.8975 0.00390625C45.0242 0.00390625 46.07 1.13157 46.8464 3.17727C47.591 5.13435 48 7.72988 48 10.4885C48 12.6133 47.7526 14.6543 47.2824 16.397C46.866 17.9395 46.3051 19.151 45.6462 19.9338L45.9744 43.9505C45.994 45.0036 45.7883 46.0149 45.3989 46.7837C45.0094 47.5572 44.4633 47.9999 43.9 47.9999L43.9024 48ZM43.9024 1.86794C42.1634 1.86794 40.7478 5.73558 40.7478 10.4886C40.7478 14.1045 41.5878 17.3571 42.8394 18.5733C43.0084 18.7364 43.1113 19.0672 43.1064 19.4307L42.7708 44.0105V44.0151C42.761 44.5464 42.8688 45.0589 43.0745 45.4596C43.295 45.8883 43.5938 46.1353 43.9048 46.1353C44.2036 46.1353 44.4951 45.8977 44.7033 45.4876C44.909 45.0868 45.0168 44.5603 45.007 44.0151V44.0104L44.6714 19.4306C44.6665 19.0718 44.7694 18.7363 44.9384 18.5732C46.1875 17.357 47.03 14.1091 47.03 10.4885C47.03 8.12132 46.6871 5.91731 46.0625 4.26776C45.4747 2.72068 44.7106 1.86799 43.9072 1.86799L43.9024 1.86794Z" fill="#172554"/>
</svg>
