<svg width="48" height="48" viewBox="0 0 48 48" fill="none" xmlns="http://www.w3.org/2000/svg">
<path d="M0.0344769 36.6149C-0.0180593 36.753 -0.0105541 36.9186 0.0569924 37.0475L1.43794 39.6983C1.50549 39.8272 1.62557 39.91 1.74565 39.91C1.75316 39.91 1.75316 39.91 1.76067 39.91C2.06838 39.8916 2.36858 39.8732 2.66129 39.8456L4.30492 42.2295C4.37246 42.3307 4.47754 42.3859 4.59011 42.3859C4.61263 42.3859 4.63514 42.3859 4.65766 42.3767C5.17552 42.2663 5.66335 42.119 6.12867 41.9625H10.0539C10.7819 41.9625 11.4799 41.668 12.0127 41.125C12.1328 41.0053 12.2529 40.8764 12.3655 40.7476C15.4201 40.6371 17.8818 37.4617 17.8818 33.5591V27.4751H18.4371C18.6398 27.4751 18.8049 27.2726 18.8049 27.0241C18.8049 23.3792 16.9586 20.259 14.3618 18.9796V14.1566C14.3618 13.9081 14.1967 13.7056 13.9941 13.7056H13.6038V2.6053C13.6038 2.35679 13.4387 2.1543 13.2361 2.1543H10.249C10.0464 2.1543 9.88126 2.35679 9.88126 2.6053V13.7148H9.49099C9.28835 13.7148 9.12323 13.9173 9.12323 14.1658V18.9888C6.51894 20.2682 4.68018 23.3884 4.68018 27.0333C4.68018 27.2818 4.84529 27.4843 5.04793 27.4843H5.76092C6.24125 33.3934 4.89032 35.5748 0.319673 36.3572C0.192085 36.3756 0.087013 36.4768 0.0344769 36.6149ZM3.5544 39.7259C5.25057 39.459 6.62401 38.8515 7.65222 37.4709C9.06319 35.5656 9.6486 32.3717 9.49099 27.4751H11.7726C12.418 35.4367 10.7819 39.4222 6.03861 41.0605H6.0161C5.94104 41.0605 5.881 41.0973 5.82096 41.1434C5.47572 41.2538 5.11547 41.3551 4.73271 41.4471L3.5544 39.7259ZM10.0464 41.0605H8.13255C11.7651 38.9159 13.071 34.6912 12.5006 27.4751H14.602C15.1649 34.6912 14.1742 37.5445 11.9977 39.9376C11.9677 39.956 11.9452 39.9836 11.9227 40.0112C11.7951 40.1493 11.6675 40.2874 11.5324 40.4162C11.1346 40.8304 10.6093 41.0605 10.0464 41.0605ZM17.1463 33.5591C17.1463 36.5781 15.4726 39.1 13.2436 39.7167C15.0673 37.296 15.8629 34.1666 15.3525 27.4751H17.1463V33.5591ZM10.6168 3.05631H12.8608V13.7148H10.6168V3.05631ZM9.85874 14.6168H13.6188V18.6759C13.0184 18.4734 12.388 18.3537 11.735 18.3537C11.0821 18.3537 10.4516 18.4734 9.85124 18.6759V14.6168H9.85874ZM11.7425 19.2649C12.433 19.2649 13.0935 19.403 13.7164 19.6607C13.7839 19.762 13.8815 19.8264 13.9941 19.8264C14.0166 19.8264 14.0391 19.8172 14.0541 19.808C16.2907 20.8941 17.9118 23.4897 18.0544 26.5731H5.42319C5.61832 22.5048 8.38022 19.2649 11.7425 19.2649ZM6.50393 27.4751H8.74798C8.89808 32.0864 8.36521 35.1698 7.10434 36.8634C6.11366 38.198 4.68768 38.7042 2.87894 38.9067C2.80388 38.8883 2.73634 38.8975 2.66879 38.9251C2.43613 38.9436 2.19596 38.9712 1.94829 38.9804L0.987633 37.1395C5.49824 36.1915 6.97676 33.5683 6.50393 27.4751Z" fill="#172554"/>
<path d="M45.2082 39.9923C45.3207 39.9187 45.4033 39.7714 45.4033 39.5965V36.6696C45.4033 35.0681 44.3376 33.7611 43.0317 33.7611H42.5063C42.3712 33.7611 42.2436 33.6966 42.1535 33.577C42.056 33.4573 42.011 33.3009 42.0185 33.1352L42.2136 26.2044C42.2286 25.6706 42.071 25.1735 41.7708 24.787C41.5231 24.4648 41.1929 24.2807 40.8477 24.2255L41.5381 15.776H42.739C43.3469 15.776 43.8497 15.1686 43.8497 14.4138V11.0082C43.8497 10.2627 43.3544 9.64602 42.739 9.64602H41.0353C41.1779 8.22857 40.8026 6.93078 39.9996 6.1024C39.3391 5.42128 38.491 5.15436 37.6054 5.29243C37.5904 4.34439 37.3427 3.46079 36.8474 2.78888C36.307 2.04334 35.549 1.61074 34.776 1.61074C33.7853 1.61074 32.9147 2.26424 32.4269 3.23068C31.3761 1.79482 29.8826 2.04334 28.9595 2.53116C28.314 1.01246 27.0607 0 25.6272 0C23.6683 0 22.0022 2.28265 21.8521 5.06232C20.989 5.20038 20.276 5.60537 19.7131 6.27728C18.7975 7.38178 18.5648 8.89127 18.5048 9.63682H17.3114C16.7035 9.63682 16.2007 10.2443 16.2007 10.999V14.4046C16.2007 15.1501 16.696 15.7668 17.3114 15.7668H18.5123L20.4186 39.164C20.5011 40.2408 21.2366 41.06 22.1223 41.06H34.9861C34.4608 43.1126 33.6877 45.294 33.0198 45.5609C32.8922 45.6161 32.7946 45.7542 32.7646 45.9198C32.7421 46.0855 32.7946 46.2512 32.9072 46.3617C33.3575 46.7758 34.0405 47.1072 34.866 47.3649C34.9186 47.3925 34.9711 47.4109 35.0236 47.4109H35.0311C35.6991 47.6042 36.4496 47.7515 37.2602 47.8435C37.3052 47.8711 37.3502 47.8803 37.4028 47.8803C37.4178 47.8803 37.4403 47.8711 37.4553 47.8711C38.2058 47.954 39.0014 48 39.8044 48C40.3373 48 40.8702 47.9724 41.403 47.9356C41.4331 47.9448 41.4631 47.954 41.4931 47.954C41.5456 47.954 41.5907 47.9356 41.6357 47.9172C42.3637 47.8619 43.0767 47.7699 43.7597 47.6502C43.7822 47.6502 43.7972 47.6594 43.8197 47.6594C43.8797 47.6594 43.9323 47.641 43.9848 47.6042C44.6828 47.4662 45.3432 47.3005 45.9362 47.0888H45.9437C46.0112 47.0888 46.0712 47.0612 46.1313 47.0151C46.7992 46.7666 47.3847 46.4813 47.8275 46.1407C47.9325 46.0579 48.0001 45.9106 48.0001 45.7634C48.0001 45.6069 47.94 45.4596 47.8275 45.3768C46.1238 44.033 45.2382 42.2105 45.2082 39.9923ZM35.5415 39.1455V38.2067H44.6678V39.1455H35.5415ZM41.4781 26.1768L41.2829 33.1076C41.2679 33.5218 41.3955 33.9083 41.6282 34.2121C41.8608 34.5066 42.1761 34.6723 42.5138 34.6723H43.0392C43.9398 34.6723 44.6678 35.5651 44.6678 36.6696V37.2955H35.5415V36.6696C35.5415 35.5651 36.2695 34.6723 37.1701 34.6723H37.6504C37.9882 34.6723 38.3034 34.5066 38.5361 34.2121C38.7687 33.9175 38.8963 33.5218 38.8813 33.1076L38.6862 26.1768C38.6787 25.8915 38.7612 25.6245 38.9263 25.4221C39.0839 25.2196 39.3016 25.1091 39.5342 25.1091H40.6375C40.8702 25.1091 41.0803 25.2196 41.2454 25.4221C41.403 25.6245 41.4856 25.9007 41.4781 26.1768ZM34.0705 23.8573C33.8979 23.0382 33.2899 22.4215 32.5695 22.4215H27.6686C26.9331 22.4215 26.3252 23.0474 26.16 23.8849H25.8073C23.6158 23.8849 21.6494 22.2834 20.8014 19.8075L19.4204 15.776H40.5775L38.5286 20.4058C37.6279 22.4399 35.9393 23.7285 34.0705 23.8573ZM33.3875 24.336C33.3875 24.8882 33.0198 25.3392 32.5695 25.3392H27.6686C27.2183 25.3392 26.8505 24.8882 26.8505 24.336C26.8505 23.7837 27.2183 23.3327 27.6686 23.3327H32.5695C33.0198 23.3327 33.3875 23.7837 33.3875 24.336ZM20.246 6.93998C20.8239 6.24046 21.6419 5.8999 22.6626 5.92752C22.8953 5.93672 23.0379 5.73423 23.0379 5.48571C23.0454 5.2372 22.8803 5.0255 22.6776 5.0255C22.6551 5.0255 22.6401 5.0255 22.6176 5.0255C22.7827 2.78888 24.1111 0.920422 25.6347 0.920422C27.1958 0.920422 28.5017 2.42071 28.6668 4.41803C28.6893 4.66654 28.8619 4.84142 29.072 4.82301C29.2747 4.7954 29.4248 4.5745 29.4023 4.32598C29.3723 4.00383 29.3197 3.69089 29.2447 3.38715C29.8301 3.08341 31.226 2.59559 32.1041 4.20633C32.0516 4.46405 32.0141 4.74017 32.0141 5.0163C32.0141 5.26481 32.1792 5.46731 32.3818 5.46731C32.5845 5.46731 32.7496 5.26481 32.7496 5.0163C32.7496 3.64487 33.6577 2.53116 34.776 2.53116C35.3314 2.53116 35.9017 2.85331 36.2995 3.40556C36.7048 3.96702 36.8999 4.72176 36.8699 5.53174C36.7874 5.56855 36.7123 5.59616 36.6297 5.63298C36.4421 5.73423 36.3521 6.00115 36.4346 6.23126C36.5172 6.46136 36.7348 6.57181 36.9224 6.47057C37.8681 5.97354 38.8438 6.1024 39.5267 6.81112C40.1572 7.46462 40.4274 8.5047 40.2923 9.66443H19.2628C19.3228 9.01093 19.533 7.80518 20.246 6.93998ZM16.9587 14.423V11.0174C16.9587 10.7689 17.1238 10.5664 17.3265 10.5664H18.865H42.739C42.9416 10.5664 43.1067 10.7689 43.1067 11.0174V14.423C43.1067 14.6715 42.9416 14.874 42.739 14.874H41.2379C41.2379 14.874 41.2379 14.874 41.2304 14.874H18.8725C18.865 14.874 18.8575 14.874 18.85 14.874H17.319C17.1238 14.874 16.9587 14.6715 16.9587 14.423ZM22.1373 40.1672C21.6344 40.1672 21.2216 39.707 21.1691 39.0903L19.4729 18.2796L20.1184 20.1572C21.079 22.9737 23.3156 24.787 25.7998 24.787H26.16C26.3252 25.6245 26.9406 26.2412 27.6686 26.2412H32.5695C33.305 26.2412 33.9279 25.6061 34.0855 24.7593C36.217 24.6213 38.1458 23.1578 39.174 20.8383L40.6525 17.5064L40.1046 24.2071H39.5342C39.0989 24.2071 38.7012 24.4188 38.401 24.7962C38.1008 25.1735 37.9432 25.6798 37.9582 26.2136L38.1533 33.1444C38.1608 33.3101 38.1083 33.4665 38.0107 33.5862C37.9206 33.7058 37.793 33.7703 37.658 33.7703H37.1776C35.8717 33.7703 34.806 35.0773 34.806 36.6788V39.6058C34.806 39.8543 34.9711 40.0568 35.1737 40.0568H35.2413C35.2338 40.0936 35.2263 40.1304 35.2188 40.1672H22.1373ZM46.0412 46.1315C45.5459 45.6529 45.0956 44.889 44.6678 43.7753C44.5852 43.5452 44.3601 43.4531 44.1799 43.5544C43.9923 43.6648 43.9173 43.9317 43.9998 44.1526C44.3676 45.1191 44.7653 45.8646 45.2006 46.4169C44.8104 46.5273 44.4051 46.6378 43.9773 46.7206C43.2568 45.837 42.784 44.6405 42.5588 43.0389C42.5213 42.7904 42.3337 42.6247 42.131 42.6708C41.9284 42.7168 41.7933 42.9469 41.8308 43.1954C42.041 44.7233 42.4688 45.9291 43.0992 46.8771C42.6414 46.9415 42.1686 46.9967 41.6882 47.0336C41.2679 46.3709 41.0128 45.4228 40.9377 44.1158C40.9227 43.8673 40.7426 43.6832 40.5399 43.6924C40.3373 43.7108 40.1797 43.9225 40.1947 44.1802C40.2622 45.386 40.4649 46.3432 40.8101 47.098C39.887 47.1348 38.9639 47.1256 38.0857 47.0612C38.431 46.3248 38.6712 45.386 38.8213 44.2263C38.8513 43.9778 38.7162 43.7476 38.5135 43.7108C38.3109 43.674 38.1233 43.8397 38.0933 44.0882C37.9356 45.3676 37.6504 46.3064 37.2377 46.9783C36.7048 46.9139 36.202 46.8311 35.7366 46.7206C36.4496 45.7082 36.8924 44.4472 37.035 42.9469C37.0575 42.6984 36.9149 42.4775 36.7123 42.4407C36.5097 42.413 36.3295 42.5879 36.2995 42.8364C36.1569 44.3551 35.6916 45.5425 34.9111 46.4813C34.4983 46.3432 34.1305 46.1868 33.8303 46.0027C34.9411 44.7233 35.7291 41.3638 35.9993 40.066H44.4651C44.5102 42.3302 45.3507 44.2723 46.9418 45.7358C46.6792 45.8738 46.3715 46.0027 46.0412 46.1315Z" fill="#172554"/>
<path d="M39.0088 26.8028C39.0088 27.5483 39.5041 28.1466 40.1045 28.1466C40.7125 28.1466 41.2003 27.5391 41.2003 26.8028C41.2003 26.0573 40.705 25.459 40.1045 25.459C39.5041 25.459 39.0088 26.0573 39.0088 26.8028ZM40.4648 26.8028C40.4648 27.0421 40.3072 27.2446 40.1045 27.2446C39.9019 27.2446 39.7443 27.0513 39.7443 26.8028C39.7443 26.5635 39.9019 26.361 40.1045 26.361C40.3072 26.361 40.4648 26.5635 40.4648 26.8028Z" fill="#172554"/>
</svg>
