<svg width="48" height="48" viewBox="0 0 48 48" fill="none" xmlns="http://www.w3.org/2000/svg">
<path d="M47.3979 40.4296H41.7126V37.2867L47.3979 37.289C47.5901 37.289 47.7729 37.1953 47.8853 37.0382C47.9978 36.8812 48.0283 36.6796 47.965 36.4945L46.5777 32.4046H47.3979C47.5901 32.4046 47.7729 32.3109 47.8854 32.1539C47.9978 31.9968 48.0283 31.7953 47.965 31.6101L46.5777 27.5179L47.3979 27.5203C47.5901 27.5203 47.7729 27.4265 47.8854 27.2695C47.9979 27.1125 48.0283 26.9109 47.965 26.7258L46.3105 21.8438C46.2285 21.6 45.9989 21.4359 45.7434 21.4359H41.7126V18.4078C41.7126 18.075 41.4431 17.8078 41.1127 17.8078C40.7822 17.8078 40.5127 18.075 40.5127 18.4078V21.4359H36.4819C36.2241 21.4359 35.9968 21.6 35.9148 21.8438L34.2603 26.7281C34.1994 26.9109 34.2275 27.1125 34.34 27.2719C34.4524 27.4289 34.6352 27.5226 34.8274 27.5226H35.6453L34.2579 31.6148C34.197 31.7976 34.2251 31.9992 34.3376 32.1585C34.4501 32.3156 34.6329 32.4093 34.8251 32.4093H35.643L34.2556 36.4992C34.1947 36.682 34.2228 36.8835 34.3353 37.0429C34.4478 37.1999 34.6306 37.2937 34.8227 37.2937H40.5081V40.4367L24.6002 40.4296V37.2867H30.2856C30.4777 37.2867 30.6605 37.1929 30.773 37.0359C30.8855 36.8788 30.916 36.6773 30.8527 36.4921L29.4653 32.4023H30.2832C30.4754 32.4023 30.6582 32.3086 30.7707 32.1515C30.8832 31.9945 30.9136 31.7929 30.8504 31.6078L29.463 27.5156H30.2809C30.4731 27.5156 30.6559 27.4219 30.7683 27.2648C30.8808 27.1078 30.9113 26.9062 30.848 26.7211L29.1935 21.8367C29.1115 21.593 28.8818 21.4289 28.6264 21.4289L24.6003 21.4383V18.4102C24.6003 18.0773 24.3308 17.8102 24.0004 17.8102C23.6699 17.8102 23.4004 18.0773 23.4004 18.4102V21.4383H19.3696C19.1118 21.4383 18.8845 21.6023 18.8025 21.8461L17.148 26.7304C17.0871 26.9133 17.1152 27.1148 17.2277 27.2742C17.3402 27.4312 17.523 27.525 17.7151 27.525H18.533L17.1457 31.6171C17.0847 31.8 17.1129 32.0015 17.2253 32.1609C17.3378 32.3179 17.5206 32.4117 17.7128 32.4117H18.5307L17.1433 36.5015C17.0824 36.6843 17.1105 36.8859 17.223 37.0453C17.3355 37.2023 17.5183 37.296 17.7105 37.296L23.4005 37.289V40.432L7.48844 40.4296V37.2867H13.1738C13.3659 37.2867 13.5487 37.1929 13.6612 37.0359C13.7737 36.8788 13.8042 36.6773 13.7409 36.4921L12.3535 32.4023H13.1714C13.3636 32.4023 13.5464 32.3086 13.6589 32.1515C13.7714 31.9945 13.8018 31.7929 13.7385 31.6078L12.3512 27.5156H13.1691C13.3613 27.5156 13.5441 27.4219 13.6565 27.2648C13.769 27.1078 13.7995 26.9062 13.7362 26.7211L12.0817 21.8367C11.9997 21.593 11.77 21.4289 11.5146 21.4289H7.48377V18.4008C7.48377 18.068 7.21427 17.8008 6.88384 17.8008C6.55341 17.8008 6.2839 18.068 6.2839 18.4008V21.4289H2.25307C1.99529 21.4289 1.76797 21.593 1.68595 21.8367L0.0314565 26.7211C-0.0294727 26.9039 -0.00135165 27.1054 0.111134 27.2648C0.228307 27.4265 0.4111 27.5203 0.603265 27.5203H1.42115L0.0338086 31.6125C-0.0271206 31.7953 0.00334323 31.9968 0.115831 32.1539C0.228319 32.3109 0.411112 32.4046 0.603277 32.4046H1.42117L0.0338206 36.4945C-0.0271086 36.6773 0.00101187 36.8788 0.113497 37.0382C0.228331 37.1952 0.411118 37.289 0.603289 37.289H6.28861V40.432L0.603289 40.4296C0.272858 40.4296 0.00335584 40.6968 0.00335584 41.0296V47.3998C0.00335584 47.7326 0.272858 47.9998 0.603289 47.9998H47.3981C47.7285 47.9998 47.998 47.7326 47.998 47.3998V41.0296C47.998 40.6992 47.7283 40.4296 47.3979 40.4296ZM36.9129 22.6385H45.3119L46.561 26.3228H45.7431L36.4813 26.3205H35.6635L36.9129 22.6385ZM45.3119 27.5205L46.561 31.2048H35.6638L36.9129 27.5205H45.3119ZM36.9129 32.4048H45.3119L46.561 36.0892H35.6638L36.9129 32.4048ZM19.801 22.6387H28.2001L29.4491 26.323H28.6312L19.3695 26.3207H18.5516L19.801 22.6387ZM28.2001 27.5207L29.4491 31.205H18.5519L19.801 27.5207H28.2001ZM19.801 32.405H28.2001L29.4491 36.0894H18.5519L19.801 32.405ZM2.68911 22.6388H11.0882L12.3372 26.3232H11.5193L2.25757 26.3208H1.43969L2.68911 22.6388ZM11.0882 27.5208L12.3372 31.2052H1.44005L2.68911 27.5208H11.0882ZM2.68911 32.4052H11.0882L12.3372 36.0895H1.44005L2.68911 32.4052ZM46.798 46.8004H1.20307V41.63H46.798V46.8004Z" fill="#172554"/>
<path d="M0.603268 9.54612C0.392355 9.54612 0.200185 9.65627 0.0900434 9.8344C-0.0177585 10.0149 -0.0247898 10.2375 0.0712955 10.425C1.30632 12.7992 3.73185 14.2735 6.40119 14.2735C9.03525 14.2735 11.3764 12.9328 12.6045 10.7485H35.3809C36.5855 12.9328 38.9337 14.2735 41.6028 14.2735C44.2721 14.2735 46.6976 12.7993 47.9327 10.425C48.0288 10.2375 48.0218 10.0172 47.914 9.83674C47.8015 9.65628 47.6093 9.54612 47.3984 9.54612H41.7787V4.72501H47.3984C47.6093 4.72501 47.8015 4.61486 47.9116 4.43673C48.0194 4.2586 48.0288 4.0336 47.9304 3.84845C46.6954 1.47426 44.2698 0 41.6005 0C38.9664 0 36.6253 1.34064 35.3972 3.52499H12.6231C11.4163 1.34064 9.06806 0 6.40124 0C3.73202 0 1.30649 1.4742 0.0713493 3.84845C-0.024736 4.03595 -0.0177048 4.25626 0.0900972 4.43673C0.200239 4.6172 0.392409 4.72501 0.603322 4.72501H5.94644V9.54612H0.603268ZM6.54632 3.52513H1.69299C2.80382 2.072 4.53097 1.20014 6.40108 1.20014C8.73986 1.20014 10.7741 2.42126 11.7161 4.38529C11.8146 4.59389 12.0255 4.72748 12.2575 4.72748H35.7604C35.9901 4.72748 36.1987 4.59623 36.2994 4.39232C37.265 2.42361 39.2968 1.20015 41.6004 1.20015C43.4705 1.20015 45.1953 2.07201 46.3085 3.52515H41.1762C40.8458 3.52515 40.5763 3.79233 40.5763 4.12514V10.1461C40.5763 10.4789 40.8458 10.7461 41.1762 10.7461H46.3085C45.1977 12.2016 43.4705 13.0711 41.6004 13.0711C39.2616 13.0711 37.2274 11.85 36.2853 9.88597C36.1869 9.67737 35.976 9.54378 35.744 9.54378L12.241 9.54613C12.0114 9.54613 11.8028 9.67738 11.702 9.88128C10.7365 11.85 8.7047 13.0711 6.40108 13.0711C4.53097 13.0711 2.80616 12.1993 1.69299 10.7461H6.54632C6.87675 10.7461 7.14626 10.4789 7.14626 10.1461V4.12514C7.14626 3.79467 6.87675 3.52513 6.54632 3.52513Z" fill="#172554"/>
</svg>
