<svg width="48" height="48" viewBox="0 0 48 48" fill="none" xmlns="http://www.w3.org/2000/svg">
<path d="M39.9104 35.8673L36.2934 34.7696L34.1035 31.7484C33.9035 31.4745 33.4374 31.4745 33.2436 31.7484L31.0536 34.7696L27.4325 35.8673C27.2696 35.9196 27.1418 36.0425 27.0902 36.2016C27.0366 36.3607 27.0696 36.5359 27.1686 36.6709L29.4328 39.6357L29.3854 43.3376C29.3854 43.5027 29.4638 43.6619 29.6019 43.7605C29.6927 43.827 29.8019 43.8592 29.9133 43.8592C29.971 43.8592 30.0288 43.8492 30.0824 43.8331L33.6725 42.6427L37.2627 43.8331C37.4256 43.8854 37.605 43.8592 37.7432 43.7605C37.8813 43.6619 37.9659 43.5027 37.9597 43.3376L37.9123 39.6357L40.1765 36.6709C40.2775 36.5359 40.3085 36.3607 40.2549 36.2016C40.2012 36.0425 40.0755 35.9176 39.9125 35.8673H39.9104ZM36.9595 39.1563C36.8915 39.2489 36.8544 39.3577 36.8544 39.4705L36.8956 42.6165L33.8437 41.6055C33.7324 41.5692 33.6169 41.5692 33.5055 41.6055L30.4536 42.6165L30.4949 39.4705C30.4949 39.3577 30.4577 39.2489 30.3897 39.1563L28.4637 36.6346L31.5404 35.7021C31.6517 35.6659 31.7466 35.5994 31.8146 35.5067L33.6726 32.9387L35.5305 35.5067C35.5986 35.5994 35.6934 35.6659 35.8048 35.7021L38.8814 36.6346L36.9554 39.1563H36.9595Z" fill="#172554"/>
<path d="M13.7254 0C11.9788 0 10.558 1.38771 10.558 3.09366V3.15006H6.08117C5.79041 3.15006 5.55326 3.38169 5.55326 3.66567V5.1561H2.32192C1.03928 5.1561 0 6.17123 0 7.42396V40.01C0 41.2628 1.03933 42.2779 2.32192 42.2779H19.3531V45.1802C19.3531 46.7371 20.6522 48 22.2401 48H45.113C46.707 48 48 46.7311 48 45.1802V24.9162C48 23.3593 46.7009 22.0964 45.113 22.0964H44.6325V20.6987C44.6325 19.3734 43.5293 18.2898 42.1662 18.2898C40.8052 18.2898 39.6999 19.3673 39.6999 20.6987V22.0964H36.1366V20.5294C36.1366 19.2042 35.0334 18.1206 33.6703 18.1206C32.3093 18.1206 31.204 19.1981 31.204 20.5294V22.0964H27.6406V20.3583C27.6406 20.0239 27.5664 19.7037 27.4406 19.4157V7.43391C27.4406 6.18113 26.4013 5.16605 25.1187 5.16605H21.8874V3.67562C21.8874 3.39164 21.6502 3.16001 21.3595 3.16001H16.8826V3.10362C16.8826 1.39767 15.4618 0.00995128 13.7152 0.00995128L13.7254 0ZM20.8416 8.07447H6.6088V4.18119H20.8416V8.07447ZM26.3951 7.42593V18.2697C26.0363 18.0683 25.6239 17.9455 25.1867 17.9455C25.0609 17.9455 24.933 17.9656 24.8114 17.9817V8.29804C24.8114 7.69379 24.3103 7.20437 23.6916 7.20437H21.8976V6.18924H25.1289C25.8259 6.18924 26.3951 6.74517 26.3951 7.42593ZM35.0849 20.5276V24.6928C35.0849 25.4501 34.4518 26.0704 33.6744 26.0704C32.899 26.0704 32.2639 25.4521 32.2639 24.6928V20.5276C32.2639 19.7703 32.8969 19.1499 33.6744 19.1499C34.4498 19.1499 35.0849 19.7683 35.0849 20.5276ZM33.6744 27.1016C35.0312 27.1016 36.1407 26.0241 36.1407 24.6928V23.1258H39.704V24.8639C39.704 26.1892 40.8072 27.2728 42.1703 27.2728C43.5313 27.2728 44.6366 26.1953 44.6366 24.8639V23.1258H45.1171C46.1317 23.1258 46.9483 23.9294 46.9483 24.9143V28.3121H20.4107V24.9143C20.4107 23.9234 21.2335 23.1258 22.2419 23.1258H22.7223V24.5235C22.7223 25.8488 23.8255 26.9324 25.1886 26.9324C26.5496 26.9324 27.6549 25.8549 27.6549 24.5235V23.1258H31.2183V24.6928C31.2183 26.018 32.3215 27.1016 33.6846 27.1016H33.6744ZM42.1641 19.3211C42.9395 19.3211 43.5746 19.9394 43.5746 20.6987V24.8639C43.5746 25.6212 42.9415 26.2415 42.1641 26.2415C41.3887 26.2415 40.7536 25.6232 40.7536 24.8639V20.6987C40.7536 19.9414 41.3867 19.3211 42.1641 19.3211ZM22.2421 46.9728C21.2276 46.9728 20.411 46.1691 20.411 45.1842V29.3452H46.9486V45.1842C46.9486 46.1752 46.1258 46.9728 45.1174 46.9728H22.2421ZM1.05586 40.012V7.42593C1.05586 6.74517 1.62499 6.18929 2.32198 6.18929H5.55332V7.20442H3.75929C3.14065 7.20442 2.63956 7.69385 2.63956 8.29809V38.137C2.63956 38.7412 3.14066 39.2307 3.75929 39.2307H19.3488V41.2468L2.31759 41.2448C1.62061 41.2448 1.05147 40.6889 1.05147 40.0081L1.05586 40.012ZM6.08122 9.10579H21.3698C21.6605 9.10579 21.8977 8.87417 21.8977 8.59018V8.23368H23.6917C23.7288 8.23368 23.7556 8.26389 23.7556 8.29612V18.3969C23.1329 18.836 22.7205 19.547 22.7205 20.3506V22.0888H22.24C20.646 22.0888 19.353 23.3577 19.353 24.9086V38.1959L3.75931 38.1979C3.72219 38.1979 3.69539 38.1677 3.69539 38.1354V8.30272C3.69539 8.26647 3.72632 8.24029 3.75931 8.24029H5.55333V8.59679C5.55333 8.88078 5.79048 9.1124 6.08123 9.1124L6.08122 9.10579ZM26.5913 24.5179C26.5913 25.2752 25.9582 25.8956 25.1808 25.8956C24.4054 25.8956 23.7703 25.2773 23.7703 24.5179V20.3528C23.7703 19.5954 24.4033 18.9751 25.1808 18.9751C25.9561 18.9751 26.5913 19.5934 26.5913 20.3528V24.5179ZM11.6142 3.09377C11.6142 1.9538 12.5586 1.03132 13.7258 1.03132C14.8929 1.03132 15.8374 1.9538 15.8374 3.09377V3.15017H11.6142V3.09377Z" fill="#172554"/>
<path d="M16.9979 16.6906C18.3919 16.6906 19.5261 15.5828 19.5261 14.2213C19.5261 12.8597 18.3919 11.752 16.9979 11.752C15.6039 11.752 14.4697 12.8597 14.4697 14.2213C14.4697 15.5828 15.6039 16.6906 16.9979 16.6906ZM16.9979 12.7812C17.8104 12.7812 18.4703 13.4257 18.4703 14.2193C18.4703 15.0129 17.8104 15.6574 16.9979 15.6574C16.1854 15.6574 15.5255 15.0129 15.5255 14.2193C15.5255 13.4257 16.1854 12.7812 16.9979 12.7812Z" fill="#172554"/>
<path d="M13.0863 30.1016C11.6923 30.1016 10.5581 31.2093 10.5581 32.5709C10.5581 33.9324 11.6922 35.0402 13.0863 35.0402C14.4803 35.0402 15.6145 33.9325 15.6145 32.5709C15.6145 31.2094 14.4803 30.1016 13.0863 30.1016ZM11.6139 32.5769C11.6139 31.7833 12.2738 31.1388 13.0863 31.1388C13.8988 31.1388 14.5587 31.7833 14.5587 32.5769C14.5587 33.3705 13.8988 34.015 13.0863 34.015C12.2738 34.015 11.6139 33.3705 11.6139 32.5769Z" fill="#172554"/>
<path d="M8.44639 23.7335C9.84036 23.7335 10.9746 22.6258 10.9746 21.2642C10.9746 19.9027 9.84042 18.7949 8.44639 18.7949C7.05241 18.7949 5.91821 19.9027 5.91821 21.2642C5.91821 22.6258 7.05236 23.7335 8.44639 23.7335ZM9.91876 21.2642C9.91876 22.0578 9.25888 22.7023 8.44639 22.7023C7.63389 22.7023 6.97402 22.0578 6.97402 21.2642C6.97402 20.4707 7.63389 19.8261 8.44639 19.8261C9.25888 19.8261 9.91876 20.4707 9.91876 21.2642Z" fill="#172554"/>
<path d="M7.75966 16.6899H7.78028C8.06073 16.6899 8.29168 16.4724 8.30818 16.2005C8.30818 16.1844 8.38654 14.7665 9.41762 13.8903C10.0713 13.3284 10.9951 13.0967 12.152 13.1934C12.4469 13.2236 12.6964 13.0081 12.7211 12.7241C12.7479 12.4401 12.5314 12.1924 12.2406 12.1682C10.7786 12.0454 9.59084 12.3636 8.70824 13.127C7.34108 14.3032 7.25651 16.0857 7.25034 16.1642C7.24003 16.4482 7.46686 16.6859 7.75762 16.7L7.75966 16.6899Z" fill="#172554"/>
<path d="M12.2695 22.2698C11.9787 22.2336 11.7148 22.435 11.6777 22.713C11.6405 22.9969 11.8468 23.2548 12.1313 23.291C12.1478 23.291 13.8677 23.5226 14.5976 24.715C15.0348 25.432 15.0348 26.3806 14.5914 27.5408C14.4904 27.8086 14.6286 28.1027 14.8966 28.2054C14.9606 28.2256 15.0183 28.2357 15.0822 28.2357C15.2926 28.2357 15.4988 28.1068 15.5792 27.9013C16.1442 26.431 16.1174 25.1783 15.505 24.1792C14.5131 22.5659 12.3582 22.2759 12.2695 22.2658L12.2695 22.2698Z" fill="#172554"/>
</svg>
