<svg width="48" height="48" viewBox="0 0 48 48" fill="none" xmlns="http://www.w3.org/2000/svg">
<path d="M11.7677 7.26655C11.3032 7.80761 11.1484 8.58056 11.3806 9.35351L15.4064 21.798C15.7161 22.5709 16.4129 22.2617 16.5677 22.2617C18.8129 20.9477 21.3677 20.2521 24 20.2521C26.6322 20.2521 29.1871 20.9477 31.4322 22.2617C31.6645 22.4163 32.2839 22.5709 32.5935 21.798L36.6193 9.35351C36.8516 8.65785 36.7742 7.88491 36.3097 7.26655C35.8451 6.64819 35.1484 6.26172 34.3742 6.26172H13.6258C12.8516 6.26172 12.1548 6.64819 11.7677 7.26655ZM35.1484 8.81244L31.4322 20.4066C29.1097 19.2472 26.5548 18.6289 24 18.6289C21.4451 18.6289 18.8903 19.2472 16.5677 20.4066L12.8516 8.81244C12.7742 8.58056 12.7742 7.80761 13.6258 7.80761H34.3742C34.6064 7.80761 35.3032 8.0395 35.1484 8.81244Z" fill="#172554"/>
<path d="M13.9353 1.62402H14.7095C15.174 1.62402 15.4837 1.31484 15.4837 0.851072C15.4837 0.387304 15.174 0.078125 14.7095 0.078125H13.9353C13.4708 0.078125 13.1611 0.387304 13.1611 0.851072C13.1611 1.31484 13.4708 1.62402 13.9353 1.62402Z" fill="#172554"/>
<path d="M40.1808 1.08296C39.097 0.387304 37.7808 0.078125 36.3873 0.078125H17.1873C16.7228 0.078125 16.4131 0.387304 16.4131 0.851072C16.4131 1.31484 16.7228 1.62402 17.1873 1.62402H36.3873C37.4712 1.62402 38.555 1.8559 39.4066 2.39697C41.6518 3.78827 42.6582 6.41629 41.8066 8.96701L36.0776 25.9718C36.0002 26.2037 36.0002 26.4356 36.155 26.6675C37.8582 29.0636 38.7099 31.9235 38.7099 34.8607C38.7099 35.3245 39.0195 35.6337 39.4841 35.6337C39.9486 35.6337 40.2582 35.3245 40.2582 34.8607C40.2582 31.7689 39.4066 28.7545 37.7034 26.1264L43.2776 9.43078C44.3615 6.2617 43.0453 2.78344 40.1808 1.08296Z" fill="#172554"/>
<path d="M33.2904 4.71582C33.7549 4.71582 34.0645 4.40664 34.0645 3.94287C34.0645 3.4791 33.7549 3.16992 33.2904 3.16992H31.742C31.2775 3.16992 30.9678 3.4791 30.9678 3.94287C30.9678 4.40664 31.2775 4.71582 31.742 4.71582H33.2904Z" fill="#172554"/>
<path d="M38.8647 7.11195C38.9421 7.49842 39.2518 7.8076 39.6389 7.8076C39.6389 7.8076 40.4905 7.8076 40.4131 6.95736C40.1809 4.79311 38.3228 3.16992 36.1551 3.16992C35.6905 3.16992 35.3809 3.4791 35.3809 3.94287C35.3809 4.40664 35.6905 4.71582 36.1551 4.71582C37.5486 4.71582 38.7099 5.72065 38.8647 7.11195Z" fill="#172554"/>
<path d="M12.7742 32.0002C12.929 31.5364 13.0838 30.9953 13.2387 30.5316C13.3935 30.1451 13.2387 29.6813 12.7742 29.5267C12.3871 29.3721 11.9225 29.5267 11.7677 29.9905C11.5354 30.5316 11.3806 31.0726 11.2258 31.6137C11.1484 32.0002 11.3806 32.4639 11.7677 32.5412C12.2322 32.6185 12.6967 32.3093 12.7742 32.0002Z" fill="#172554"/>
<path d="M10.8389 34.8589C10.8389 38.028 12.0002 41.1198 14.1679 43.5159C14.3227 43.6705 14.7098 43.9797 15.2518 43.5932C15.6389 43.3613 15.6389 42.8202 15.3292 42.5111C13.3937 40.4241 12.3873 37.7188 12.3873 34.8589C12.3873 34.3951 12.0776 34.0859 11.6131 34.0859C11.1485 34.0859 10.8389 34.3951 10.8389 34.8589Z" fill="#172554"/>
<path d="M47.2259 46.4531H45.6775C45.213 46.4531 44.9033 46.7623 44.9033 47.2261C44.9033 47.6898 45.213 47.999 45.6775 47.999H47.2259C47.6904 47.999 48.0001 47.6898 48.0001 47.2261C48.0001 46.7623 47.6904 46.4531 47.2259 46.4531Z" fill="#172554"/>
<path d="M42.5805 46.4541H35.3805C37.7805 44.058 39.4838 41.0435 40.0257 37.7198C40.1031 37.3333 39.7934 36.8696 39.4063 36.7923C39.0192 36.715 38.5547 37.0242 38.4773 37.4106C37.8579 41.0435 35.9225 44.2126 32.9805 46.4541H14.9418C11.3031 43.6715 9.29021 39.4203 9.29021 34.8599C9.29021 31.9227 10.1418 29.0628 11.7676 26.6667C11.9225 26.4348 11.9225 26.2029 11.845 25.971C10.2192 21.1014 7.19988 12.058 6.19343 9.04348C5.80634 7.96135 5.72892 6.87923 5.96117 5.95169C6.58053 3.40097 8.74827 1.54589 11.3805 1.54589C11.845 1.54589 12.1547 1.23672 12.1547 0.772947C12.1547 0.309179 11.845 0 11.3805 0C8.0515 0 5.18698 2.31884 4.41279 5.56522C4.10311 6.80193 4.25795 8.19324 4.64504 9.50725C5.6515 12.4444 8.51601 21.1014 10.1418 26.0483C8.59343 28.7536 7.74182 31.7681 7.74182 34.8599C7.74182 39.2657 9.52246 43.4396 12.6192 46.4541H11.6128C11.1483 46.4541 10.8386 46.7633 10.8386 47.2271C10.8386 47.6908 11.1483 48 11.6128 48H42.5805C43.045 48 43.3547 47.6908 43.3547 47.2271C43.3547 46.7633 43.045 46.4541 42.5805 46.4541Z" fill="#172554"/>
<path d="M8.51613 46.4531H0.774194C0.309677 46.4531 0 46.7623 0 47.2261C0 47.6898 0.309677 47.999 0.774194 47.999H8.51613C8.98064 47.999 9.29032 47.6898 9.29032 47.2261C9.29032 46.7623 8.98064 46.4531 8.51613 46.4531Z" fill="#172554"/>
</svg>
