<svg width="48" height="48" viewBox="0 0 48 48" fill="none" xmlns="http://www.w3.org/2000/svg">
<path d="M47.3991 48.0008C47.6996 48.0008 48 47.7264 48 47.3121V45.9348C48 45.5904 47.7606 45.2461 47.3991 45.2461C47.0376 45.2461 46.7982 45.5205 46.7982 45.9348V47.3121C46.7982 47.6565 47.0987 48.0008 47.3991 48.0008Z" fill="#172554"/>
<path d="M43.254 30.3022C43.4348 29.9579 43.3738 29.5436 43.0733 29.4064C42.4113 28.9248 41.6907 28.5105 40.9701 28.2362C40.6697 28.099 40.3082 28.3061 40.2495 28.6504C40.1298 28.9948 40.3105 29.4091 40.611 29.4763C41.273 29.7507 41.8739 30.095 42.4748 30.5093C42.5945 30.5793 42.6555 30.6465 42.7752 30.6465C42.9536 30.6465 43.132 30.5093 43.254 30.3022Z" fill="#172554"/>
<path d="M46.7982 38.4294C46.8592 38.7737 47.0987 39.0481 47.3991 39.0481H47.4601C47.7606 38.9782 48 38.7038 48 38.2895C47.939 37.3936 47.7606 36.4978 47.4601 35.6719C47.3404 35.3276 47.04 35.1204 46.7395 35.2576C46.4391 35.3948 46.2583 35.7392 46.378 36.0835C46.5588 36.8448 46.6785 37.6035 46.7982 38.4294Z" fill="#172554"/>
<path d="M45.8968 34.2256C46.0165 34.2256 46.1362 34.2255 46.1972 34.1556C46.4977 33.9485 46.5587 33.5369 46.378 33.2598C45.9578 32.5011 45.4766 31.8124 44.9368 31.1238C44.6973 30.8494 44.3358 30.8494 44.0964 31.1238C43.857 31.3982 43.857 31.8124 44.0964 32.0868C44.5776 32.6383 44.9978 33.257 45.418 33.9457C45.4766 34.0883 45.716 34.2256 45.8968 34.2256Z" fill="#172554"/>
<path d="M48 40.8391C48 40.4947 47.7606 40.1504 47.3991 40.1504C47.0376 40.1504 46.7982 40.4248 46.7982 40.8391V43.3866C46.7982 43.731 47.0376 44.0753 47.3991 44.0753C47.7606 44.0753 48 43.8009 48 43.3866V40.8391Z" fill="#172554"/>
<path d="M38.6859 27.6168C38.2658 27.5469 37.8456 27.5469 37.4231 27.5469C37.1226 27.5469 36.8221 27.8213 36.8221 28.2356C36.8221 28.5799 37.0616 28.9242 37.4231 28.9242C37.7845 28.9242 38.1437 28.9242 38.5052 28.9942H38.5662C38.8667 28.9942 39.1061 28.7198 39.1671 28.3754C39.2258 27.9612 38.9864 27.6168 38.6859 27.6168Z" fill="#172554"/>
<path d="M44.4558 48.0008C44.7562 48.0008 45.0567 47.7264 45.0567 47.3121V45.9348C45.0567 45.5904 44.8173 45.2461 44.4558 45.2461C44.1553 45.2461 43.8549 45.5205 43.8549 45.9348V47.3121C43.8549 47.6565 44.0943 48.0008 44.4558 48.0008Z" fill="#172554"/>
<path d="M43.7936 38.4994C43.8546 38.8437 44.094 39.0509 44.3945 39.0509H44.4555C44.756 38.9809 44.9954 38.6366 44.9367 38.2922C44.817 37.3964 44.5752 36.5006 44.2161 35.6747C44.0964 35.3304 43.7349 35.1932 43.4344 35.4003C43.134 35.5375 43.0143 35.9518 43.195 36.2961C43.4931 37.0521 43.6739 37.7408 43.7936 38.4994Z" fill="#172554"/>
<path d="M42.831 34.5034C43.0704 34.229 43.0704 33.8147 42.831 33.5403C42.2911 32.9216 41.6292 32.3701 40.9086 31.8886C40.6081 31.6814 40.2466 31.8186 40.1269 32.163C40.0072 32.5073 40.0659 32.9216 40.3663 33.0588C40.9672 33.4032 41.5071 33.8847 41.9883 34.4362C42.108 34.5734 42.2277 34.6433 42.4085 34.6433C42.5916 34.6406 42.7113 34.6406 42.831 34.5034Z" fill="#172554"/>
<path d="M45.0567 40.9094C45.0567 40.565 44.8173 40.2207 44.4558 40.2207C44.1553 40.2207 43.8549 40.4951 43.8549 40.9094V43.4569C43.8549 43.8013 44.0943 44.1456 44.4558 44.1456C44.7562 44.1456 45.0567 43.8712 45.0567 43.4569V40.9094Z" fill="#172554"/>
<path d="M38.6859 31.061C38.2658 30.9911 37.8456 30.9238 37.4231 30.9238C37.1226 30.9238 36.8221 31.1982 36.8221 31.6125C36.8221 32.0268 37.0616 32.3012 37.4231 32.3012C37.7845 32.3012 38.1437 32.3012 38.5052 32.3711H38.6249C38.9253 32.3711 39.1648 32.164 39.2258 31.8196C39.2258 31.4726 39.0474 31.1283 38.6859 31.061Z" fill="#172554"/>
<path d="M41.4513 48.0008C41.7517 48.0008 42.0522 47.7264 42.0522 47.3121V45.9348C42.0522 45.5904 41.8127 45.2461 41.4513 45.2461C41.0898 45.2461 40.8503 45.5205 40.8503 45.9348V47.3121C40.909 47.6565 41.1508 48.0008 41.4513 48.0008Z" fill="#172554"/>
<path d="M42.0522 41.0461C42.0522 40.7018 41.8127 40.3574 41.4513 40.3574C41.0898 40.3574 40.8503 40.6318 40.8503 41.0461V43.5264C40.8503 43.8708 41.0898 44.2151 41.4513 44.2151C41.8127 44.2151 42.0522 43.9407 42.0522 43.5264V41.0461Z" fill="#172554"/>
<path d="M41.39 39.3244H41.5097C41.8102 39.2545 42.0496 38.9102 41.9299 38.4986C41.7491 37.6027 41.39 36.7069 40.7891 36.0182C40.5497 35.7438 40.1882 35.7438 39.9488 35.9483C39.7094 36.2227 39.7094 36.637 39.8878 36.9113C40.3079 37.4628 40.6084 38.0815 40.7281 38.7702C40.8501 39.0473 41.0895 39.3244 41.39 39.3244Z" fill="#172554"/>
<path d="M38.7471 34.5704C38.327 34.4332 37.8458 34.3633 37.4256 34.3633C37.1252 34.3633 36.8247 34.6377 36.8247 35.052C36.8247 35.3963 37.0641 35.7406 37.4256 35.7406C37.7871 35.7406 38.0876 35.8106 38.388 35.8778H38.5688C38.8082 35.8778 39.05 35.6707 39.1087 35.3963C39.2871 35.0547 39.1063 34.6403 38.7471 34.5704Z" fill="#172554"/>
<path d="M35.0804 31.3347C35.0804 29.4058 34.7189 26.2396 33.2777 26.2396C31.7143 26.2396 30.3342 27.2026 29.4915 28.58L22.7619 27.2026L25.7664 22.2447C26.7875 20.8673 25.4049 17.9054 23.6022 15.4279L26.0669 12.6032C26.4283 12.1889 26.6067 11.7073 26.6067 11.1558C26.6067 10.6044 26.426 10.1228 26.0669 9.70851L25.3463 8.81537C24.6843 8.05672 23.5435 8.05672 22.8816 8.81537L20.3582 11.7073C18.6752 10.1228 16.6917 8.7454 15.3702 8.88258C14.5299 3.71749 11.7647 0 8.64056 0C7.25798 0 5.87541 0.688679 4.73464 1.99607C2.75115 4.26926 1.61038 7.98702 1.61038 12.0522C1.61038 14.3926 2.03055 16.6658 2.75115 18.5946L0.948418 20.0419C0.828704 20.1119 0.647962 20.2491 0.528248 20.3863C-0.312066 21.3493 -0.133715 23.141 0.948418 25.5514C1.91084 27.6874 3.59147 30.165 5.57495 32.4382C7.55844 34.7113 9.72028 36.6402 11.5841 37.7404C12.7859 38.4291 13.807 38.8434 14.6497 38.8434C15.2506 38.8434 15.7318 38.6363 16.0909 38.2247C16.2106 38.0875 16.2716 37.9503 16.3914 37.8104L18.9758 33.5411L29.4917 34.0227C30.2734 35.5372 31.7146 36.503 33.3366 36.503C34.6604 36.5003 35.0804 33.2635 35.0804 31.3347ZM23.6631 9.77835C23.7828 9.64115 23.9025 9.57121 24.0833 9.57121C24.264 9.57121 24.3837 9.64115 24.5034 9.77835L25.2851 10.6742C25.4048 10.8114 25.4658 10.9486 25.4658 11.1557C25.4658 11.3629 25.4048 11.5001 25.2851 11.6373L19.6375 18.1097C19.3981 18.3841 19.0366 18.3841 18.7972 18.1097L18.0155 17.2139C17.8958 17.0767 17.8348 16.9395 17.8348 16.7324C17.8348 16.5252 17.8958 16.388 18.0155 16.2508L23.6631 9.77835ZM5.51618 2.89156C6.41755 1.85854 7.49967 1.23983 8.58179 1.23983C11.2248 1.23983 13.5698 4.61325 14.2294 9.29668L13.0886 10.1925C12.8492 7.57499 12.0065 5.23458 10.746 3.85722C10.0254 3.03136 9.30481 2.68702 8.52314 2.68702C6.05845 2.68702 3.89661 7.02625 3.89661 11.9842C3.89661 13.7759 4.13604 15.4276 4.67827 16.9421L3.6572 17.768C3.05629 16.0463 2.69479 14.0502 2.69479 11.9842C2.69244 8.33364 3.77216 4.8901 5.51618 2.89156ZM11.9453 11.1557L5.69706 16.1836C5.33557 14.9434 5.09615 13.4989 5.09615 12.0515C5.09615 7.23079 7.13828 4.06148 8.52086 4.06148C8.94103 4.06148 9.42223 4.33588 9.90344 4.88735C11.0442 6.19742 11.8256 8.54086 11.9453 11.1557ZM15.37 36.9812L15.309 37.0511L15.1283 37.3255C14.8278 37.6698 13.8068 37.6698 12.0627 36.5669C10.2599 35.5338 8.2178 33.675 6.29296 31.4717C4.37052 29.2685 2.80719 26.9254 1.84718 24.8593C0.94581 22.8632 0.94581 21.6903 1.18521 21.346L15.0062 10.3271C15.0062 10.3271 15.0672 10.3271 15.0672 10.2571C15.4287 9.98275 16.9896 10.3943 19.3933 12.6675L17.0507 15.3523C16.6892 15.7665 16.5108 16.2481 16.5108 16.7996C16.5108 17.3511 16.6915 17.8326 17.0507 18.2469L17.8324 19.1428C18.1938 19.557 18.614 19.7615 19.0952 19.7615C19.5764 19.7615 19.9966 19.5544 20.3581 19.1428L22.7617 16.3907C24.7452 19.2154 25.1043 21.0743 24.8039 21.4186C24.8039 21.4186 24.8039 21.4886 24.7429 21.4886L15.37 36.9812ZM28.9518 32.6446L19.6966 32.2303L21.9805 28.4426L28.9523 29.8899C28.8326 30.3715 28.7716 30.853 28.7716 31.3346C28.7716 31.8162 28.8321 32.2304 28.9518 32.6446ZM29.9729 31.3345C29.9729 29.82 30.7546 28.5099 31.8367 27.9611C31.5362 28.9941 31.4165 30.3715 31.4165 31.3345C31.4165 32.2976 31.5362 33.675 31.8367 34.708C30.7546 34.1592 29.9729 32.8491 29.9729 31.3345ZM32.616 31.3345C32.616 29.1313 33.0361 27.8212 33.2169 27.6168C33.4563 27.8912 33.8788 29.2013 33.8788 31.3345C33.8788 33.4006 33.4587 34.708 33.2779 35.0523C33.0385 34.7107 32.616 33.4705 32.616 31.3345Z" fill="#172554"/>
</svg>
