<svg width="48" height="48" viewBox="0 0 48 48" fill="none" xmlns="http://www.w3.org/2000/svg">
<path d="M2.95326 48H36.6806C37.7922 48 38.745 47.2208 38.9979 46.1053L39.5708 43.5757C39.7372 42.8424 39.5722 42.0837 39.1182 41.4937C38.6836 40.9294 38.0426 40.5989 37.3481 40.571V19.5015C37.3481 19.489 37.3459 19.4771 37.3456 19.4647C37.734 19.5146 38.1263 19.5403 38.5203 19.5403C41.131 19.5403 43.6529 18.4128 45.4391 16.447C47.2508 14.4537 48.1527 11.8494 47.9788 9.1141C47.6676 4.21869 43.8495 0.308046 39.0976 0.0178752C36.4482 -0.143657 33.9382 0.793817 32.0187 2.65868C30.0982 4.52423 29.0406 7.04972 29.0406 9.77012C29.0406 11.6676 29.5662 13.4969 30.5633 15.0793L29.3437 17.5146H24.7666C24.7677 17.4699 24.773 17.4226 24.773 17.3788C24.773 14.5619 22.5503 12.2701 19.8184 12.2701C17.086 12.2701 14.8632 14.5619 14.8632 17.3788C14.8632 17.4226 14.8685 17.4699 14.8697 17.5146H4.21383C3.15083 17.5146 2.2858 18.4058 2.2858 19.5014V40.5709C1.59183 40.599 0.950669 40.9294 0.516487 41.4935C0.0621676 42.0831 -0.102823 42.842 0.0630225 43.5755L0.636454 46.1049C0.888833 47.2208 1.84164 48 2.95326 48ZM31.4681 14.7809C30.4773 13.3035 29.9539 11.571 29.9539 9.77021C29.9539 7.31179 30.9098 5.02968 32.6452 3.34378C34.2513 1.78337 36.3189 0.941252 38.5152 0.941252C38.6905 0.941252 38.8666 0.946539 39.0432 0.957308C43.3367 1.21968 46.786 4.75283 47.0673 9.17577C47.2247 11.6484 46.4096 14.0023 44.7728 15.8037C43.1346 17.6065 40.9141 18.5992 38.5202 18.5992C37.0055 18.5992 35.5181 18.1854 34.2192 17.4028C34.0837 17.3212 33.9178 17.3171 33.7795 17.3906L29.2404 19.773L31.4984 15.2643C31.5757 15.1098 31.5641 14.9239 31.4681 14.7809ZM19.8184 13.2113C22.047 13.2113 23.8599 15.0808 23.8599 17.3789C23.8599 19.6417 22.0103 23.2444 19.8184 23.2444C17.6265 23.2444 15.7765 19.6418 15.7765 17.3789C15.7765 15.0808 17.59 13.2113 19.8184 13.2113ZM4.21383 18.4558H14.9636C15.4146 21.037 17.3495 24.1855 19.8184 24.1855C22.287 24.1855 24.2219 21.037 24.6729 18.4558H28.8724L28.429 19.341C28.2404 19.7175 28.3064 20.1542 28.5967 20.4541C28.7773 20.6405 29.0096 20.7372 29.2468 20.7372C29.3913 20.7372 29.5379 20.7013 29.6762 20.628L33.9786 18.3438C34.7435 18.7764 35.5641 19.0915 36.4127 19.291C36.4268 19.3589 36.435 19.429 36.435 19.5013V40.5653H27.8579C26.9296 40.5653 26.1154 41.245 25.9223 42.1818C25.8188 42.686 25.3806 43.052 24.8806 43.052H14.7537C14.2534 43.052 13.8151 42.686 13.7117 42.1818C13.5191 41.2452 12.7053 40.5653 11.7761 40.5653H3.1989V19.5015C3.1989 18.925 3.65417 18.4558 4.21383 18.4558ZM1.23173 42.0786C1.51175 41.7151 1.92998 41.5067 2.38031 41.5067H11.7761C12.2764 41.5067 12.7146 41.8727 12.8181 42.3769C13.0107 43.3137 13.8244 43.9934 14.7537 43.9934H24.8806C25.8094 43.9934 26.6232 43.3137 26.8158 42.3771C26.9197 41.8727 27.358 41.5067 27.8578 41.5067H37.2539C37.7043 41.5067 38.123 41.7151 38.4025 42.0786C38.682 42.4421 38.7842 42.9098 38.6817 43.3615L38.1087 45.8911C37.9526 46.5786 37.3654 47.0588 36.6805 47.0588H2.95326C2.26841 47.0588 1.68111 46.5788 1.52553 45.8911L0.952093 43.3617C0.849983 42.9098 0.951714 42.4421 1.23173 42.0786Z" fill="#172554"/>
<path d="M36.1558 44.7537H36.5214C36.7738 44.7537 36.978 44.543 36.978 44.2831C36.978 44.0232 36.7738 43.8125 36.5214 43.8125H36.1558C35.9034 43.8125 35.6992 44.0232 35.6992 44.2831C35.6992 44.543 35.9035 44.7537 36.1558 44.7537Z" fill="#172554"/>
<path d="M33.7828 44.7537H34.1484C34.4008 44.7537 34.605 44.543 34.605 44.2831C34.605 44.0232 34.4008 43.8125 34.1484 43.8125H33.7828C33.5304 43.8125 33.3262 44.0232 33.3262 44.2831C33.3262 44.543 33.5304 44.7537 33.7828 44.7537Z" fill="#172554"/>
<path d="M31.4097 44.7537H31.7758C32.0282 44.7537 32.2324 44.543 32.2324 44.2831C32.2324 44.0232 32.0282 43.8125 31.7758 43.8125H31.4097C31.1573 43.8125 30.9531 44.0232 30.9531 44.2831C30.9531 44.543 31.1573 44.7537 31.4097 44.7537Z" fill="#172554"/>
<path d="M7.26519 36.6376H9.50981H30.125H32.3691C32.6215 36.6376 32.8257 36.4269 32.8257 36.167C32.8257 35.9071 32.6215 35.6964 32.3691 35.6964H30.5816V32.7022C30.5816 29.082 27.7239 26.1367 24.2112 26.1367H23.3288H16.3083H15.4232C11.911 26.1367 9.05321 29.082 9.05321 32.7022V35.6964H7.26519C7.01281 35.6964 6.80859 35.9071 6.80859 36.167C6.80859 36.4269 7.01281 36.6376 7.26519 36.6376ZM22.5899 27.0779L20.1625 32.079C20.0662 32.2774 19.8891 32.2989 19.8174 32.2989C19.7457 32.2989 19.5687 32.2773 19.4723 32.0788L17.0472 27.0778H22.5899V27.0779ZM9.96641 32.7022C9.96641 29.6009 12.4143 27.0779 15.4232 27.0779H16.026L18.6554 32.4995C18.8765 32.9563 19.322 33.2398 19.8173 33.2401C20.3127 33.2401 20.7577 32.9563 20.9793 32.5L23.6109 27.0779H24.2111C27.2204 27.0779 29.6684 29.6009 29.6684 32.7022V35.6964H9.96641V32.7022Z" fill="#172554"/>
<path d="M35.8609 9.05252H42.551C42.8033 9.05252 43.0076 8.84185 43.0076 8.58193C43.0076 8.32201 42.8033 8.11133 42.551 8.11133H35.8609C35.6085 8.11133 35.4043 8.32201 35.4043 8.58193C35.4043 8.84185 35.6086 9.05252 35.8609 9.05252Z" fill="#172554"/>
<path d="M35.8609 12.6248H38.6691C38.9214 12.6248 39.1257 12.4141 39.1257 12.1542C39.1257 11.8943 38.9214 11.6836 38.6691 11.6836H35.8609C35.6085 11.6836 35.4043 11.8943 35.4043 12.1542C35.4044 12.4141 35.6086 12.6248 35.8609 12.6248Z" fill="#172554"/>
<path d="M15.9267 8.60968C16.0436 8.60968 16.1604 8.56376 16.2496 8.47183C16.428 8.28798 16.428 7.99017 16.2496 7.80642C14.3287 5.82662 11.7711 4.73633 9.04715 4.73633C6.32371 4.73633 3.76563 5.82662 1.84473 7.80642C1.66634 7.99027 1.66634 8.28808 1.84473 8.47183C2.02311 8.65569 2.31206 8.65569 2.49035 8.47183C4.23914 6.66992 6.56754 5.67752 9.04715 5.67752C11.5271 5.67752 13.8556 6.66992 15.604 8.47183C15.6931 8.56366 15.8099 8.60968 15.9267 8.60968Z" fill="#172554"/>
<path d="M13.2069 11.4113C13.3238 11.4113 13.4406 11.3654 13.5298 11.2735C13.7082 11.0896 13.7082 10.7918 13.5298 10.6081C11.0578 8.06057 7.03549 8.06008 4.56348 10.6081C4.38509 10.7919 4.38509 11.0897 4.56348 11.2735C4.74186 11.4573 5.03081 11.4573 5.2091 11.2735C7.32568 9.09242 10.7685 9.0934 12.8842 11.2735C12.9733 11.3654 13.0901 11.4113 13.2069 11.4113Z" fill="#172554"/>
<path d="M7.28418 13.4103C7.10579 13.5942 7.10579 13.892 7.28418 14.0757C7.46256 14.2596 7.75151 14.2596 7.9298 14.0757C8.54693 13.4397 9.5497 13.4402 10.1668 14.0757C10.256 14.1677 10.3728 14.2136 10.4897 14.2136C10.6065 14.2136 10.7233 14.1677 10.8125 14.0757C10.9909 13.8919 10.9909 13.5941 10.8125 13.4103C9.83902 12.4073 8.25665 12.4077 7.28418 13.4103Z" fill="#172554"/>
</svg>
