<svg width="48" height="48" viewBox="0 0 48 48" fill="none" xmlns="http://www.w3.org/2000/svg">
<path d="M40.2302 21.3193C40.2302 21.3193 38.8355 20.4939 38.754 20.3962C38.9267 20.0553 45.2321 10.6343 45.2321 8.87426C45.2321 3.98102 39.7661 0 33.0477 0H14.9516C8.23319 0 2.76714 3.98867 2.76714 8.89065C2.76714 10.6353 9.15483 20.0362 9.35947 20.4126C9.27124 20.4852 8.52458 20.8588 8.35553 20.9561C2.96733 24.0571 0 28.6373 0 33.8529C0 36.4459 0.656935 41.2528 5.05529 44.3156C9.91038 47.6957 16.786 47.9847 23.9974 47.994L26.8683 48C33.3435 48 37.9562 47.7493 42.8565 44.3943C46.6038 41.8286 48 36.5666 48 33.8523C47.9993 28.6925 45.3129 24.3581 40.2302 21.3193ZM41.3417 43.1953C37.0271 46.1493 31.739 46.3564 24.0019 46.3564C17.2546 46.3564 10.8461 46.0936 6.58344 43.1253C2.64924 40.3859 2.22438 35.7287 2.22438 33.8534C2.22438 29.1535 4.88846 25.0321 9.72501 22.2479C9.85402 22.1736 11.595 21.3046 11.612 20.3885C11.6187 20.0176 4.99152 10.3874 4.99152 8.8912C4.99152 4.89215 9.45883 1.63927 14.9516 1.63927H33.0477C38.5397 1.63927 43.0077 4.88505 43.0077 8.87481C43.0077 10.3928 36.517 19.9679 36.5185 20.3295C36.5207 21.2265 37.1761 21.6143 38.3654 22.3178L38.8281 22.5926C43.4378 25.3484 45.7749 29.1377 45.7749 33.8545C45.7749 36.3962 44.3661 41.1239 41.3417 43.1953ZM9.14519 28.9143C8.58316 29.7932 8.21317 30.7278 8.0456 31.6919C8.00927 31.8984 7.77052 32.0492 7.49469 32.0492C7.47097 32.0492 7.44724 32.0481 7.42277 32.0459C7.11803 32.0169 6.90301 31.8115 6.94231 31.5876C7.12545 30.5388 7.52806 29.5222 8.13902 28.5658C8.26952 28.3615 8.59873 28.2724 8.879 28.3697C9.15631 28.4653 9.27643 28.71 9.14519 28.9143ZM8.90199 36.4836C9.01914 36.6928 8.88419 36.932 8.60021 37.0183C8.53126 37.0396 8.45934 37.0495 8.38816 37.0495C8.17017 37.0495 7.9633 36.9544 7.87432 36.7966C7.40424 35.9586 7.08837 35.0781 6.93563 34.1779C6.89708 33.9534 7.11358 33.7485 7.41832 33.7207C7.71787 33.6961 8.00111 33.8518 8.03893 34.0763C8.17906 34.9033 8.46972 35.7134 8.90199 36.4836ZM20.2397 43.0909C20.2397 43.3171 19.9905 43.5006 19.6836 43.5006C13.1595 43.5006 11.7092 42.4179 10.7823 41.3085C10.6214 41.1157 10.703 40.8633 10.964 40.7448C11.2265 40.6257 11.5683 40.6864 11.7292 40.8792C12.329 41.5969 13.2343 42.6812 19.6836 42.6812C19.9905 42.6812 20.2397 42.8648 20.2397 43.0909ZM36.9033 8.61917C36.7024 7.1973 35.0444 6.12557 33.0477 6.12557H14.9516C12.9385 6.12557 11.2791 7.19074 11.093 8.60333L11.0819 8.68526L11.1041 8.76611C11.3095 9.50244 12.8191 11.7399 13.7022 13.0077C15.7991 16.0224 16.2417 16.4496 16.542 16.5506C16.5872 16.5659 31.3127 16.5309 31.3127 16.5309C31.3268 16.526 31.3401 16.5206 31.3534 16.5151C32.2677 16.1387 36.7439 9.24571 36.887 8.80216L36.9166 8.71148L36.9033 8.61917ZM30.8263 15.2779H17.0388C15.9444 13.903 12.9622 9.62535 12.5833 8.62354C12.7509 7.81619 13.7474 7.21751 14.9516 7.21751H33.0477C34.2563 7.21751 35.2283 7.8069 35.4115 8.63337C35.0074 9.52265 31.9525 13.9243 30.8263 15.2779Z" fill="#172554"/>
</svg>
