<svg width="48" height="48" viewBox="0 0 48 48" fill="none" xmlns="http://www.w3.org/2000/svg">
<path d="M24.0015 48C23.8152 48 23.629 47.9186 23.4874 47.7576L3.83237 25.4004C2.58372 23.9797 1.61669 22.3233 0.958093 20.477C0.321847 18.6934 0 16.8098 0 14.8788C0 12.946 0.321847 11.0624 0.958093 9.28059C1.61669 7.4343 2.58372 5.7779 3.83237 4.35716C5.08251 2.93473 6.53976 1.83442 8.16241 1.08675C9.72844 0.364509 11.3824 0 13.081 0C14.7797 0 16.4351 0.366205 17.9996 1.08675C19.6238 1.83442 21.0795 2.93473 22.3297 4.35716L24 6.256L25.6703 4.35716C26.9205 2.93473 28.3777 1.83442 30.0004 1.08675C31.5664 0.364509 33.2203 0 34.919 0C36.6176 0 38.273 0.366205 39.8376 1.08675C41.4617 1.83442 42.9175 2.93473 44.1676 4.35716C45.4163 5.7779 46.3833 7.4343 47.0419 9.28059C47.6782 11.0641 48 12.9477 48 14.8788C48 16.8115 47.6782 18.6951 47.0419 20.477C46.3833 22.3233 45.4163 23.9797 44.1676 25.4004L24.5156 47.7576C24.374 47.9186 24.1877 48 24.0015 48ZM13.0825 1.6547C9.97728 1.6547 7.05681 3.02967 4.8605 5.52698C2.66418 8.02769 1.45427 11.3473 1.45427 14.8788C1.45427 18.4103 2.66418 21.7316 4.8605 24.2306L24.0015 46.0028L43.1425 24.2306C45.3388 21.7316 46.5487 18.4103 46.5487 14.8788C46.5487 11.3473 45.3388 8.026 43.1425 5.52698C40.9462 3.02967 38.0272 1.6547 34.9205 1.6547C31.8137 1.6547 28.8948 3.02967 26.6985 5.52698L24.5156 8.01243C24.231 8.33625 23.7705 8.33625 23.4874 8.01243L21.303 5.52868C19.1082 3.03136 16.1877 1.6547 13.0825 1.6547Z" fill="#172554"/>
<path d="M20.3642 33.1039C20.0707 33.1039 19.8055 32.9038 19.6922 32.5953L16.2413 23.174H11.6341C11.2318 23.174 10.907 22.8027 10.907 22.3466C10.907 21.8905 11.2333 21.5193 11.6341 21.5193H16.7256C17.0191 21.5193 17.2843 21.7193 17.3976 22.0279L20.3627 30.1251L26.9666 12.0946C27.0798 11.786 27.3451 11.5859 27.6386 11.5859C27.9321 11.5859 28.1974 11.786 28.3106 12.0946L31.7615 21.5159H36.3687C36.771 21.5159 37.0958 21.8872 37.0958 22.3432C37.0958 22.7993 36.7695 23.1706 36.3687 23.1706H31.2773C30.9837 23.1706 30.7185 22.9705 30.6052 22.6619L27.6401 14.5647L21.0362 32.5936C20.923 32.9021 20.6578 33.1039 20.3642 33.1039Z" fill="#172554"/>
</svg>
