<svg width="48" height="48" viewBox="0 0 48 48" fill="none" xmlns="http://www.w3.org/2000/svg">
<path d="M27.1294 21.8643C26.2321 22.7651 25.4712 24.0623 24.7076 25.0866C24.6783 25.1252 24.6506 25.1623 24.6203 25.2031C23.4544 23.8523 22.1889 22.1372 20.8318 20.9721C21.2623 20.1699 21.5352 19.2134 21.3353 18.2362C21.1867 17.5126 20.8041 17.0697 20.4034 16.579C19.7768 15.8104 19.1566 15.0339 18.5353 14.2567C17.5608 13.0367 16.0795 15.0453 17.0759 16.2133C17.6636 16.9012 18.2524 17.5855 18.8332 18.2827C19.0761 18.5748 19.374 18.7448 19.3026 19.2327C19.2637 19.5092 18.7959 20.082 18.6312 20.2485C17.9694 20.9164 17.5778 20.3921 16.9512 19.9242C16.3304 19.4627 15.7609 19.0798 15.066 18.867C14.8033 18.787 14.5876 19.1491 14.7197 19.4727C15.244 20.7571 16.1983 22.2715 17.1515 23.0258C18.1794 23.8394 19.1806 23.1172 19.9788 22.1936C20.4359 22.8808 20.9608 23.5058 21.4345 24.1458C22.092 25.0345 22.7516 25.9188 23.4171 26.7981C22.8672 27.5225 22.3147 28.2418 21.7584 28.959C21.0657 28.1732 20.3709 27.391 19.6617 26.6346C19.0671 26.001 18.2518 27.0124 18.8081 27.7803C19.1038 28.1889 19.4065 28.5897 19.7086 28.9897C17.475 31.267 13.6711 34.8357 15.1481 38.8103C17.1622 44.2306 21.4659 36.373 23.1289 33.4921C23.3287 33.7642 23.5306 34.0293 23.7278 34.3057C24.56 35.4679 25.9198 33.53 25.0172 32.5785C24.3954 31.9241 23.7874 31.2491 23.1832 30.5669C23.6606 29.8397 24.1354 29.1104 24.608 28.3768C25.9412 30.1726 27.2647 32.1077 28.747 33.6642C28.1188 36.1422 29.8937 38.9017 31.4853 40.0217C32.1407 40.4825 32.8424 39.3574 32.2915 38.621C31.675 37.7923 29.7152 35.2115 30.7569 33.9385C31.7123 32.772 33.2548 35.1358 33.826 35.9558C34.8379 37.4109 36.4193 34.965 35.1155 33.7135C33.7482 32.402 31.8028 30.4541 30.1601 31.5163C28.8707 29.6883 27.2882 28.0911 25.8021 26.5017C25.849 26.4288 25.8964 26.3567 25.9417 26.2824C26.5949 25.2445 27.4006 24.1716 27.9451 22.9665C28.1236 23.2172 28.3 23.4715 28.471 23.7323C28.7247 24.1158 29.2405 24.1951 29.5612 23.9216C30.1489 23.4151 30.4537 22.7429 30.799 21.9486C31.2247 20.9728 31.7261 20.1006 32.3074 19.2849C32.6197 18.847 32.706 17.9641 32.3074 17.5448C31.5407 16.7369 30.8587 15.7418 30.053 15.0118C29.2095 14.2496 28.2195 15.7489 28.6533 16.794C27.8466 17.4176 27.0574 18.4627 26.4719 19.0248C26.0472 19.432 25.8863 20.2442 26.3019 20.7857C26.579 21.1435 26.855 21.5028 27.1294 21.8643ZM19.2275 36.0308C18.9387 36.4951 18.5294 37.4023 18.1421 37.7345C15.9239 39.6374 16.5601 36.2708 17.1318 35.2886C18.2396 33.3799 19.3175 31.717 20.2596 29.7176C20.6443 30.224 21.0316 30.7276 21.4195 31.2312C21.4233 31.2341 21.4275 31.2384 21.4307 31.2441C21.5884 31.4477 21.7446 31.6541 21.9023 31.8591C21.022 33.2642 20.1029 34.6236 19.2275 36.0308ZM29.6859 18.0126C29.8937 18.2169 30.102 18.4198 30.3125 18.6191C30.1159 18.9463 29.9262 19.2799 29.7466 19.627C29.5447 20.0213 29.3502 20.6342 29.1136 21.1378C28.8153 20.7321 28.5051 20.3456 28.1865 19.9735C28.7039 19.3913 29.2889 18.722 29.6859 18.0126Z" fill="#172554" fill-opacity="0.8"/>
<path d="M40.6087 18.7722C42.6889 20.303 44.8357 21.6695 47.0395 22.6531C47.7151 22.9524 48.3604 21.6024 47.7652 20.9795C44.3615 17.4171 40.4537 14.7163 36.9114 11.3904C35.1376 9.72527 29.9468 4.29139 29.0644 3.3442C28.1655 2.37986 27.2586 1.03835 26.2335 0.339743C24.2359 -1.02105 21.8269 2.08913 20.2359 3.4392C18.7727 4.6807 17.3208 5.9522 15.8725 7.22727C15.9013 5.36431 15.9242 3.50278 15.9263 1.64053C15.9274 0.816912 15.3647 -0.0781383 14.7061 0.00543785C12.8482 0.241165 10.988 0.44832 9.12952 0.660475C8.53541 0.726907 7.88749 1.33266 7.94717 2.24342C8.1928 6.03721 8.39261 9.83385 8.53062 13.6348C6.00339 15.7778 3.44473 17.8486 0.816797 19.7716C-1.05078 21.1395 0.617518 24.9761 2.48723 23.5996C4.58606 22.0581 6.64279 20.423 8.67395 18.7329C8.70326 20.2144 8.72404 21.6967 8.7299 23.181C8.74375 26.5662 8.74269 29.9486 8.67661 33.3302C8.61321 36.7347 8.41926 40.1706 8.52529 43.5779C8.18268 43.6436 7.84166 43.705 7.50118 43.7772C5.53237 44.1915 3.37812 44.4594 1.49563 45.3409C0.798148 45.6687 0.935619 46.9581 1.66613 47.0388C3.57581 47.2452 5.57979 46.8574 7.49532 46.7695C9.42311 46.6831 11.3472 46.5102 13.2739 46.4138C17.033 46.2223 20.8012 46.1416 24.5625 46.1809C31.508 46.2552 38.4716 46.8159 45.3627 47.9781C47.6651 48.366 47.6714 43.4665 45.3627 43.1129C43.8697 42.8829 42.3751 42.6957 40.8784 42.5314C40.8389 40.8027 40.6919 39.0519 40.6434 37.3525C40.5746 34.8931 40.5363 32.4316 40.5283 29.9721C40.5198 27.6477 40.523 25.3254 40.5326 23.0039C40.5395 21.6231 40.621 20.188 40.6087 18.7722ZM13.4391 3.39706C13.3842 5.44932 13.3165 7.50158 13.2371 9.55312C12.4139 10.2796 11.5896 11.0025 10.7621 11.7204C10.6673 9.04595 10.541 6.37294 10.3934 3.69993C11.4079 3.59564 12.424 3.49564 13.4391 3.39706ZM38.5909 22.5946C38.4444 25.189 38.3533 27.7827 38.3117 30.3829C38.2531 34.2152 38.0288 38.3576 38.2771 42.2793C33.6185 41.8814 28.9493 41.7814 24.2732 41.9385C20.4954 42.0671 16.7336 42.3893 12.9734 42.8957C11.9871 43.0286 11.0014 43.1664 10.0178 43.3215C10.4025 40.262 10.5207 37.1282 10.6588 34.0424C10.8149 30.5364 10.9459 27.022 10.9614 23.5082C10.9721 21.2874 10.9502 19.0665 10.906 16.8471C11.9674 15.9356 13.0245 15.0127 14.0774 14.0819C15.8864 12.4797 24.1277 4.98429 25.0516 4.43997C25.8946 5.18002 37.7693 16.5864 38.9484 17.5114C38.6985 19.1729 38.6852 20.9459 38.5909 22.5946Z" fill="#172554" fill-opacity="0.8"/>
</svg>
