<svg width="48" height="48" viewBox="0 0 48 48" fill="none" xmlns="http://www.w3.org/2000/svg">
<path fill-rule="evenodd" clip-rule="evenodd" d="M1.16831 23.6942H46.834V1.0479H1.16831V23.6942ZM47.4183 24.7421H0.58639C0.261656 24.7421 0 24.5074 0 24.2181V0.523976C0 0.234742 0.261656 0 0.584051 0H47.4159C47.7383 0 48 0.234742 48 0.523976V24.216C48 24.5052 47.7383 24.74 47.4159 24.74L47.4183 24.7421Z" fill="#172554"/>
<path fill-rule="evenodd" clip-rule="evenodd" d="M4.42558 20.7708H43.5759V3.97031H4.42558V20.7708ZM44.1602 21.8188H3.84186C3.51947 21.8188 3.25781 21.584 3.25781 21.2948V3.44585C3.25781 3.15662 3.51947 2.92188 3.84186 2.92188H44.1602C44.4826 2.92188 44.7442 3.15662 44.7442 3.44585V21.2948C44.7442 21.584 44.4826 21.8188 44.1602 21.8188Z" fill="#172554"/>
<path fill-rule="evenodd" clip-rule="evenodd" d="M19.6173 8.13419V16.6101L27.7989 12.3722L19.6173 8.13419ZM19.0333 18.0416C18.9328 18.0416 18.83 18.0186 18.7412 17.9725C18.5614 17.8781 18.4492 17.7063 18.4492 17.5177V7.22658C18.4492 7.04004 18.5614 6.86608 18.7412 6.77386C18.9235 6.67955 19.1454 6.67955 19.3253 6.77386L29.2586 11.9193C29.4409 12.0136 29.5507 12.1855 29.5507 12.3741C29.5507 12.5606 29.4409 12.7346 29.2586 12.8268L19.3253 17.9722C19.2342 18.0184 19.1337 18.0416 19.0333 18.0416Z" fill="#172554"/>
<path fill-rule="evenodd" clip-rule="evenodd" d="M1.66386 44.3639H46.3391V37.9672L1.66386 37.9734L1.6662 44.3638L1.66386 44.3639ZM46.9234 45.4119H1.08015C0.757749 45.4119 0.496094 45.1771 0.496094 44.8879V37.9674C0.496094 37.3932 1.01707 36.9258 1.65719 36.9258H46.3468C46.9869 36.9258 47.5079 37.3932 47.5079 37.9674V44.8879C47.5079 45.1771 47.2458 45.4119 46.9234 45.4119Z" fill="#172554"/>
<path fill-rule="evenodd" clip-rule="evenodd" d="M7.47829 48.0015H3.63288C3.31048 48.0015 3.04883 47.7667 3.04883 47.4775V44.8912C3.04883 44.6019 3.31048 44.3672 3.63288 44.3672C3.95761 44.3672 4.21693 44.6019 4.21693 44.8912V46.9536H6.89425V44.8912C6.89425 44.6019 7.15591 44.3672 7.4783 44.3672C7.8007 44.3672 8.06236 44.6019 8.06236 44.8912V47.4775C8.06236 47.7667 7.80069 48.0015 7.47829 48.0015Z" fill="#172554"/>
<path fill-rule="evenodd" clip-rule="evenodd" d="M44.367 48.0015H40.5215C40.1992 48.0015 39.9375 47.7667 39.9375 47.4775V44.8912C39.9375 44.6019 40.1992 44.3672 40.5215 44.3672C40.8439 44.3672 41.1056 44.6019 41.1056 44.8912V46.9536H43.7829V44.8912C43.7829 44.6019 44.0446 44.3672 44.367 44.3672C44.6894 44.3672 44.951 44.6019 44.951 44.8912V47.4775C44.951 47.7667 44.6894 48.0015 44.367 48.0015Z" fill="#172554"/>
<path fill-rule="evenodd" clip-rule="evenodd" d="M13.1876 37.973C12.8652 37.973 12.6035 37.7383 12.6035 37.4491V27.5164H4.39857V37.4491C4.39857 37.7383 4.13692 37.973 3.81452 37.973C3.49212 37.973 3.23047 37.7383 3.23047 37.4491V26.9927C3.23047 26.7035 3.49212 26.4688 3.81452 26.4688H13.1875C13.5099 26.4688 13.7715 26.7035 13.7715 26.9927V37.4491C13.7715 37.7383 13.5099 37.973 13.1876 37.973Z" fill="#172554"/>
<path fill-rule="evenodd" clip-rule="evenodd" d="M8.50212 30.2667C7.29898 30.2667 6.32245 31.1449 6.32245 32.2222C6.32245 33.2995 7.30131 34.1777 8.50212 34.1777C9.70292 34.1777 10.6818 33.3016 10.6818 32.2222C10.6818 31.1428 9.70292 30.2667 8.50212 30.2667ZM8.50212 35.2257C6.65653 35.2257 5.1543 33.878 5.1543 32.2222C5.1543 30.5665 6.65647 29.2188 8.50212 29.2188C10.3477 29.2188 11.8499 30.5664 11.8499 32.2222C11.8499 33.878 10.3478 35.2257 8.50212 35.2257Z" fill="#172554"/>
<path fill-rule="evenodd" clip-rule="evenodd" d="M8.50158 31.8604C8.27964 31.8604 8.09974 32.0218 8.09974 32.2209C8.09974 32.4201 8.27963 32.5814 8.50158 32.5814C8.72351 32.5814 8.9034 32.4201 8.9034 32.2209C8.9034 32.0218 8.72351 31.8604 8.50158 31.8604ZM8.50158 33.6294C7.63485 33.6294 6.93164 32.9985 6.93164 32.2209C6.93164 31.4434 7.63718 30.8125 8.50158 30.8125C9.36597 30.8125 10.0715 31.4455 10.0715 32.2209C10.0715 32.9985 9.36597 33.6294 8.50158 33.6294Z" fill="#172554"/>
<path fill-rule="evenodd" clip-rule="evenodd" d="M5.92875 29.0167H5.37507C5.05267 29.0167 4.79102 28.782 4.79102 28.4927C4.79102 28.2035 5.05267 27.9688 5.37507 27.9688H5.92875C6.25114 27.9688 6.5128 28.2035 6.5128 28.4927C6.5128 28.782 6.25114 29.0167 5.92875 29.0167Z" fill="#172554"/>
<path fill-rule="evenodd" clip-rule="evenodd" d="M11.628 29.0167H11.0743C10.7519 29.0167 10.4902 28.782 10.4902 28.4927C10.4902 28.2035 10.7519 27.9688 11.0743 27.9688H11.628C11.9504 27.9688 12.212 28.2035 12.212 28.4927C12.212 28.782 11.9504 29.0167 11.628 29.0167Z" fill="#172554"/>
<path fill-rule="evenodd" clip-rule="evenodd" d="M5.92875 36.4776H5.37507C5.05267 36.4776 4.79102 36.2429 4.79102 35.9537C4.79102 35.6644 5.05267 35.4297 5.37507 35.4297H5.92875C6.25114 35.4297 6.5128 35.6644 6.5128 35.9537C6.5128 36.2429 6.25114 36.4776 5.92875 36.4776Z" fill="#172554"/>
<path fill-rule="evenodd" clip-rule="evenodd" d="M11.628 36.4776H11.0743C10.7519 36.4776 10.4902 36.2429 10.4902 35.9537C10.4902 35.6644 10.7519 35.4297 11.0743 35.4297H11.628C11.9504 35.4297 12.212 35.6644 12.212 35.9537C12.212 36.2429 11.9504 36.4776 11.628 36.4776Z" fill="#172554"/>
<path fill-rule="evenodd" clip-rule="evenodd" d="M44.1852 37.973C43.8628 37.973 43.6011 37.7383 43.6011 37.4491V27.5164H35.3986V37.4491C35.3986 37.7383 35.1369 37.973 34.8145 37.973C34.4921 37.973 34.2305 37.7383 34.2305 37.4491V26.9927C34.2305 26.7035 34.4921 26.4688 34.8145 26.4688H44.1851C44.5075 26.4688 44.7691 26.7035 44.7691 26.9927V37.4491C44.7691 37.7383 44.5076 37.973 44.1852 37.973Z" fill="#172554"/>
<path fill-rule="evenodd" clip-rule="evenodd" d="M39.4982 30.2667C38.2951 30.2667 37.3185 31.1449 37.3185 32.2222C37.3185 33.2995 38.2951 34.1777 39.4982 34.1777C40.7013 34.1777 41.6779 33.3016 41.6779 32.2222C41.6779 31.1428 40.7013 30.2667 39.4982 30.2667ZM39.4982 35.2257C37.6526 35.2257 36.1504 33.878 36.1504 32.2222C36.1504 30.5665 37.6526 29.2188 39.4982 29.2188C41.3438 29.2188 42.846 30.5664 42.846 32.2222C42.846 33.878 41.3439 35.2257 39.4982 35.2257Z" fill="#172554"/>
<path fill-rule="evenodd" clip-rule="evenodd" d="M39.4977 31.8604C39.2757 31.8604 39.0958 32.0218 39.0958 32.2209C39.0958 32.4201 39.2757 32.5814 39.4977 32.5814C39.7196 32.5814 39.8995 32.4201 39.8995 32.2209C39.8995 32.0218 39.7196 31.8604 39.4977 31.8604ZM39.4977 33.6294C38.6309 33.6294 37.9277 32.9985 37.9277 32.2209C37.9277 31.4434 38.6309 30.8125 39.4977 30.8125C40.3644 30.8125 41.0676 31.4455 41.0676 32.2209C41.0676 32.9985 40.3644 33.6294 39.4977 33.6294Z" fill="#172554"/>
<path fill-rule="evenodd" clip-rule="evenodd" d="M36.9287 29.0167H36.3751C36.0527 29.0167 35.791 28.782 35.791 28.4927C35.791 28.2035 36.0527 27.9688 36.3751 27.9688H36.9287C37.2511 27.9688 37.5128 28.2035 37.5128 28.4927C37.5128 28.782 37.2511 29.0167 36.9287 29.0167Z" fill="#172554"/>
<path fill-rule="evenodd" clip-rule="evenodd" d="M42.6241 29.0167H42.0704C41.748 29.0167 41.4863 28.782 41.4863 28.4927C41.4863 28.2035 41.748 27.9688 42.0704 27.9688H42.6241C42.9465 27.9688 43.2081 28.2035 43.2081 28.4927C43.2081 28.782 42.9465 29.0167 42.6241 29.0167Z" fill="#172554"/>
<path fill-rule="evenodd" clip-rule="evenodd" d="M36.9287 36.4776H36.3751C36.0527 36.4776 35.791 36.2429 35.791 35.9537C35.791 35.6644 36.0527 35.4297 36.3751 35.4297H36.9287C37.2511 35.4297 37.5128 35.6644 37.5128 35.9537C37.5128 36.2429 37.2511 36.4776 36.9287 36.4776Z" fill="#172554"/>
<path fill-rule="evenodd" clip-rule="evenodd" d="M42.6241 36.4776H42.0704C41.748 36.4776 41.4863 36.2429 41.4863 35.9537C41.4863 35.6644 41.748 35.4297 42.0704 35.4297H42.6241C42.9465 35.4297 43.2081 35.6644 43.2081 35.9537C43.2081 36.2429 42.9465 36.4776 42.6241 36.4776Z" fill="#172554"/>
<path fill-rule="evenodd" clip-rule="evenodd" d="M31.7509 37.9716C31.4262 37.9716 31.1669 37.7368 31.1669 37.4476V31.0047H16.8341V37.4476C16.8341 37.7368 16.5725 37.9716 16.2501 37.9716C15.9277 37.9716 15.666 37.7368 15.666 37.4476V30.481C15.666 30.1918 15.9277 29.957 16.2501 29.957H31.7509C32.0733 29.957 32.3349 30.1918 32.3349 30.481V37.4476C32.3349 37.7368 32.0733 37.9716 31.7509 37.9716Z" fill="#172554"/>
<path fill-rule="evenodd" clip-rule="evenodd" d="M31.7509 33.6222H16.2501C15.9277 33.6222 15.666 33.3874 15.666 33.0982C15.666 32.809 15.9277 32.5742 16.2501 32.5742H31.7509C32.0733 32.5742 32.3349 32.809 32.3349 33.0982C32.3349 33.3874 32.0733 33.6222 31.7509 33.6222Z" fill="#172554"/>
<path fill-rule="evenodd" clip-rule="evenodd" d="M23.7857 35.7979H22.7344C22.412 35.7979 22.1504 35.5632 22.1504 35.274C22.1504 34.9847 22.412 34.75 22.7344 34.75H23.7857C24.1081 34.75 24.3698 34.9847 24.3698 35.274C24.3698 35.5632 24.1081 35.7979 23.7857 35.7979Z" fill="#172554"/>
<path fill-rule="evenodd" clip-rule="evenodd" d="M26.8346 35.7979H25.7833C25.4609 35.7979 25.1992 35.5632 25.1992 35.274C25.1992 34.9847 25.4609 34.75 25.7833 34.75H26.8346C27.157 34.75 27.4186 34.9847 27.4186 35.274C27.4186 35.5632 27.157 35.7979 26.8346 35.7979Z" fill="#172554"/>
<path fill-rule="evenodd" clip-rule="evenodd" d="M29.8834 35.7979H28.8321C28.5097 35.7979 28.248 35.5632 28.248 35.274C28.248 34.9847 28.5097 34.75 28.8321 34.75H29.8834C30.2058 34.75 30.4674 34.9847 30.4674 35.274C30.4674 35.5632 30.2058 35.7979 29.8834 35.7979Z" fill="#172554"/>
</svg>
