<svg width="48" height="48" viewBox="0 0 48 48" fill="none" xmlns="http://www.w3.org/2000/svg">
<path d="M6.41367 42.9086H0.599995C0.390229 42.9086 0.195991 43.0182 0.0870065 43.1975C-0.0216849 43.3768 -0.0290091 43.5994 0.0676706 43.7857C1.4206 46.3855 4.07695 48.0004 6.99961 48.0004C10.1174 48.0004 12.9483 46.116 14.1735 43.2701H33.8265C35.0517 46.116 37.8826 48.0004 41.0004 48.0004C43.9231 48.0004 46.5794 46.3855 47.9323 43.7857C48.029 43.5994 48.0217 43.3768 47.913 43.1975C47.804 43.0182 47.6098 42.9086 47.4 42.9086H41.5863C40.7783 42.9086 40.1209 42.2518 40.1209 41.4438V38.9277C40.1209 38.1197 40.7783 37.4629 41.5863 37.4629H47.4C47.6098 37.4629 47.804 37.3533 47.913 37.174C48.0217 36.9947 48.029 36.7721 47.9323 36.5857C46.5794 33.9859 43.9231 32.3711 41.0004 32.3711C37.9462 32.3711 35.2128 34.1225 33.9278 36.8658H14.0722C12.7872 34.1225 10.0538 32.3711 6.99961 32.3711C4.07695 32.3711 1.4206 33.9859 0.0676706 36.5857C-0.0290091 36.7721 -0.0216849 36.9947 0.0870065 37.174C0.195991 37.3533 0.390229 37.4629 0.599995 37.4629H6.41367C7.22168 37.4629 7.8791 38.1197 7.8791 38.9277V41.4438C7.8791 42.2518 7.22168 42.9086 6.41367 42.9086ZM6.41367 36.2629H1.67783C2.91416 34.5813 4.87353 33.5711 6.99961 33.5711C9.70019 33.5711 12.1043 35.1889 13.1241 37.692C13.2164 37.9182 13.4358 38.0658 13.6799 38.0658H34.3201C34.5642 38.0658 34.7836 37.9182 34.8759 37.692C35.8957 35.1889 38.2998 33.5711 41.0004 33.5711C43.1265 33.5711 45.0858 34.5813 46.3222 36.2629H41.5863C40.1165 36.2629 38.9209 37.4582 38.9209 38.9277V41.4438C38.9209 42.9133 40.1165 44.1086 41.5863 44.1086H46.3222C45.0858 45.7902 43.1265 46.8004 41.0004 46.8004C38.2424 46.8004 35.7489 45.0572 34.7962 42.4633C34.7095 42.2271 34.4848 42.0701 34.2331 42.0701H13.7669C13.5152 42.0701 13.2905 42.2271 13.2038 42.4633C12.2511 45.0572 9.75761 46.8004 6.99961 46.8004C4.87353 46.8004 2.91416 45.7902 1.67783 44.1086H6.41367C7.88349 44.1086 9.0791 42.9133 9.0791 41.4438V38.9277C9.0791 37.4582 7.88349 36.2629 6.41367 36.2629Z" fill="#172554"/>
<path d="M8.45634 29.8887H39.8403C40.8306 29.8887 41.7373 29.3115 42.2658 28.3441C42.925 27.1383 42.8781 25.6219 42.1466 24.4816L27.6672 1.92246C26.8943 0.71836 25.5789 0 24.1486 0C22.7181 0 21.4026 0.71836 20.6298 1.92246L6.15038 24.4816C5.41884 25.6219 5.37196 27.1383 6.03114 28.3447C6.55937 29.3115 7.46611 29.8887 8.45634 29.8887ZM7.16054 25.1297L21.6399 2.57051C22.1907 1.71211 23.1285 1.2 24.1486 1.2C25.1685 1.2 26.1062 1.71211 26.657 2.57051L41.1364 25.1297C41.703 26.0127 41.5832 27.0914 41.2129 27.7688C40.8936 28.3535 40.3932 28.6887 39.8403 28.6887H8.45634C7.9038 28.6887 7.40341 28.3535 7.08407 27.7688C6.71376 27.0914 6.59394 26.0127 7.16054 25.1297Z" fill="#172554"/>
<path d="M21.9589 17.0574H26.3385C26.6698 17.0574 26.9385 16.7891 26.9385 16.4574V8.58828C26.9385 8.25664 26.6698 7.98828 26.3385 7.98828H21.9589C21.6275 7.98828 21.3589 8.25664 21.3589 8.58828V16.4574C21.3589 16.7891 21.6275 17.0574 21.9589 17.0574ZM22.5589 9.18828H25.7385V15.8574H22.5589V9.18828Z" fill="#172554"/>
<path d="M24.1496 25.6879C26.0223 25.6879 27.546 24.1639 27.546 22.2912C27.546 20.4186 26.0223 18.8945 24.1496 18.8945C22.2767 18.8945 20.7529 20.4186 20.7529 22.2912C20.7529 24.1639 22.2767 25.6879 24.1496 25.6879ZM24.1496 20.0945C25.3607 20.0945 26.346 21.0801 26.346 22.2912C26.346 23.5023 25.3607 24.4879 24.1496 24.4879C22.9385 24.4879 21.9529 23.5023 21.9529 22.2912C21.9529 21.0801 22.9385 20.0945 24.1496 20.0945Z" fill="#172554"/>
</svg>
