<svg width="48" height="48" viewBox="0 0 48 48" fill="none" xmlns="http://www.w3.org/2000/svg">
<path d="M47.1431 40H32.572C32.0984 40 31.7148 40.5114 31.7148 41.1429C31.7148 41.7743 32.0984 42.2857 32.572 42.2857H47.1431C47.6166 42.2857 48.0002 41.7743 48.0002 41.1429C48.0002 40.5114 47.6166 40 47.1431 40Z" fill="#172554"/>
<path d="M23.9999 29.7137C20.2199 29.7137 17.1428 33.8166 17.1428 38.8566C17.1428 39.2452 17.1642 39.6252 17.1985 39.9994H11.9999C11.5285 39.9994 11.1428 39.4852 11.1428 38.8566V34.2851H13.9071C14.5649 34.2851 15.1842 33.9423 15.6492 33.3223L16.892 31.6651C17.2263 31.2194 17.2263 30.4937 16.892 30.048C16.5577 29.6024 16.0134 29.6023 15.6792 30.048L14.4364 31.7051C14.2949 31.8937 14.1064 31.9966 13.9049 31.9966H11.1407V31.4709C11.1407 30.9509 11.4042 30.4994 11.7792 30.3652L24.2164 25.9994C24.6728 25.8394 24.9471 25.2137 24.8271 24.6051C24.7071 23.9966 24.2378 23.6309 23.7814 23.7908L18.6814 25.5794C18.33 24.8337 16.9286 21.9308 15.2914 19.3194C16.8364 18.8765 18 17.0393 18 14.8507C18 12.3307 16.4614 10.2793 14.5715 10.2793C12.6793 10.2793 11.16 12.3079 11.1429 14.8107C9.51003 14.3136 7.59432 15.7079 6.24435 17.005C3.22723 19.9022 0 25.2395 0 28.5682C0 31.894 0.732832 36.9424 0.857138 37.7909V46.8197C0.857138 47.4511 1.24071 47.9625 1.71428 47.9625H5.99997C6.3471 47.9625 6.65995 47.6825 6.79281 47.2568C6.92567 46.8283 6.85281 46.3368 6.60852 46.0111L5.19854 44.1311L5.99566 36.6968C5.99995 36.6426 6.00424 36.5883 6.00424 36.5368V30.1025L10.4699 23.1882L14.1363 26.1196C14.5435 26.4454 15.0684 26.2682 15.3127 25.7282C15.557 25.1853 15.4242 24.4854 15.0192 24.1597L10.7335 20.7311C10.3756 20.4453 9.91489 20.5425 9.64275 20.9653L4.49992 28.9314C4.36706 29.1371 4.29206 29.4028 4.29206 29.6771V36.4542L3.44348 44.3742C3.40491 44.7313 3.49491 45.0885 3.68562 45.3456L3.93634 45.6799H2.57775V37.6795C2.57775 37.6052 2.57347 37.528 2.56061 37.4538C2.55204 37.3966 1.72064 31.8423 1.72064 28.5705C1.72064 26.3563 4.46134 21.5476 7.2535 18.8622C8.7642 17.4108 10.1206 16.7451 10.8792 17.0822C12.4306 17.7708 15.2806 22.7679 16.9475 26.1966L11.3526 28.1595C10.2233 28.5537 9.43691 29.9194 9.43691 31.4737V38.8568C9.43691 40.7482 10.5898 42.2854 12.0083 42.2854H17.6525C18.6726 45.6339 21.1368 47.9997 24.0083 47.9997C27.7882 47.9997 30.8654 43.8968 30.8654 38.8568C30.8654 33.8139 27.7882 29.7139 24.0083 29.7139L23.9999 29.7137ZM14.5711 12.5704C15.5161 12.5704 16.2853 13.5961 16.2853 14.8561C16.2853 16.1161 15.5161 17.1418 14.5711 17.1418C13.626 17.1418 12.8568 16.1161 12.8568 14.8561C12.8568 13.5961 13.626 12.5704 14.5711 12.5704ZM23.9999 45.713C21.1627 45.713 18.857 42.6387 18.857 38.8558C18.857 35.073 21.1627 31.9987 23.9999 31.9987C26.837 31.9987 29.1427 35.073 29.1427 38.8558C29.1427 42.6387 26.837 45.713 23.9999 45.713Z" fill="#172554"/>
<path d="M23.9998 34.2852C22.1099 34.2852 20.5713 36.3366 20.5713 38.8566C20.5713 41.3766 22.1099 43.4281 23.9998 43.4281C25.892 43.4281 27.4284 41.3766 27.4284 38.8566C27.4284 36.3366 25.8898 34.2852 23.9998 34.2852ZM23.9998 41.1423C23.0548 41.1423 22.2856 40.1166 22.2856 38.8566C22.2856 37.5966 23.0548 36.5709 23.9998 36.5709C24.9449 36.5709 25.7141 37.5966 25.7141 38.8566C25.7141 40.1166 24.9449 41.1423 23.9998 41.1423Z" fill="#172554"/>
<path d="M21.5441 8.62533L25.7655 24.3855C25.8705 24.7769 26.1255 25.0626 26.4341 25.1283C26.4812 25.1398 26.5262 25.1426 26.5712 25.1426C26.8326 25.1426 27.0812 24.9826 27.2441 24.7055L34.7419 11.98C35.8048 10.1743 37.4034 9.14002 39.1219 9.14002H47.1403C47.6139 9.14002 47.9975 8.62859 47.9975 7.99716C47.9975 7.36572 47.6139 6.85429 47.1403 6.85429H39.1219C36.8719 6.85429 34.7848 8.20861 33.3921 10.5686L26.8521 21.6659L23.0871 7.61432C23.0442 7.45432 22.9757 7.31147 22.8857 7.19147L17.7428 0.33429C17.4086 -0.11143 16.8643 -0.11143 16.53 0.33429C16.1957 0.78001 16.1957 1.50575 16.53 1.95141L21.5357 8.62573L21.5441 8.62533Z" fill="#172554"/>
<path d="M39.1238 13.7154H47.1422C47.6158 13.7154 47.9993 13.204 47.9993 12.5726C47.9993 11.9411 47.6158 11.4297 47.1422 11.4297H39.1238C37.9323 11.4297 36.8266 12.144 36.0895 13.3954L30.9296 22.1528C30.7282 22.4957 30.6896 22.9643 30.8332 23.3585C30.9767 23.7528 31.2746 24.0014 31.6046 24.0014H47.1422C47.6158 24.0014 47.9993 23.49 47.9993 22.8585C47.9993 22.2271 47.6158 21.7157 47.1422 21.7157H37.7134V19.43C37.7134 18.7985 37.3299 18.2871 36.8563 18.2871H35.3884L37.4391 14.8071C37.8484 14.1128 38.4638 13.7154 39.1238 13.7154ZM34.2852 20.5726H35.9995V21.7155H33.3681L34.0645 20.5326C34.1352 20.5554 34.2081 20.5726 34.2852 20.5726Z" fill="#172554"/>
</svg>
