<svg width="48" height="48" viewBox="0 0 48 48" fill="none" xmlns="http://www.w3.org/2000/svg">
<path d="M36.8 38.3965C35.47 38.3965 34.4 39.4664 34.4 40.7964C34.4 42.1263 35.47 43.1963 36.8 43.1963C38.13 43.1963 39.2 42.1263 39.2 40.7964C39.2 39.4764 38.12 38.3965 36.8 38.3965ZM36.8 41.5963C36.36 41.5963 36 41.2363 36 40.7964C36 40.3564 36.36 39.9964 36.8 39.9964C37.24 39.9964 37.6 40.3564 37.6 40.7964C37.6 41.2363 37.24 41.5963 36.8 41.5963Z" fill="#172554"/>
<path d="M10.4 38.3965C9.07 38.3965 8 39.4664 8 40.7964C8 42.1263 9.07 43.1963 10.4 43.1963C11.73 43.1963 12.8 42.1263 12.8 40.7964C12.8 39.4764 11.72 38.3965 10.4 38.3965ZM10.4 41.5963C9.96 41.5963 9.6 41.2363 9.6 40.7964C9.6 40.3564 9.96 39.9964 10.4 39.9964C10.84 39.9964 11.2 40.3564 11.2 40.7964C11.2 41.2363 10.84 41.5963 10.4 41.5963Z" fill="#172554"/>
<path d="M11.2 25.5957H8V27.1956H11.2V25.5957Z" fill="#172554"/>
<path d="M11.2 23.1964V13.5968C11.2 13.1569 10.84 12.7969 10.4 12.7969H8.79995C5.70995 12.7969 3.19995 15.3068 3.19995 18.3966V23.1964C3.19995 23.6364 3.55995 23.9963 3.99995 23.9963H10.4C10.84 23.9963 11.2 23.6364 11.2 23.1964ZM9.59995 22.3964H4.79995V18.3966C4.79995 16.1867 6.58995 14.3968 8.79995 14.3968H9.59995V22.3964Z" fill="#172554"/>
<path d="M47.67 11.357L32.47 0.157492C32.19 -0.0524975 31.8 -0.0524975 31.52 0.157492L16.32 11.357C16.12 11.5069 15.99 11.7469 15.99 11.9969V36.2758C15.53 35.7058 14.99 35.2158 14.39 34.8158V3.99731C14.39 3.55733 14.03 3.19735 13.59 3.19735H11.99C7.28 3.20735 3.41 6.90717 3.2 11.6069C1.18 13.2769 0 15.7667 0 18.3966V40.7955C0 41.2355 0.36 41.5955 0.8 41.5955H3.25C3.69 45.5453 7.25 48.3952 11.2 47.9552C14.54 47.5852 17.18 44.9453 17.56 41.5955H29.65C30.09 45.5453 33.65 48.3952 37.6 47.9552C40.94 47.5852 43.58 44.9453 43.96 41.5955H47.2C47.64 41.5955 48 41.2355 48 40.7955V11.9969C48 11.7469 47.88 11.5069 47.67 11.357ZM12 4.79727H12.8V9.59704H8.8C7.47 9.59704 6.16 9.89702 4.96 10.477C5.68 7.16715 8.61 4.79727 12 4.79727ZM1.6 30.396H3.2V33.5959H1.6V30.396ZM1.6 39.9956V35.1958H4C4.44 35.1958 4.8 34.8358 4.8 34.3958V29.5961C4.8 29.1561 4.44 28.7961 4 28.7961H1.6V18.3966C1.6 14.4268 4.83 11.197 8.8 11.197H12.8V34.0059C9.05 32.6759 4.94 34.6358 3.61 38.3857C3.43 38.9056 3.3 39.4456 3.24 39.9956H1.6ZM10.4 46.3953C7.31 46.3953 4.8 43.8854 4.8 40.7955C4.8 37.7057 7.31 35.1958 10.4 35.1958C13.49 35.1958 16 37.7057 16 40.7955C16 43.8854 13.49 46.3953 10.4 46.3953ZM29.65 39.9956H17.6V38.3957H30.01C29.83 38.9156 29.71 39.4456 29.65 39.9956ZM26.4 36.7957V15.9967H37.6V33.6459C34.93 33.3459 32.31 34.5658 30.82 36.7957H26.4ZM36.8 46.3953C33.71 46.3953 31.2 43.8854 31.2 40.7955C31.2 37.7057 33.71 35.1958 36.8 35.1958C39.89 35.1958 42.4 37.7057 42.4 40.7955C42.4 43.8854 39.89 46.3953 36.8 46.3953ZM46.4 39.9956H43.95C43.89 39.4456 43.77 38.9156 43.58 38.3957H46.4V39.9956ZM46.4 36.7957H42.78C41.92 35.5058 40.66 34.5258 39.2 34.0059V15.1968C39.2 14.7568 38.84 14.3968 38.4 14.3968H25.6C25.16 14.3968 24.8 14.7568 24.8 15.1968V36.7957H17.6V12.3969L32 1.78741L46.4 12.3969V36.7957Z" fill="#172554"/>
<path d="M36 23.9961H34.4V27.1959H36V23.9961Z" fill="#172554"/>
<path d="M31.59 5.70624L27.59 8.10613C27.35 8.24612 27.2 8.51611 27.2 8.7961V11.9959C27.2 12.4359 27.56 12.7959 28 12.7959H36C36.44 12.7959 36.8 12.4359 36.8 11.9959V8.7961C36.8 8.51611 36.65 8.25612 36.41 8.10613L32.41 5.70624C32.16 5.55625 31.84 5.55625 31.59 5.70624ZM35.2 9.24607V11.196H28.8V9.24607L32 7.32617L35.2 9.24607Z" fill="#172554"/>
</svg>
