<svg width="48" height="48" viewBox="0 0 48 48" fill="none" xmlns="http://www.w3.org/2000/svg">
<path d="M47.2187 16.129L42.8015 13.0397V5.32891H43.7176C43.9899 5.32891 44.2099 5.1168 44.2099 4.85545V1.46879C44.2099 1.20744 43.9899 0.995332 43.7176 0.995332H34.5629C34.2906 0.995332 34.0706 1.20744 34.0706 1.46879V4.85545C34.0706 5.1168 34.2906 5.32891 34.5629 5.32891H35.479V7.9178L24.2887 0.0905493C24.1164 -0.0301831 23.8821 -0.0301831 23.7098 0.0905493L0.782219 16.1281C0.292409 16.468 0 17.0215 0 17.6091C0 18.0034 0.126514 18.3756 0.362312 18.6805C0.719209 19.1511 1.29418 19.4319 1.89967 19.4319C2.30334 19.4319 2.68928 19.3111 3.01467 19.0825L5.54937 17.3094V44.3435H3.22438C2.56473 44.3435 2.02816 44.8595 2.02816 45.4944V46.849C2.02816 47.4835 2.56473 48 3.22438 48H44.774C45.4337 48 45.9703 47.4839 45.9703 46.849V45.4944C45.9703 44.86 45.4337 44.3435 44.774 44.3435H42.4491V17.3094L44.9803 19.0796C45.3008 19.3093 45.6877 19.4309 46.0983 19.4309C46.7092 19.4309 47.2851 19.1497 47.6361 18.6814C48.2534 17.869 48.0664 16.7246 47.2187 16.129ZM35.0551 1.94225H43.2259V4.38199H42.3097H35.9713H35.0551V1.94225ZM41.817 5.32891V12.3513L36.4635 8.60384V5.32891H41.817ZM44.9862 45.4944V46.849C44.9862 46.9612 44.8917 47.0531 44.7745 47.0531H3.22487C3.1082 47.0531 3.01319 46.9617 3.01319 46.849V45.4944C3.01319 45.3822 3.10771 45.2904 3.22487 45.2904H6.04214H9.21138H18.3666H41.9583H44.7755C44.8912 45.2904 44.9862 45.3822 44.9862 45.4944ZM11.6255 31.0667C11.6801 31.2542 11.7791 31.427 11.9258 31.5686L15.1595 34.6787C15.3904 34.9008 15.6936 35.0172 16.0033 35.0172C16.1652 35.0172 16.3291 34.9855 16.4852 34.9197L17.8729 34.3355V44.3435H9.70316V31.0667H11.6255ZM32.3801 31.8929L32.3806 31.8924L33.7742 30.5516L40.1487 36.6824C40.5213 37.0408 40.7261 37.5171 40.7261 38.0237C40.7261 38.5303 40.5213 39.0066 40.1487 39.365C39.776 39.7234 39.2808 39.9209 38.7541 39.9209C38.2273 39.9209 37.7321 39.7234 37.3595 39.3655L30.985 33.2347L32.3792 31.8934C32.3796 31.8929 32.3801 31.8929 32.3801 31.8929ZM29.9409 32.8999C29.7485 33.0851 29.7485 33.3843 29.9409 33.5694L36.6634 40.035C37.2221 40.5719 37.9645 40.8678 38.7541 40.8678C39.5437 40.8678 40.286 40.5719 40.8447 40.0345C41.1116 39.7779 41.3188 39.4806 41.465 39.1577V44.343H18.8584V33.9212L29.1134 29.6046C29.1912 29.5706 29.2877 29.5881 29.3492 29.6468L31.3365 31.5581L29.9409 32.8999ZM41.4655 36.8898C41.3193 36.5669 41.112 36.2691 40.8452 36.0129L34.1228 29.5474C33.9382 29.3698 33.6113 29.3698 33.4267 29.5474L32.0326 30.8887L30.0453 28.9773C29.7007 28.6459 29.1695 28.5488 28.7191 28.7368L18.8589 32.8876V31.6907C18.8589 31.4294 18.6389 31.2173 18.3666 31.2173C18.0944 31.2173 17.8744 31.4294 17.8744 31.6907V33.3019L16.0919 34.0523C16.0121 34.085 15.9181 34.068 15.857 34.0092L12.7971 31.0667H13.789C14.0612 31.0667 14.2813 30.8546 14.2813 30.5932C14.2813 30.3319 14.0612 30.1198 13.789 30.1198H13.1328L13.7683 29.5081L15.162 30.8489C15.3874 31.0657 15.6877 31.1846 16.0082 31.1846C16.3286 31.1846 16.6289 31.0653 16.8544 30.8484L22.482 25.4358L23.2195 26.1451C23.6458 26.5556 24.2124 26.7814 24.8139 26.7814C25.4928 26.7814 26.1303 26.4893 26.5625 25.9808C27.2841 25.1333 27.1842 23.8303 26.336 23.0146L26.2115 22.8943C26.0013 22.6921 25.8984 22.4071 25.9215 22.1278L26.7353 21.3451C26.7638 21.3437 26.7909 21.3418 26.8244 21.3418C27.0597 21.3418 27.2822 21.4318 27.4515 21.5956L29.9414 23.9899C30.2993 24.3346 30.7763 24.5239 31.2848 24.5239C31.908 24.5239 32.4737 24.2427 32.8345 23.7555C33.3696 23.0425 33.2559 22.007 32.5701 21.3475L29.6515 18.5404L31.2957 16.959C31.7604 16.5106 31.7604 15.781 31.2952 15.3322L27.8089 11.9796C27.358 11.5459 26.5679 11.5459 26.1165 11.9796L23.565 14.4345C23.247 14.5429 22.9561 14.7129 22.7203 14.9397L16.7451 20.687C16.5078 20.9152 16.3296 21.1974 16.2198 21.499L11.6767 25.8686C11.4512 26.0854 11.3272 26.3742 11.3272 26.6825C11.3272 26.9902 11.4512 27.2795 11.6767 27.4959L13.0723 28.8381L11.9268 29.9403C11.8692 29.9957 11.8185 30.0559 11.7746 30.1193H9.21138C8.93916 30.1193 8.71911 30.3314 8.71911 30.5928V44.343H6.53441V16.6209L23.9997 4.40472L41.4655 16.6209V36.8898ZM16.1874 22.8687C16.1933 22.8867 16.2051 22.9033 16.2115 22.9213C16.245 23.0136 16.2883 23.1026 16.3355 23.1912C16.3572 23.2323 16.3744 23.275 16.3995 23.3157C16.4768 23.443 16.5664 23.5657 16.6722 23.6807L16.7358 23.7408C17.1453 24.1352 17.7031 24.3521 18.3051 24.3521C18.9411 24.3521 19.5629 24.1054 20.0103 23.6746C20.1817 23.5098 20.4785 23.5103 20.6498 23.6741L21.7855 24.7664L16.1573 30.1794C16.0505 30.2822 15.9639 30.2817 15.8575 30.1794L12.3723 26.8264C12.3191 26.7752 12.3112 26.7142 12.3112 26.6825C12.3112 26.6507 12.3191 26.5897 12.3723 26.538L16.1874 22.8687ZM24.9882 14.4047L26.8125 12.6496C26.9194 12.5468 27.006 12.5468 27.1123 12.6496L30.5981 16.0017C30.6793 16.0803 30.6793 16.2123 30.5986 16.2905L28.9549 17.8714L25.9068 14.9397C25.8369 14.8729 25.7635 14.8119 25.6872 14.755C25.6734 14.7451 25.6587 14.7366 25.6449 14.7271C25.5784 14.6802 25.511 14.6367 25.4401 14.5974C25.4298 14.5917 25.4194 14.587 25.4091 14.5818C25.3333 14.541 25.255 14.5046 25.1753 14.4729C25.1659 14.4695 25.1575 14.4667 25.1482 14.4629C25.0955 14.4426 25.0428 14.4212 24.9882 14.4047ZM23.4164 15.6092C23.5675 15.4638 23.7585 15.3568 23.9672 15.2995C24.4078 15.1821 24.8897 15.3005 25.2102 15.6087L28.6059 18.8751C28.6064 18.8756 28.6069 18.8756 28.6074 18.876L31.8731 22.017C32.2211 22.3517 32.291 22.8607 32.0336 23.2035C31.7146 23.6348 31.018 23.6883 30.6365 23.3209L28.1466 20.9266C27.7912 20.5838 27.3211 20.3949 26.7993 20.3949C26.6747 20.3949 26.5487 20.4063 26.4025 20.4295C25.9727 20.5208 25.605 20.7367 25.3416 21.0511C25.1501 21.2741 25.0202 21.5416 24.9685 21.8063C24.9675 21.8096 24.9675 21.8129 24.967 21.8162C24.966 21.8191 24.9651 21.8219 24.9646 21.8247C24.9641 21.8266 24.9646 21.8285 24.9646 21.8304C24.8277 22.4426 25.0359 23.1045 25.5129 23.5633L25.6375 23.6836C26.1327 24.1599 26.2036 24.906 25.7985 25.3814C25.3367 25.9249 24.426 25.968 23.9136 25.4756L21.3444 23.0041C21.0727 22.7433 20.7123 22.5998 20.3288 22.5998C19.9459 22.5998 19.5845 22.7433 19.3133 23.0046C18.8107 23.488 17.9044 23.5273 17.4289 23.0695L17.387 23.0311C17.1803 22.8053 17.0666 22.5165 17.0666 22.2187C17.0666 22.1065 17.0823 22.0051 17.1128 21.9085C17.1148 21.9019 17.1158 21.8958 17.1178 21.8891C17.1788 21.6855 17.2905 21.5009 17.4407 21.356L23.4164 15.6092ZM46.8396 18.1251C46.5571 18.5025 45.9525 18.5953 45.5646 18.3169L42.261 16.0064C42.2556 16.0026 42.2517 15.9974 42.2467 15.9936L24.2887 3.43649C24.1164 3.31529 23.8821 3.31576 23.7098 3.43649L5.75318 15.9936C5.74776 15.9974 5.74382 16.0026 5.7389 16.0064L2.43477 18.3174C2.04145 18.5934 1.44629 18.502 1.15536 18.119C1.04362 17.9746 0.984543 17.7984 0.984543 17.6091C0.984543 17.3207 1.12041 17.0608 1.35965 16.8946L23.9992 1.0583L40.7931 12.8049L42.0193 13.6632C42.0203 13.6637 42.0213 13.6637 42.0223 13.6647L46.6388 16.8937C47.0469 17.181 47.1379 17.7322 46.8396 18.1251Z" fill="#172554"/>
<path d="M12.0675 15.5391C11.7952 15.5391 11.5752 15.7512 11.5752 16.0125V18.064C11.5752 18.3254 11.7952 18.5375 12.0675 18.5375C12.3397 18.5375 12.5597 18.3254 12.5597 18.064V16.0125C12.5597 15.7512 12.3397 15.5391 12.0675 15.5391Z" fill="#172554"/>
<path d="M12.0675 20.8516C11.7952 20.8516 11.5752 21.0637 11.5752 21.325V23.3765C11.5752 23.6379 11.7952 23.85 12.0675 23.85C12.3397 23.85 12.5597 23.6379 12.5597 23.3765V21.325C12.5597 21.0637 12.3397 20.8516 12.0675 20.8516Z" fill="#172554"/>
<path d="M15.8951 19.2227H13.7616C13.4893 19.2227 13.2693 19.4348 13.2693 19.6961C13.2693 19.9575 13.4893 20.1696 13.7616 20.1696H15.8951C16.1673 20.1696 16.3873 19.9575 16.3873 19.6961C16.3873 19.4348 16.1673 19.2227 15.8951 19.2227Z" fill="#172554"/>
<path d="M10.3741 19.2227H8.24056C7.96834 19.2227 7.74829 19.4348 7.74829 19.6961C7.74829 19.9575 7.96834 20.1696 8.24056 20.1696H10.3741C10.6463 20.1696 10.8663 19.9575 10.8663 19.6961C10.8663 19.4348 10.6463 19.2227 10.3741 19.2227Z" fill="#172554"/>
</svg>
