<svg width="48" height="48" viewBox="0 0 48 48" fill="none" xmlns="http://www.w3.org/2000/svg">
<path d="M19.069 36.1214H41.6833C42.6172 36.1214 43.4048 35.5037 43.6469 34.5829L47.9278 18.2728C48.0944 17.6341 47.9711 16.9931 47.5739 16.4686C47.2086 15.9838 46.6835 15.7111 46.0944 15.6738L47.2999 10.0397C47.4643 9.27045 47.0648 8.57351 46.2816 8.26112L45.1926 7.82755C45.4597 6.82753 45.3866 5.7716 44.9734 4.80655C44.4962 3.69232 43.6195 2.8345 42.5099 2.3916C41.4003 1.9487 40.1856 1.97435 39.0943 2.46153C38.1513 2.88345 37.3956 3.60841 36.9276 4.53151L35.8385 4.09794C35.0965 3.8019 34.2631 4.09328 33.8522 4.78789L32.5919 6.92774L32.3453 5.34501C32.2243 4.56877 31.6033 4.0653 30.7631 4.0653H29.5941C29.3544 1.78324 27.4571 0 25.158 0C22.8589 0 20.9616 1.78324 20.7219 4.0653H19.5529C18.7583 4.0653 18.0826 4.64572 17.9478 5.44759L16.2241 15.7599L13.1555 15.7692L12.2765 12.4218C12.0345 11.5011 11.2468 10.8834 10.313 10.8834H8.63258C8.60975 10.0325 7.92938 9.34724 7.09146 9.34724H1.54568C0.694078 9.34724 0 10.0559 0 10.9253V11.8228C0 12.6922 0.694078 13.4008 1.54568 13.4008H7.09146C7.92938 13.4008 8.61206 12.7155 8.63258 11.8647H10.313C10.8061 11.8647 11.2217 12.1911 11.3495 12.6759L12.3222 16.3776C12.3244 16.3846 12.3244 16.3892 12.3267 16.3962L17.0985 34.5831C17.1853 34.9094 17.3428 35.1961 17.5483 35.4339C16.2926 35.9747 15.6853 37.1799 15.6624 38.322C15.6282 40.0004 16.7789 41.751 19.0438 41.8465H19.0643H43.4801C43.7449 41.8465 43.9595 41.6274 43.9595 41.357C43.9595 41.0866 43.7449 40.8675 43.4801 40.8675H19.0754C17.3585 40.7882 16.6005 39.5038 16.6233 38.343C16.6439 37.3197 17.2968 36.1238 19.064 36.1238L19.069 36.1214ZM7.68316 11.8227C7.68316 12.1537 7.4206 12.4218 7.09639 12.4218H1.55061C1.2264 12.4218 0.963842 12.1537 0.963842 11.8227V10.9253C0.963842 10.5943 1.22641 10.3262 1.55061 10.3262H7.09639C7.4206 10.3262 7.68316 10.5943 7.68316 10.9253V11.8227ZM39.4827 3.36092C40.3389 2.97864 41.291 2.95766 42.1631 3.30498C43.0353 3.6523 43.7203 4.32594 44.097 5.20011C44.4075 5.9227 44.4691 6.71296 44.291 7.46587L37.8436 4.89243C38.2134 4.21411 38.7751 3.67329 39.4829 3.3563L39.4827 3.36092ZM43.9349 10.2491C43.9783 10.3517 43.9326 10.4729 43.8322 10.5195C43.7317 10.5638 43.613 10.5172 43.5673 10.4146C43.5376 10.347 43.5536 10.2864 43.565 10.2584C43.5764 10.2281 43.6061 10.1745 43.6723 10.1465C43.702 10.1325 43.7271 10.1302 43.7523 10.1302C43.7842 10.1302 43.8093 10.1372 43.8253 10.1442C43.855 10.1559 43.9075 10.1862 43.9349 10.2538V10.2491ZM36.5148 7.28873C36.5582 7.3913 36.5126 7.51251 36.4121 7.55912C36.3116 7.60574 36.1929 7.55679 36.1473 7.45423C36.1039 7.35166 36.1495 7.23045 36.25 7.18383C36.2797 7.16984 36.3048 7.16751 36.3299 7.16751C36.3619 7.16751 36.387 7.17451 36.403 7.1815C36.4326 7.19315 36.4852 7.22346 36.5126 7.29105L36.5148 7.28873ZM34.6792 5.29335C34.8504 5.0043 35.1861 4.88775 35.4943 5.00896L36.5582 5.43321L36.2683 6.18845C36.1313 6.19544 35.9943 6.22574 35.8664 6.28402C35.2797 6.54509 35.0125 7.24674 35.2683 7.84581C35.4578 8.29103 35.8847 8.55444 36.3322 8.55444C36.4874 8.55444 36.645 8.52181 36.7957 8.45421C37.3824 8.19313 37.6496 7.49148 37.3938 6.89474C37.3368 6.76187 37.2568 6.64766 37.161 6.54742L37.4509 5.79219L43.9761 8.39595L43.6862 9.15118C43.5492 9.15817 43.4145 9.18848 43.2843 9.24676C43.0012 9.37263 42.782 9.60573 42.6679 9.9018C42.556 10.1955 42.5606 10.5195 42.6861 10.8085C42.8756 11.2538 43.3026 11.5172 43.7501 11.5172C43.9053 11.5172 44.0629 11.4845 44.2136 11.4169C44.8003 11.1559 45.0674 10.4542 44.8117 9.85748C44.7546 9.72461 44.6747 9.61039 44.5788 9.51016L44.8688 8.75492L45.9327 9.17917C46.1725 9.27474 46.4419 9.46589 46.362 9.83654L45.1154 15.6687L33.9622 15.706L32.8298 8.43533L34.6791 5.29779L34.6792 5.29335ZM29.0056 6.78753C29.0558 6.73624 29.1152 6.72692 29.1471 6.72692C29.1791 6.72692 29.2385 6.73391 29.2887 6.78753C29.3389 6.83881 29.3481 6.90175 29.3481 6.93205C29.3481 6.96469 29.3412 7.02529 29.2887 7.07658C29.2111 7.15583 29.0832 7.15583 29.0056 7.07658C28.9554 7.02529 28.9462 6.96235 28.9462 6.93205C28.9462 6.89942 28.9531 6.83881 29.0056 6.78753ZM25.1631 0.978613C26.9325 0.978613 28.3937 2.32361 28.6289 4.0649H21.6975C21.9326 2.32361 23.3959 0.978613 25.1631 0.978613ZM21.0397 6.78753C21.0899 6.73624 21.1516 6.72692 21.1812 6.72692C21.2132 6.72692 21.2726 6.73391 21.3228 6.78753C21.4004 6.86678 21.4004 6.99732 21.3228 7.07658C21.2452 7.15583 21.1173 7.15583 21.0397 7.07658C20.9621 6.99732 20.9621 6.86679 21.0397 6.78753ZM18.9003 5.61266C18.9551 5.27933 19.2268 5.04623 19.5579 5.04623H20.6994V5.85744C20.5739 5.91571 20.4597 5.99263 20.3593 6.0952C19.9072 6.55674 19.9072 7.30969 20.3593 7.77121C20.5853 8.00198 20.8821 8.11853 21.1789 8.11853C21.4757 8.11853 21.7725 8.00198 21.9985 7.77121C22.4506 7.30966 22.4506 6.55672 21.9985 6.0952C21.8981 5.99263 21.7816 5.91571 21.6583 5.85744V5.04623H28.6651V5.85976C28.5419 5.91571 28.4254 5.99263 28.325 6.09753C27.8729 6.55907 27.8729 7.31201 28.325 7.77353C28.551 8.00431 28.8478 8.12085 29.1446 8.12085C29.4414 8.12085 29.7382 8.00431 29.9642 7.77353C30.4163 7.31199 30.4163 6.55905 29.9642 6.09753C29.8638 5.99496 29.7473 5.91804 29.624 5.85976V5.04623H30.7656C31.0236 5.04623 31.3409 5.12548 31.4003 5.49844L32.9894 15.7057L17.2036 15.757L18.9003 5.61266ZM18.0327 34.3308L13.4185 16.7502L16.6332 16.7386H16.6355H16.6377L45.5038 16.643L45.9604 16.6407H45.965C46.3143 16.6407 46.5997 16.7852 46.8143 17.0672C47.0289 17.3516 47.0928 17.6733 47.0015 18.0183L42.7206 34.3285C42.5928 34.8133 42.1772 35.1397 41.6841 35.1397H19.0697C18.5766 35.1397 18.161 34.8133 18.0332 34.3285L18.0327 34.3308ZM22.2725 41.8647C20.6309 41.8647 19.2953 43.2283 19.2953 44.9043C19.2953 46.5804 20.6309 47.944 22.2725 47.944C23.9141 47.944 25.2498 46.5804 25.2498 44.9043C25.2498 43.2283 23.9141 41.8647 22.2725 41.8647ZM22.2725 46.965C21.1607 46.965 20.2542 46.0419 20.2542 44.9043C20.2542 43.7692 21.1584 42.8437 22.2725 42.8437C23.3844 42.8437 24.2908 43.7668 24.2908 44.9043C24.2908 46.0395 23.3867 46.965 22.2725 46.965ZM36.928 41.9206C35.2864 41.9206 33.9507 43.2843 33.9507 44.9603C33.9507 46.6363 35.2864 48 36.928 48C38.5695 48 39.9052 46.6363 39.9052 44.9603C39.9052 43.2843 38.5695 41.9206 36.928 41.9206ZM36.928 47.0209C35.8161 47.0209 34.9097 46.0978 34.9097 44.9603C34.9097 43.8251 35.8138 42.8997 36.928 42.8997C38.0398 42.8997 38.9462 43.8228 38.9462 44.9603C38.9462 46.0955 38.0421 47.0209 36.928 47.0209ZM36.928 43.6339C36.211 43.6339 35.6288 44.2284 35.6288 44.9603C35.6288 45.6923 36.211 46.2867 36.928 46.2867C37.6449 46.2867 38.2271 45.6923 38.2271 44.9603C38.2271 44.2284 37.6449 43.6339 36.928 43.6339ZM36.928 45.5034C36.6357 45.5034 36.3983 45.261 36.3983 44.9603C36.3983 44.6619 36.6357 44.4195 36.928 44.4195C37.2202 44.4195 37.4599 44.6619 37.4599 44.9603C37.4599 45.2587 37.2225 45.5034 36.928 45.5034ZM22.2725 43.578C21.5556 43.578 20.9734 44.1724 20.9734 44.9043C20.9734 45.6363 21.5556 46.2307 22.2725 46.2307C22.9895 46.2307 23.5717 45.6363 23.5717 44.9043C23.5717 44.1724 22.9895 43.578 22.2725 43.578ZM22.2725 45.4474C21.9803 45.4474 21.7406 45.205 21.7406 44.9043C21.7406 44.6059 21.978 44.3635 22.2725 44.3635C22.5648 44.3635 22.8022 44.6059 22.8022 44.9043C22.8022 45.2027 22.5648 45.4474 22.2725 45.4474ZM39.1017 26.1978C39.1017 26.4146 38.9304 26.5894 38.7181 26.5894H22.0351C21.8228 26.5894 21.6515 26.4146 21.6515 26.1978C21.6515 25.981 21.8228 25.8062 22.0351 25.8062H38.7181C38.9304 25.8062 39.1017 25.981 39.1017 26.1978ZM40.2615 22.5731C40.2615 22.7898 40.0903 22.9647 39.8779 22.9647H20.8775C20.6651 22.9647 20.4939 22.7898 20.4939 22.5731C20.4939 22.3563 20.6651 22.1814 20.8775 22.1814H39.8779C40.0903 22.1814 40.2615 22.3563 40.2615 22.5731ZM37.9441 29.8223C37.9441 30.039 37.7729 30.2139 37.5606 30.2139H23.1951C22.9827 30.2139 22.8115 30.039 22.8115 29.8223C22.8115 29.6055 22.9827 29.4306 23.1951 29.4306H37.5606C37.7729 29.4306 37.9441 29.6055 37.9441 29.8223Z" fill="#172554"/>
</svg>
