<svg width="48" height="48" viewBox="0 0 48 48" fill="none" xmlns="http://www.w3.org/2000/svg">
<path d="M48 3.27827V1.63913C48 0.735538 47.2657 0 46.3637 0H37.6358C36.7337 0 35.9994 0.735538 35.9994 1.63913V3.27827C35.9994 3.98926 36.4576 4.58957 37.0896 4.817V15.3998C36.4556 15.6252 35.9994 16.2275 35.9994 16.9385V18.5776C35.9994 19.2886 36.4576 19.8889 37.0896 20.1164V31.9632C36.7439 40.2984 24.8885 40.2963 24.545 31.9632V27.765C25.1791 27.5396 25.6352 26.9373 25.6352 26.2263V24.5871C25.6352 23.8762 25.177 23.2758 24.545 23.0484V20.7618C24.545 13.5313 18.6725 7.64874 11.4542 7.64874H4.80882C4.58382 7.0136 3.98248 6.55669 3.27269 6.55669H1.63635C0.734288 6.55669 0 7.29223 0 8.19582V16.9386C0 17.8422 0.734288 18.5777 1.63635 18.5777H3.27269C3.98248 18.5777 4.58177 18.1187 4.80882 17.4856H11.4542C13.2583 17.4856 14.7269 18.9568 14.7269 20.7639V23.0505C14.0928 23.2759 13.6367 23.8783 13.6367 24.5892V26.2284C13.6367 26.9394 14.0949 27.5397 14.7269 27.7671V31.9653C15.6105 53.3501 46.028 53.3396 46.9077 31.9653V20.1185C47.5418 19.8931 47.9979 19.2907 47.9979 18.5797V16.9406C47.9979 16.2296 47.5397 15.6293 46.9077 15.4019L46.9098 4.817C47.5438 4.59162 48 3.98926 48 3.27827ZM37.0917 1.63913C37.0917 1.33794 37.3372 1.09206 37.6379 1.09206H46.3657C46.6664 1.09206 46.9119 1.33793 46.9119 1.63913V3.27827C46.9119 3.57946 46.6664 3.82534 46.3657 3.82534H37.6379C37.3372 3.82534 37.0917 3.57947 37.0917 3.27827V1.63913ZM38.1819 15.2993V4.9174H45.8175V15.2993H38.1819ZM3.27248 17.4855H1.63614C1.33546 17.4855 1.08999 17.2396 1.08999 16.9384V8.19566C1.08999 7.89447 1.33544 7.64859 1.63614 7.64859H3.27248C3.57316 7.64859 3.81863 7.89446 3.81863 8.19566V16.9384C3.81863 17.2396 3.57318 17.4855 3.27248 17.4855ZM11.4542 16.3934H4.90883V8.74484H11.4542C18.0713 8.74484 23.4548 14.1375 23.4548 20.7658V22.9521H15.8192V20.7658C15.8192 18.3563 13.8617 16.3955 11.4563 16.3955L11.4542 16.3934ZM14.7269 24.5891C14.7269 24.2879 14.9724 24.042 15.2731 24.042H24.0009C24.3016 24.042 24.5471 24.2879 24.5471 24.5891V26.2282C24.5471 26.5294 24.3016 26.7753 24.0009 26.7753H15.2731C14.9724 26.7753 14.7269 26.5294 14.7269 26.2282V24.5891ZM30.8181 46.9899C22.5484 46.9899 15.8187 40.2487 15.8187 31.9649V27.8671H23.4543V31.9649C23.8593 41.7504 37.7782 41.7462 38.1814 31.9649V20.2182H45.817V31.9649C45.817 40.2487 39.0878 46.9899 30.8181 46.9899ZM46.9093 18.5775C46.9093 18.8787 46.6638 19.1246 46.3631 19.1246H37.6352C37.3346 19.1246 37.0891 18.8787 37.0891 18.5775V16.9384C37.0891 16.6372 37.3346 16.3913 37.6352 16.3913H46.3631C46.6638 16.3913 46.9093 16.6372 46.9093 16.9384V18.5775Z" fill="#172554"/>
<path d="M4.99265 19.8001C4.79015 19.6239 4.48743 19.6239 4.28287 19.8001C4.14991 19.9128 1.03882 22.6235 1.03882 25.8977C1.03882 27.8852 2.65469 29.5038 4.63878 29.5038C6.62287 29.5038 8.23874 27.8852 8.23874 25.8977C8.23874 22.6235 5.1256 19.915 4.99469 19.8001H4.99265ZM4.63879 28.4096C3.25609 28.4096 2.12903 27.2828 2.12903 25.8956C2.12903 23.7258 3.87173 21.7363 4.63879 20.9659C5.40581 21.7363 7.14856 23.7258 7.14856 25.8956C7.14856 27.2807 6.02359 28.4096 4.63879 28.4096Z" fill="#172554"/>
</svg>
