<svg width="48" height="48" viewBox="0 0 48 48" fill="none" xmlns="http://www.w3.org/2000/svg">
<path d="M47.848 30.154L42.665 25.3369V6.1497C42.665 5.8901 42.4924 5.67953 42.2796 5.67953H35.2809V0.473053C35.2809 0.213453 35.1083 0.00288447 34.8955 0.00288447L13.0235 0C12.8107 0 12.6381 0.21057 12.6381 0.47017V5.67665H5.6394C5.42659 5.67665 5.25398 5.88722 5.25398 6.14682V25.7608L0.15133 30.5029C0.0567486 30.5923 0 30.7308 0 30.8779V34.1604C0 34.3393 0.0827589 34.5037 0.215172 34.5816C0.269556 34.6133 0.328669 34.6306 0.385418 34.6306C0.468177 34.6306 0.550936 34.5989 0.619506 34.5354L1.19881 33.996V47.5298C1.19881 47.5962 1.21064 47.6568 1.22955 47.7116C1.28867 47.8817 1.42581 48 1.58423 48H46.1084C46.1628 48 46.2124 47.9856 46.2574 47.9625C46.3969 47.8904 46.4938 47.7231 46.4938 47.5298V33.4274L47.3805 34.2524C47.4491 34.3158 47.5318 34.3476 47.6146 34.3476C47.6737 34.3476 47.7304 34.3303 47.7848 34.2985C47.9172 34.2206 48 34.0562 48 33.8774V30.5256C48 30.3785 47.9432 30.2401 47.8487 30.1506L47.848 30.154ZM41.8942 6.61964V24.6217L40.5771 23.3987C40.57 23.3929 40.5606 23.39 40.5558 23.3843C40.5346 23.367 40.5086 23.3554 40.4849 23.341C40.4636 23.3295 40.4423 23.3179 40.4187 23.3151C40.3951 23.3093 40.3714 23.3093 40.3454 23.3093C40.3218 23.3093 40.2981 23.3093 40.2721 23.3151C40.2485 23.3208 40.2272 23.3324 40.2059 23.341C40.1823 23.3525 40.1586 23.3641 40.135 23.3843C40.1279 23.39 40.1184 23.39 40.1113 23.3987L40.0167 23.4852V21.8786C40.0167 21.619 39.8441 21.4084 39.6313 21.4084H37.5435C37.3306 21.4084 37.158 21.619 37.158 21.8786V24.4429C37.158 24.7025 37.3306 24.9131 37.5435 24.9131H38.4798L35.2806 27.8869V6.61957L41.8942 6.61964ZM39.2459 23.9726H37.9289V22.3487H39.2459V23.9726ZM13.4109 0.942633H34.5093V28.6047L34.0459 29.0374V24.852C34.0459 24.7049 33.9891 24.5665 33.8945 24.477L24.1955 15.4601C24.1884 15.4544 24.179 15.4515 24.1742 15.4457C24.1529 15.4284 24.1269 15.4169 24.1033 15.4025C24.082 15.3909 24.0607 15.3794 24.0371 15.3765C24.0134 15.3707 23.9898 15.3707 23.9638 15.3707C23.9401 15.3707 23.9165 15.3707 23.8905 15.3765C23.8668 15.3823 23.8456 15.3938 23.8243 15.4025C23.8006 15.414 23.777 15.4255 23.7533 15.4457C23.7463 15.4515 23.7368 15.4515 23.7321 15.4601L14.0331 24.477C13.9385 24.5665 13.8817 24.7049 13.8817 24.852V29.323C13.8817 29.5018 13.9645 29.6662 14.0969 29.7441C14.1513 29.7758 14.2104 29.7931 14.2671 29.7931C14.3499 29.7931 14.4327 29.7614 14.5012 29.6979L15.5156 28.7547V47.0655H13.546V33.745L14.402 34.5382C14.4705 34.6017 14.5533 34.6334 14.636 34.6334C14.6952 34.6334 14.7519 34.6161 14.8063 34.5844C14.9387 34.5065 15.0215 34.3421 15.0215 34.1633V30.8807C15.0215 30.7336 14.9647 30.5952 14.8701 30.5058L13.4207 29.1587L13.4089 0.942802L13.4109 0.942633ZM24.1929 19.9283C24.1858 19.9225 24.1763 19.9196 24.1716 19.9138C24.1503 19.8965 24.1267 19.885 24.1006 19.8706C24.0794 19.859 24.0581 19.8475 24.0344 19.8446C24.0108 19.8388 23.9871 19.8388 23.9611 19.8388C23.9375 19.8388 23.9138 19.8388 23.8878 19.8446C23.8642 19.8504 23.8429 19.8619 23.8216 19.8706C23.798 19.8821 23.7743 19.8936 23.7507 19.9138C23.7436 19.9196 23.7341 19.9196 23.7294 19.9283L14.6472 28.3684V25.0802L23.9612 16.4236L33.2753 25.0802V28.3684L24.1929 19.9283ZM33.3816 29.6489L32.8401 30.1536C32.7455 30.2431 32.6888 30.3815 32.6888 30.5286V33.8804C32.6888 34.0593 32.7715 34.2237 32.904 34.3015C32.9583 34.3333 33.0175 34.3506 33.0742 34.3506C33.157 34.3506 33.2397 34.3188 33.3083 34.2554L33.9136 33.6929V47.0621H32.0385V28.4021L33.384 29.6511L33.3816 29.6489ZM6.02423 6.6189H12.6379V28.4401L8.84054 24.9124H10.3727C10.5855 24.9124 10.7581 24.7018 10.7581 24.4422V21.8779C10.7581 21.6183 10.5855 21.4077 10.3727 21.4077H8.28486C8.07205 21.4077 7.89944 21.6183 7.89944 21.8779V24.0384L7.73629 23.8855C7.72919 23.8797 7.7221 23.8769 7.71501 23.8711C7.69136 23.8538 7.66772 23.8422 7.64407 23.8278C7.62279 23.8163 7.60151 23.8047 7.57786 23.8019C7.55421 23.7961 7.5282 23.7961 7.50456 23.7961C7.48092 23.7961 7.45727 23.7961 7.43362 23.8019C7.40998 23.8076 7.3887 23.8192 7.36505 23.8307C7.34141 23.8422 7.31776 23.8538 7.29412 23.874C7.28702 23.8797 7.27756 23.8797 7.27047 23.8884L6.02436 25.0479L6.02423 6.6189ZM8.6725 23.9719V22.3479H9.98955V23.9719H8.6725ZM0.770073 31.1138L7.50424 24.8545L14.2384 31.1138V33.2138L7.7385 27.1708C7.7314 27.165 7.72194 27.1621 7.71721 27.1564C7.69593 27.1391 7.66992 27.1275 7.64628 27.1131C7.625 27.1016 7.60372 27.09 7.58007 27.0871C7.55642 27.0814 7.53278 27.0814 7.50677 27.0814C7.48312 27.0814 7.45948 27.0814 7.43583 27.0871C7.41219 27.0929 7.39091 27.1045 7.36962 27.116C7.34598 27.1275 7.32233 27.1391 7.29869 27.1593C7.29159 27.165 7.28213 27.165 7.27504 27.1737L0.775134 33.2166V31.1167L0.770073 31.1138ZM6.46382 47.0623V42.2308H8.27269V47.0623H6.46382ZM9.0435 47.0623V41.7607C9.0435 41.5011 8.87089 41.2905 8.65808 41.2905H6.0784C5.86559 41.2905 5.69298 41.5011 5.69298 41.7607V47.0623H1.96888V33.2833L7.50421 28.1374L12.7653 33.0266V47.0625H9.04118L9.0435 47.0623ZM22.4005 47.0623V40.3472H25.1433V47.0623H22.4005ZM25.9141 47.0623V39.8771C25.9141 39.6175 25.7415 39.4069 25.5287 39.4069H22.015C21.8022 39.4069 21.6296 39.6175 21.6296 39.8771V47.0623H16.2787V28.0331L23.9608 20.894L31.267 27.6841V47.0618L25.9141 47.0623ZM39.2711 47.0623V42.2308H41.1343V47.0623H39.2711ZM41.9052 47.0623V41.7607C41.9052 41.5011 41.7326 41.2905 41.5198 41.2905H38.8857C38.6729 41.2905 38.5003 41.5011 38.5003 41.7607V47.0623H34.6815V32.9776L40.3422 27.7163L45.7215 32.7151V47.0627H41.9028L41.9052 47.0623ZM47.2301 32.9311L40.5789 26.7497C40.5718 26.7439 40.5623 26.741 40.5576 26.7352C40.5363 26.7179 40.5103 26.7064 40.4867 26.692C40.4654 26.6804 40.4441 26.6689 40.4205 26.666C40.3968 26.6603 40.3732 26.6602 40.3472 26.6602C40.3235 26.6602 40.2999 26.6603 40.2739 26.666C40.2502 26.6718 40.2289 26.6833 40.2076 26.6949C40.184 26.7064 40.1604 26.7179 40.1367 26.7381C40.1296 26.7439 40.1202 26.7439 40.1131 26.7526L33.4618 32.934V30.7649L39.8721 24.8084C39.8863 24.794 39.9005 24.7854 39.9123 24.7709L40.3498 24.3642L45.8024 29.4323C45.8497 29.5159 45.9159 29.5822 45.9986 29.614L47.2353 30.7649V32.934L47.2301 32.9311ZM26.4435 26.8333H24.6559C24.4431 26.8333 24.2705 27.0439 24.2705 27.3035V29.4841C24.2705 29.7437 24.4431 29.9543 24.6559 29.9543H26.4435C26.6563 29.9543 26.8289 29.7437 26.8289 29.4841V27.3035C26.8289 27.0439 26.6563 26.8333 26.4435 26.8333ZM26.0581 29.014H25.0413V27.7736H26.0581V29.014ZM22.8684 26.8333H21.0808C20.868 26.8333 20.6954 27.0439 20.6954 27.3035V29.4841C20.6954 29.7437 20.868 29.9543 21.0808 29.9543H22.8684C23.0812 29.9543 23.2538 29.7437 23.2538 29.4841V27.3035C23.2538 27.0439 23.0812 26.8333 22.8684 26.8333ZM22.4829 29.014H21.4662V27.7736H22.4829V29.014ZM26.4435 31.1946H24.656C24.4432 31.1946 24.2705 31.4052 24.2705 31.6648V33.8454C24.2705 34.105 24.4432 34.3156 24.656 34.3156H26.4435C26.6563 34.3156 26.8289 34.105 26.8289 33.8454V31.6648C26.8289 31.4052 26.6563 31.1946 26.4435 31.1946ZM26.0581 33.3753H25.0414V32.1349H26.0581V33.3753ZM22.8684 31.1946H21.0808C20.868 31.1946 20.6954 31.4052 20.6954 31.6648V33.8454C20.6954 34.105 20.868 34.3156 21.0808 34.3156H22.8684C23.0812 34.3156 23.2538 34.105 23.2538 33.8454V31.6648C23.2538 31.4052 23.0812 31.1946 22.8684 31.1946ZM22.483 33.3753H21.4662V32.1349H22.483V33.3753ZM41.858 32.8416H40.6662C40.4534 32.8416 40.2808 33.0522 40.2808 33.3118V34.7656C40.2808 35.0252 40.4534 35.2358 40.6662 35.2358H41.858C42.0708 35.2358 42.2434 35.0252 42.2434 34.7656V33.3118C42.2434 33.0522 42.0708 32.8416 41.858 32.8416ZM41.4726 34.2954H41.0517V33.782H41.4726V34.2954ZM39.4745 32.8416H38.2828C38.07 32.8416 37.8974 33.0522 37.8974 33.3118V34.7656C37.8974 35.0252 38.07 35.2358 38.2828 35.2358H39.4745C39.6873 35.2358 39.86 35.0252 39.86 34.7656V33.3118C39.86 33.0522 39.6873 32.8416 39.4745 32.8416ZM39.0891 34.2954H38.6682V33.782H39.0891V34.2954ZM41.858 35.7492H40.6662C40.4534 35.7492 40.2808 35.9598 40.2808 36.2194V37.6732C40.2808 37.9328 40.4534 38.1434 40.6662 38.1434H41.858C42.0708 38.1434 42.2434 37.9328 42.2434 37.6732V36.2194C42.2434 35.9598 42.0708 35.7492 41.858 35.7492ZM41.4725 37.2031H41.0517V36.6896H41.4725V37.2031ZM39.4745 35.7492H38.2828C38.07 35.7492 37.8973 35.9598 37.8973 36.2194V37.6732C37.8973 37.9328 38.07 38.1434 38.2828 38.1434H39.4745C39.6873 38.1434 39.8599 37.9328 39.8599 37.6732V36.2194C39.8599 35.9598 39.6873 35.7492 39.4745 35.7492ZM39.0891 37.2031H38.6682V36.6896H39.0891V37.2031ZM9.00781 32.9311H7.81606C7.60326 32.9311 7.43064 33.1417 7.43064 33.4013V34.8551C7.43064 35.1147 7.60326 35.3253 7.81606 35.3253H9.00781C9.22062 35.3253 9.39323 35.1147 9.39323 34.8551V33.4013C9.39323 33.1417 9.22062 32.9311 9.00781 32.9311ZM8.62239 34.3849H8.20151V33.8715H8.62239V34.3849ZM6.62436 32.9311H5.43261C5.2198 32.9311 5.04719 33.1417 5.04719 33.4013V34.8551C5.04719 35.1147 5.2198 35.3253 5.43261 35.3253H6.62436C6.83717 35.3253 7.00978 35.1147 7.00978 34.8551V33.4013C7.00978 33.1417 6.83717 32.9311 6.62436 32.9311ZM6.23894 34.3849H5.81806V33.8715H6.23894V34.3849ZM9.00779 35.8387H7.81604C7.60323 35.8387 7.43062 36.0493 7.43062 36.3089V37.7627C7.43062 38.0223 7.60323 38.2329 7.81604 38.2329H9.00779C9.22059 38.2329 9.39321 38.0223 9.39321 37.7627V36.3089C9.39321 36.0493 9.22059 35.8387 9.00779 35.8387ZM8.62237 37.2925H8.20149V36.7791H8.62237V37.2925ZM6.62434 35.8387H5.43258C5.21978 35.8387 5.04717 36.0493 5.04717 36.3089V37.7627C5.04717 38.0223 5.21978 38.2329 5.43258 38.2329H6.62434C6.83714 38.2329 7.00975 38.0223 7.00975 37.7627V36.3089C7.00975 36.0493 6.83714 35.8387 6.62434 35.8387ZM6.23892 37.2925H5.81803V36.7791H6.23892V37.2925ZM20.9748 8.98137H23.0626C23.2755 8.98137 23.4481 8.7708 23.4481 8.5112V5.30659C23.4481 5.04698 23.2755 4.83642 23.0626 4.83642H20.9748C20.762 4.83642 20.5894 5.04698 20.5894 5.30659V8.5112C20.5894 8.7708 20.762 8.98137 20.9748 8.98137ZM21.3602 5.77676H22.6773V8.04106H21.3602V5.77676ZM16.8014 8.98137H18.8893C19.1021 8.98137 19.2747 8.7708 19.2747 8.5112V5.30659C19.2747 5.04698 19.1021 4.83642 18.8893 4.83642H16.8014C16.5886 4.83642 16.416 5.04698 16.416 5.30659V8.5112C16.416 8.7708 16.5886 8.98137 16.8014 8.98137ZM17.1868 5.77676H18.5039V8.04106H17.1868V5.77676ZM20.9748 15.391H23.0627C23.2755 15.391 23.4481 15.1805 23.4481 14.9209V11.7163C23.4481 11.4567 23.2755 11.2461 23.0627 11.2461H20.9748C20.762 11.2461 20.5894 11.4567 20.5894 11.7163V14.9209C20.5894 15.1805 20.762 15.391 20.9748 15.391ZM21.3602 12.1864H22.6773V14.4507H21.3602V12.1864ZM16.8015 15.391H18.8893C19.1021 15.391 19.2747 15.1805 19.2747 14.9209V11.7163C19.2747 11.4567 19.1021 11.2461 18.8893 11.2461H16.8015C16.5886 11.2461 16.416 11.4567 16.416 11.7163V14.9209C16.416 15.1805 16.5886 15.391 16.8015 15.391ZM17.1869 12.1864H18.5039V14.4507H17.1869V12.1864ZM29.3241 8.98181H31.412C31.6248 8.98181 31.7974 8.77124 31.7974 8.51164V5.30703C31.7974 5.04743 31.6248 4.83686 31.412 4.83686H29.3241C29.1113 4.83686 28.9387 5.04743 28.9387 5.30703V8.51164C28.9387 8.77124 29.1113 8.98181 29.3241 8.98181ZM29.7095 5.7772H31.0266V8.0415H29.7095V5.7772ZM25.1508 8.98181H27.2386C27.4514 8.98181 27.624 8.77124 27.624 8.51164V5.30703C27.624 5.04743 27.4514 4.83686 27.2386 4.83686H25.1508C24.9379 4.83686 24.7653 5.04743 24.7653 5.30703V8.51164C24.7653 8.77124 24.9379 8.98181 25.1508 8.98181ZM25.5362 5.7772H26.8532V8.0415H25.5362V5.7772ZM29.3241 15.3915H31.412C31.6248 15.3915 31.7974 15.1809 31.7974 14.9213V11.7167C31.7974 11.4571 31.6248 11.2465 31.412 11.2465H29.3241C29.1113 11.2465 28.9387 11.4571 28.9387 11.7167V14.9213C28.9387 15.1809 29.1113 15.3915 29.3241 15.3915ZM29.7095 12.1869H31.0266V14.4512H29.7095V12.1869ZM25.1508 15.3915H27.2386C27.4514 15.3915 27.6241 15.1809 27.6241 14.9213V11.7167C27.6241 11.4571 27.4514 11.2465 27.2386 11.2465H25.1508C24.938 11.2465 24.7654 11.4571 24.7654 11.7167V14.9213C24.7654 15.1809 24.938 15.3915 25.1508 15.3915ZM25.5362 12.1869H26.8532V14.4512H25.5362V12.1869ZM8.29189 14.6531H10.3798C10.5926 14.6531 10.7652 14.4425 10.7652 14.1829V11.6186C10.7652 11.359 10.5926 11.1484 10.3798 11.1484H8.29189C8.07908 11.1484 7.90647 11.359 7.90647 11.6186V14.1829C7.90647 14.4425 8.07908 14.6531 8.29189 14.6531ZM8.67731 12.0887H9.99436V13.7127H8.67731V12.0887ZM8.29189 19.7787H10.3798C10.5926 19.7787 10.7652 19.5681 10.7652 19.3085V16.7442C10.7652 16.4846 10.5926 16.274 10.3798 16.274H8.29189C8.07908 16.274 7.90647 16.4846 7.90647 16.7442V19.3085C7.90647 19.5681 8.07908 19.7787 8.29189 19.7787ZM8.67731 17.2144H9.99436V18.8383H8.67731V17.2144ZM37.5455 14.65H39.6334C39.8462 14.65 40.0188 14.4395 40.0188 14.1799V11.6155C40.0188 11.3559 39.8462 11.1454 39.6334 11.1454H37.5455C37.3327 11.1454 37.1601 11.3559 37.1601 11.6155V14.1799C37.1601 14.4395 37.3327 14.65 37.5455 14.65ZM37.931 12.0857H39.248V13.7096H37.931V12.0857ZM37.5455 19.7757H39.6334C39.8462 19.7757 40.0188 19.5651 40.0188 19.3055V16.7412C40.0188 16.4816 39.8462 16.271 39.6334 16.271H37.5455C37.3327 16.271 37.1601 16.4816 37.1601 16.7412V19.3055C37.1601 19.5651 37.3327 19.7757 37.5455 19.7757ZM37.931 17.2113H39.248V18.8353H37.931V17.2113Z" fill="#172554"/>
</svg>
