<svg width="48" height="48" viewBox="0 0 48 48" fill="none" xmlns="http://www.w3.org/2000/svg">
<path d="M46.4872 31.304C42.0053 29.488 34.0553 33.2801 27.6592 36.3282C25.1008 37.5443 22.6846 38.6963 21.6138 38.8803C20.6663 39.0404 19.9082 38.9364 19.2733 38.5683C18.4963 38.1203 18.0699 37.3523 17.852 36.8243C18.3258 36.6963 18.9038 36.6003 19.605 36.5763C25.8115 36.3842 29.706 34.4882 29.7628 31.64C29.7912 30.328 29.1753 29.592 28.6542 29.2079C27.4413 28.3199 25.7831 28.5039 25.603 28.5279C25.5462 28.5359 20.1546 29.1759 16.895 28.8239L16.6012 28.7999C13.408 28.4559 10.3947 28.1359 7.42886 31.608C5.09787 34.3442 1.2413 33.9361 1.08022 33.9201C0.805425 33.8881 0.530633 33.9521 0.32217 34.1042C0.113707 34.2562 0 34.4802 0 34.7122V45.6166C0 46.0246 0.360072 46.3687 0.843327 46.4087L17.1603 47.9207C17.7099 47.9687 18.2689 48.0007 18.8185 48.0007C21.737 48.0007 24.6271 47.2967 27.0907 45.9526L46.7525 35.2802C47.5864 34.8322 48.0602 34.0321 47.9939 33.2001C47.937 32.3681 47.3685 31.664 46.4872 31.304ZM45.7197 33.9361L26.0673 44.6086C23.4995 46.0006 20.4104 46.6167 17.3688 46.3287L1.89512 44.8966V35.5522C3.56282 35.5282 6.77504 35.1282 8.97338 32.5441C11.2759 29.84 13.19 30.04 16.3643 30.384L16.6581 30.416C20.183 30.792 25.6409 30.144 25.8873 30.12C25.8968 30.12 26.8538 30.016 27.4129 30.424C27.735 30.656 27.8867 31.056 27.8772 31.616C27.8298 33.9041 23.3573 34.8562 19.5387 34.9762C18.1837 35.0162 17.1413 35.2802 16.3643 35.6162C16.3075 35.6322 16.2601 35.6562 16.2127 35.6802C14.8198 36.3202 14.3081 37.1603 14.2702 37.2163C14.0333 37.6163 14.2323 38.0883 14.6966 38.2883C15.1704 38.4803 15.7295 38.3203 15.9664 37.9283C15.9664 37.9283 16.0327 37.8163 16.2033 37.6643C16.5539 38.3843 17.1603 39.2804 18.1931 39.8804C19.2639 40.5044 20.5431 40.6964 21.9928 40.4484C23.3573 40.2164 25.6694 39.1124 28.5973 37.7203C33.97 35.1602 42.0716 31.296 45.6723 32.7441C46.0419 32.8961 46.0987 33.1761 46.1082 33.2961C46.1177 33.5601 45.9756 33.7921 45.7197 33.9361Z" fill="#172554"/>
<path d="M26.9391 23.623C27.0338 23.647 27.1286 23.663 27.2233 23.663C27.3181 23.663 27.4128 23.647 27.5076 23.623C33.2119 22.1029 37.1727 19.4868 39.2858 15.8627C42.697 9.99842 40.0248 3.67015 39.9111 3.40614C39.7595 3.06213 39.3616 2.85412 38.9352 2.88612C33.7046 3.27814 27.7919 0.158007 27.735 0.126005C27.4223 -0.0420018 27.0243 -0.0420018 26.7211 0.126005C26.6643 0.158007 20.7515 3.29414 15.521 2.88612C15.0851 2.85412 14.6966 3.07013 14.545 3.40614C14.4313 3.67015 11.7497 10.0064 15.1704 15.8627C17.274 19.4948 21.2442 22.1029 26.9391 23.623ZM16.1179 4.51819C20.8557 4.62219 25.6693 2.4941 27.2233 1.73407C28.7773 2.4941 33.572 4.62219 38.3287 4.51819C38.8593 6.11826 40.0817 10.8785 37.5707 15.1746C35.7324 18.3268 32.2454 20.6309 27.2139 22.0229C22.1823 20.6309 18.7048 18.3268 16.857 15.1746C14.365 10.8705 15.5873 6.11826 16.1179 4.51819Z" fill="#172554"/>
<path d="M25.3189 14.998C25.4989 15.15 25.7453 15.23 25.9916 15.23C26.238 15.23 26.4749 15.15 26.6644 14.998L32.8425 9.78979C33.212 9.47778 33.212 8.97376 32.8425 8.66174C32.4729 8.34973 31.876 8.34973 31.5064 8.66174L26.0011 13.3019L22.9689 10.7418C22.5994 10.4298 22.0024 10.4298 21.6329 10.7418C21.2633 11.0538 21.2633 11.5579 21.6329 11.8699L25.3189 14.998Z" fill="#172554"/>
</svg>
