<svg width="48" height="48" viewBox="0 0 48 48" fill="none" xmlns="http://www.w3.org/2000/svg">
<path d="M40.9344 48.0006H7.06218C3.16104 47.9962 0.0034046 45.9858 0 43.5047V25.6775C0.00681967 23.1964 3.16793 21.186 7.06908 21.1816H40.9343C44.8355 21.186 47.9965 23.1964 48 25.6775V43.5047C47.9966 45.9858 44.8356 47.9962 40.9344 48.0006ZM7.06218 22.8603C4.61375 22.8603 2.62913 24.1246 2.62913 25.6796V43.5068C2.62913 45.064 4.61375 46.3262 7.06218 46.3262H40.9344C43.3828 46.3262 45.3675 45.064 45.3675 43.5068V25.6774C45.3675 24.1202 43.3828 22.858 40.9344 22.858L7.06218 22.8603Z" fill="#172554"/>
<path d="M40.8934 22.8919C40.167 22.8919 39.5737 22.5167 39.5737 22.0526V11.4731C39.5157 7.95972 36.5353 4.72848 31.7374 2.98013C26.9428 1.23428 21.0504 1.23428 16.2561 2.98013C11.4615 4.72814 8.47771 7.95967 8.42315 11.4753V22.0548V22.0526C8.39587 22.5037 7.81275 22.8637 7.10007 22.8637C6.39078 22.8637 5.80423 22.5037 5.7804 22.0526V11.4732C5.84178 7.3612 9.33025 3.57869 14.9396 1.53387C20.5492 -0.51129 27.4441 -0.51129 33.0573 1.53387C38.6669 3.57903 42.152 7.36132 42.2166 11.4732V22.0526C42.2131 22.5168 41.6231 22.8919 40.8934 22.8919Z" fill="#172554"/>
<path d="M34.7075 22.8584C34.3563 22.8606 34.0221 22.7717 33.7732 22.6134C33.5276 22.4572 33.3878 22.2425 33.3878 22.0213V11.4724C33.3878 8.17582 29.1832 5.50167 23.9999 5.50167C18.8132 5.50167 14.6084 8.17576 14.6084 11.4724V22.0213C14.5845 22.4724 13.998 22.8302 13.2887 22.8302C12.576 22.8302 11.9929 22.4724 11.9691 22.0213V11.4724C12.0475 7.28443 17.4081 3.91211 23.996 3.91211C30.5839 3.91211 35.9479 7.28454 36.0265 11.4724V22.0213C36.0265 22.2425 35.8866 22.4572 35.6411 22.6134C35.3922 22.7717 35.0587 22.8606 34.7075 22.8584Z" fill="#172554"/>
<path d="M23.9996 41.0873C21.9059 41.0851 20.2076 40.0051 20.2042 38.6734V35.0169C18.1684 33.991 17.3772 32.256 18.2298 30.6967C19.0857 29.1352 21.3977 28.0898 23.9962 28.0898C26.5947 28.0898 28.9101 29.1352 29.7626 30.6967C30.6185 32.2561 29.8274 33.9911 27.7916 35.0169V38.6734C27.7882 40.005 26.0934 41.0851 23.9996 41.0873ZM23.9996 29.7727C22.4447 29.7749 21.0841 30.4342 20.6646 31.3863C20.2486 32.3383 20.8794 33.3512 22.2093 33.863C22.6049 34.0148 22.8436 34.2881 22.847 34.5809L22.8436 38.6734C22.8334 38.8729 22.9493 39.0659 23.1675 39.209C23.3824 39.3544 23.6824 39.4346 23.9962 39.4346C24.3099 39.4346 24.61 39.3544 24.8282 39.209C25.0465 39.0659 25.1624 38.8729 25.1488 38.6734V34.5809C25.1488 34.2859 25.3909 34.0127 25.7865 33.863C27.1197 33.3512 27.754 32.3383 27.338 31.3841C26.922 30.432 25.5545 29.7727 23.9996 29.7727Z" fill="#172554"/>
<path d="M46.6838 44.3427H1.31278C0.603488 44.3275 0.0374527 43.9566 0.0374527 43.5034C0.0374527 43.0523 0.603523 42.6792 1.31278 42.6641H46.6838C47.3931 42.6792 47.9557 43.0523 47.9557 43.5034C47.9557 43.9566 47.3931 44.3275 46.6838 44.3427Z" fill="#172554"/>
<path d="M46.6838 41.4576H39.9694C39.2397 41.4576 38.6498 41.0824 38.6498 40.6183V28.562C38.6498 28.0978 39.2397 27.7227 39.9694 27.7227H46.6838C47.3931 27.7378 47.9557 28.1109 47.9557 28.562C47.9557 29.0152 47.3931 29.3861 46.6838 29.4013H41.2891V39.777H46.6838C47.3931 39.7943 47.9557 40.1652 47.9557 40.6184C47.9557 41.0695 47.3931 41.4424 46.6838 41.4576Z" fill="#172554"/>
<path d="M13.2856 12.1278H7.09981C6.37347 12.1278 5.78354 11.7526 5.78354 11.2885C5.78354 10.8244 6.37348 10.4492 7.09981 10.4492H13.2856C14.0154 10.4492 14.6087 10.8244 14.6087 11.2885C14.6087 11.7526 14.0153 12.1278 13.2856 12.1278Z" fill="#172554"/>
<path d="M13.2856 18.8003H7.09981C6.74175 18.809 6.39393 18.7244 6.13814 18.5661C5.87897 18.4077 5.73235 18.1887 5.73235 17.961C5.73235 17.7333 5.87898 17.5142 6.13814 17.3559C6.39389 17.1976 6.74172 17.113 7.09981 17.1217H13.2856C13.6471 17.113 13.9949 17.1976 14.2507 17.3559C14.5098 17.5143 14.6565 17.7333 14.6565 17.961C14.6565 18.1887 14.5098 18.4078 14.2507 18.5661C13.9949 18.7244 13.6471 18.809 13.2856 18.8003Z" fill="#172554"/>
</svg>
