<svg width="1080" height="879" viewBox="0 0 1080 879" fill="none" xmlns="http://www.w3.org/2000/svg">
<path d="M187.087 878.737C183.504 878.78 180.391 877.084 179.451 874.626C178.512 872.167 179.921 869.539 182.976 868.225L221.682 851.396C260.742 834.355 305.557 825.326 351.195 825.284H445.172C478.828 825.369 512.072 820.155 542.615 810.024L922.584 685.011C937.621 680.136 948.429 670.343 951.541 658.644C954.654 646.987 949.721 634.99 938.267 626.427C924.405 616.211 903.554 612.735 884.876 617.525L618.627 683.781L618.568 683.739C617.629 683.908 616.571 683.908 615.632 683.739C601.652 704.51 572.402 717.693 540.45 717.651H367.998C363.71 717.608 360.245 715.107 360.127 712.013C360.127 708.876 363.651 706.375 367.998 706.375H541.382C578.797 706.375 609.163 684.46 609.163 657.415C609.163 630.37 578.797 608.454 541.382 608.454H319.13C268.616 608.454 219.748 621.341 181.1 644.741L13.52 746.477C11.9929 747.664 9.81969 748.3 7.58769 748.257C5.35569 748.215 3.29991 747.494 1.83161 746.265C0.421954 745.036 -0.22415 743.382 0.0695101 741.814C0.421917 740.203 1.65539 738.804 3.47614 737.914L170.936 636.178C212.521 611.168 264.972 597.561 319.127 597.603H541.379C566.695 597.518 590.658 605.742 606.576 619.985C622.435 634.228 628.425 652.922 622.786 670.768L880.164 606.887C902.366 601.333 927.035 604.725 944.891 615.788C962.747 626.894 971.087 643.978 966.74 660.679C962.922 675.983 948.826 688.954 929.149 695.27L549.827 820.316C517.345 831.04 481.987 836.593 446.276 836.593H352.299C309.538 836.593 267.543 845.029 230.892 861.01L192.186 877.839H192.244C190.717 878.56 188.896 878.856 187.076 878.729L187.087 878.737ZM793.068 557.381C765.932 557.424 741.439 545.682 731.043 527.581C720.588 509.523 726.285 488.71 745.433 474.848C764.639 460.987 793.479 456.789 818.501 464.293C843.581 471.753 859.968 489.43 859.968 509.014C859.968 535.677 830.012 557.339 793.068 557.381ZM793.068 472.05C772.275 472.008 753.48 480.994 745.491 494.856C737.503 508.717 741.849 524.699 756.592 535.339C771.276 545.937 793.419 549.116 812.627 543.351C831.832 537.586 844.344 524.022 844.286 509.015C844.227 488.625 821.319 472.092 793.068 472.05ZM557.012 557.381C529.876 557.424 505.383 545.682 494.987 527.581C484.532 509.523 490.229 488.71 509.436 474.848C528.583 460.987 557.423 456.789 582.503 464.293C607.584 471.753 623.912 489.43 623.912 509.014C623.912 535.677 594.015 557.339 557.012 557.381ZM557.012 472.05C536.219 472.008 517.424 480.994 509.435 494.856C501.447 508.717 505.852 524.699 520.536 535.339C535.279 545.937 557.422 549.116 576.629 543.351C595.835 537.586 608.288 524.022 608.23 509.015C608.171 488.625 585.264 472.092 557.012 472.05ZM357.96 472.05H195.673C191.385 471.965 187.92 469.464 187.861 466.37C187.861 463.275 191.385 460.732 195.673 460.732H357.96C360.016 460.732 362.013 461.325 363.482 462.385C364.95 463.445 365.772 464.886 365.772 466.37C365.713 469.464 362.248 471.965 357.96 472.05ZM939.386 452.381H488.115C430.848 452.381 384.447 418.851 384.447 377.521C384.447 336.19 430.848 302.703 488.115 302.703H493.284L456.926 75.0308C455.399 65.4082 444.063 58.2017 430.612 58.3287H330.35H330.409C308.089 58.3287 289.998 45.2728 289.998 29.1644C289.998 13.0559 308.089 0 330.409 0H478.424C503.209 0.0423873 524.121 13.3109 527.409 31.0721L542.152 113.817H1055.57C1064.2 113.817 1072.19 117.124 1076.54 122.507C1080.88 127.891 1080.94 134.504 1076.71 139.93L998.418 310.174C991.429 325.689 971.341 336.116 948.786 336.074H807.82C804.061 350.826 786.264 361.509 765.531 361.509H487.358C475.2 361.509 465.391 368.588 465.391 377.32C465.391 386.052 475.2 393.131 487.358 393.131H939.381C962.053 393.131 980.379 406.399 980.379 422.762C980.379 439.124 962.053 452.393 939.381 452.393L939.386 452.381ZM488.115 314.02C439.481 314.02 400.07 342.464 400.07 377.521C400.07 412.62 439.481 441.064 488.115 441.064H939.386C953.366 441.064 964.76 432.882 964.76 422.751C964.76 412.62 953.366 404.439 939.386 404.439H487.363C466.571 404.439 449.772 392.273 449.772 377.309C449.772 362.345 466.571 350.179 487.363 350.179H765.536C773.113 350.603 780.631 348.696 786.211 344.966C791.791 341.235 795.021 335.979 795.021 330.469C795.021 324.958 791.791 319.701 786.211 315.929C780.631 312.199 773.113 310.334 765.536 310.715H568.77C564.835 310.715 561.487 308.596 560.958 305.756L512.266 32.4191C509.975 20.2955 495.702 11.2244 478.727 11.1821H330.712C323.605 11.1821 316.91 13.4287 312.21 17.2862C307.511 21.1013 305.338 26.2305 306.278 31.2754C307.864 40.1772 318.319 46.8326 330.712 46.8749H430.621C451.943 46.9173 469.857 58.405 472.323 73.6659L509.914 307.534V307.577C510.149 309.187 509.385 310.798 507.858 311.985C506.39 313.214 504.275 313.893 502.043 313.893L488.115 314.02ZM807.818 325.339H948.784V325.296C964.584 325.381 978.622 318.09 983.556 307.238L1061.85 136.321C1062.03 135.855 1062.32 135.473 1062.61 135.049C1064.26 133.142 1064.26 130.768 1062.61 128.86C1061.15 126.868 1058.27 125.639 1055.1 125.681H544.506L575.811 299.983H765.525C785.966 299.899 803.704 310.284 807.815 324.739L807.818 325.339ZM323.828 382.862H162.006C157.66 382.862 154.195 380.319 154.195 377.182C154.195 374.087 157.66 371.544 162.006 371.544H323.828C325.884 371.544 327.881 372.137 329.349 373.197C330.817 374.257 331.64 375.698 331.64 377.182C331.64 378.708 330.817 380.149 329.349 381.209C327.881 382.268 325.884 382.862 323.828 382.862ZM298.278 303.719H136.336C131.99 303.719 128.466 301.176 128.466 298.082C128.583 294.987 132.049 292.486 136.336 292.401H298.278C300.334 292.401 302.331 292.995 303.799 294.054C305.268 295.114 306.09 296.556 306.09 298.081C306.09 299.565 305.268 301.006 303.799 302.066C302.331 303.126 300.334 303.719 298.278 303.719ZM425.794 224.577H263.973C259.626 224.577 256.161 222.076 256.161 218.939C256.161 215.802 259.626 213.301 263.973 213.301H425.794C427.85 213.301 429.847 213.895 431.315 214.954C432.783 216.014 433.606 217.455 433.606 218.939C433.606 220.423 432.783 221.864 431.315 222.924C429.847 223.983 427.85 224.577 425.794 224.577ZM369.114 152.895L207.128 152.937C202.84 152.853 199.374 150.352 199.316 147.257C199.316 144.163 202.781 141.619 207.128 141.619H369.069C371.184 141.619 373.181 142.213 374.649 143.272C376.117 144.332 376.94 145.773 376.94 147.257C376.763 150.309 373.298 152.768 369.069 152.81L369.114 152.895Z" fill="#172554"/>
</svg>
