<svg width="1432" height="921" viewBox="0 0 1432 921" fill="none" xmlns="http://www.w3.org/2000/svg">
<path d="M753.497 548.957C724.134 548.957 700.251 570.419 700.251 596.806C700.251 623.193 724.134 644.654 753.497 644.654C782.861 644.654 806.744 623.193 806.744 596.806C806.744 570.368 782.805 548.957 753.497 548.957ZM753.497 624.549C736.439 624.549 722.567 612.084 722.567 596.754C722.567 581.424 736.438 568.96 753.497 568.96C770.557 568.96 784.428 581.424 784.428 596.754C784.372 612.083 770.501 624.549 753.497 624.549Z" fill="#172554"/>
<path d="M1278.19 548.957C1248.82 548.957 1224.94 570.419 1224.94 596.806C1224.94 623.193 1248.82 644.654 1278.19 644.654C1307.55 644.654 1331.43 623.193 1331.43 596.806C1331.43 570.368 1307.55 548.957 1278.19 548.957ZM1278.19 624.549C1261.13 624.549 1247.26 612.084 1247.26 596.754C1247.26 581.424 1261.13 568.96 1278.19 568.96C1295.25 568.96 1309.12 581.424 1309.12 596.754C1309.12 612.084 1295.25 624.549 1278.19 624.549Z" fill="#172554"/>
<path d="M217.124 780.159C217.124 735.377 196.709 701.602 169.639 701.602C142.569 701.652 122.099 735.427 122.099 780.159C122.099 824.941 142.514 858.716 169.583 858.716C196.709 858.716 217.124 824.941 217.124 780.159ZM144.471 780.159C144.471 744.475 159.405 721.706 169.639 721.706C179.93 721.706 194.808 744.473 194.808 780.159C194.808 815.843 179.874 838.612 169.639 838.612C159.348 838.663 144.471 815.845 144.471 780.159Z" fill="#172554"/>
<path d="M588.222 780.159C588.222 735.377 566.912 701.602 538.613 701.602C510.367 701.602 489.003 735.377 489.003 780.159C489.003 824.941 510.313 858.716 538.613 858.716C566.914 858.716 588.222 824.941 588.222 780.159ZM511.374 780.159C511.374 744.475 527.537 721.706 538.611 721.706C549.741 721.706 565.849 744.473 565.849 780.159C565.849 815.843 549.685 838.612 538.611 838.612C527.537 838.663 511.374 815.845 511.374 780.159Z" fill="#172554"/>
<path d="M1381.71 252.072H1343.39L1315.88 90.6855C1306.93 38.0634 1255.53 -0.889092 1196.19 0.0154342L580.504 10.0172C570.772 10.168 561.095 11.6759 551.7 14.4904L66.5567 162.251C27.07 174.314 0.446816 207.435 0.0559297 244.83V244.88C0.0559297 245.181 0 245.433 0 245.684V492.57V492.62V733.317C0 771.012 33.5017 801.771 75.1705 802.876C81.8261 870.175 117.286 920.084 161.415 920.084H256.777H257C300.29 919.883 336.197 870.276 342.965 802.977H394.98H395.036H395.092H439.446C446.437 870.074 483.574 919.832 529.717 920.084H529.997H630.84H631.064C676.48 919.883 714.176 870.276 721.336 802.977H1001.1C1008.26 870.226 1046.01 919.882 1091.43 920.084H1091.65H1192.49H1192.72C1238.19 919.933 1275.94 870.276 1283.04 802.977H1362.74C1365.32 802.977 1367.83 802.172 1369.85 800.715C1371.19 799.71 1403.35 775.685 1404.47 742.111C1405.08 723.916 1396.64 706.778 1379.41 691.198L1379.36 464.217C1379.36 463.714 1379.3 463.212 1379.24 462.709L1368.84 401.592H1381.71C1409.34 401.592 1431.82 381.388 1431.82 356.559V297.151C1431.82 272.272 1409.34 252.072 1381.71 252.072ZM664.853 685.421C666.811 658.884 669.44 581.483 656.352 407.785C676.43 428.089 705.571 440.806 737.563 440.806H1352.86L1357 464.931V685.375L664.853 685.421ZM988.63 154.967L1032.31 420.741H737.616C694.326 420.741 657.522 391.641 651.986 353.041L623.628 154.958L988.63 154.967ZM1054.91 420.793L1011.23 155.019H1304.25L1344.85 393.503V393.603L1349.49 420.794L1054.91 420.793ZM580.947 30.0707L1196.57 20.0689C1244.67 19.315 1286.51 50.9283 1293.78 93.701L1300.83 134.914H620.77L613.779 86.0106C611.038 62.9406 600.747 46.003 583.185 35.7508C579.662 33.6901 575.97 32.0817 572.223 30.7247C575.131 30.3729 578.039 30.121 580.947 30.0707ZM292.35 172.556V782.925H248.724C248.724 781.92 248.78 780.965 248.78 779.96C248.78 747.843 242.348 718.592 231.442 695.171L231.498 450.807V190.708L292.35 172.556ZM510.645 107.569C516.182 105.911 522.111 106.715 526.865 109.781C531.619 112.847 534.359 117.672 534.359 122.999V192.961H495.544C469.202 192.961 447.78 212.211 447.78 235.883V314.942C447.78 338.614 469.202 357.864 495.544 357.864H532.29C527.704 371.435 515.288 382.14 499.236 385.256L406.112 403.752L406.167 138.634L510.645 107.569ZM534.416 337.818H495.545C481.507 337.818 470.097 327.565 470.097 314.95V235.891C470.097 223.276 481.507 213.023 495.545 213.023H534.36L534.416 337.818ZM383.846 416.275V416.476V782.919H314.717V165.872L383.846 145.315V416.275ZM209.121 442.863L22.3121 479.905V252.924L209.121 197.336V442.863ZM22.3121 733.264V500.454L209.121 463.412V661.894C195.474 647.871 179.142 639.778 161.413 639.778C112.418 639.778 73.9936 701.348 73.9936 779.961C73.9936 780.916 74.0495 781.82 74.0495 782.775C45.2456 781.117 22.3121 759.6 22.3121 733.264ZM96.3643 779.905C96.3643 714.818 126.175 659.834 161.412 659.834C180.484 659.834 197.935 675.917 209.903 700.946C209.959 701.097 210.015 701.248 210.127 701.399C220.25 722.608 226.458 750.202 226.458 779.956C226.458 845.044 196.648 900.028 161.411 900.028C126.175 900.028 96.3643 845.043 96.3643 779.905ZM256.771 900.027H256.603H207.105C228.471 879.42 243.516 844.49 247.654 802.974H303.472H303.528H303.584H320.531C314.491 857.356 287.085 900.027 256.771 900.027ZM406.167 782.92V424.313L504.1 404.863C533.296 399.133 554.493 376.717 556.45 350.029C556.618 349.325 556.73 348.571 556.73 347.817C556.73 347.566 556.674 347.315 556.674 347.063C556.674 346.711 556.73 346.36 556.73 346.008L556.674 203.213V202.962V202.711V122.998C556.674 111.187 550.578 100.431 539.895 93.5449C529.268 86.6592 516.012 84.8499 503.595 88.5692L396.432 120.435C395.985 120.384 395.481 120.284 395.034 120.284C392.014 120.284 389.217 121.39 387.204 123.149L300.065 149.083C299.729 149.183 299.393 149.284 299.058 149.435L216.113 174.113C216.057 174.113 216.001 174.163 215.945 174.163L24.1099 231.259C29.647 208.289 48.1601 189.041 73.7195 181.3L506.844 49.3656H506.956C507.348 49.2651 546.387 38.2581 571.053 52.6827C582.854 59.5685 589.511 71.1786 591.58 88.3672L629.781 355.402C648.013 571.215 644.266 661.037 642.365 686.217C628.606 688.177 616.246 694.007 606.737 702.451C590.125 663.297 561.937 639.726 530 639.726C478.543 639.726 438.218 701.295 438.218 779.908C438.218 780.913 438.274 781.868 438.274 782.873L406.167 782.92ZM460.531 779.955C460.531 714.867 492.357 659.833 529.998 659.833C544.82 659.833 559.081 668.478 570.883 683.556C571.107 683.858 571.275 684.159 571.498 684.411C579.552 694.965 586.321 708.485 591.242 724.368C588.725 730.6 587.327 737.235 587.327 744.221C587.327 756.837 591.801 768.547 599.408 778.097C599.408 778.7 599.463 779.303 599.463 779.956C599.463 818.356 588.389 853.286 571.554 875.401C571.331 875.652 571.163 875.854 570.995 876.105C559.418 891.033 545.211 899.979 530.054 899.979C492.357 900.029 460.531 845.042 460.531 779.955ZM630.789 900.026H630.621H577.935C601.648 878.213 618.037 840.418 621.168 795.685C630.509 800.36 641.247 802.973 652.713 802.973H698.912C692.48 858.16 663.732 900.026 630.789 900.026ZM1125.21 802.973C1122.58 815.086 1117.83 825.59 1111.84 832.174C1109.16 835.139 1105.02 838.657 1100.38 838.657C1091.32 838.657 1080.3 824.736 1075.49 802.973L1125.21 802.973ZM1023.53 802.973H1052.78C1058.82 836.195 1077.56 858.711 1100.32 858.711C1110.95 858.711 1120.9 853.886 1129.12 844.84C1138.13 834.939 1144.73 820.011 1147.86 802.973H1159.77C1156.47 831.522 1146.91 857.606 1132.93 875.749C1124.43 886.807 1110.33 900.025 1091.71 900.025C1058.76 900.025 1029.96 858.159 1023.53 802.973ZM1192.5 900.026H1192.39H1139.48C1143.61 896.207 1147.59 891.985 1151.33 887.16C1167.94 865.547 1178.68 835.944 1182.15 802.973H1260.62C1254.24 858.159 1225.44 900.026 1192.5 900.026ZM1382.16 741.355C1381.54 760.855 1365.1 777.089 1358.44 782.87H1171.92H1171.86H1011.46H1011.4L747.359 782.92H652.724C628.953 782.92 609.658 765.58 609.658 744.22C609.658 722.859 628.955 705.52 652.724 705.52H1363.59C1376.23 716.979 1382.55 728.99 1382.16 741.355ZM1409.51 356.513C1409.51 370.284 1397.03 381.492 1381.71 381.492H1365.43L1346.81 272.175H1381.71C1397.03 272.175 1409.51 283.383 1409.51 297.155V356.513Z" fill="#172554"/>
<path d="M1172.25 500.309H852.937C846.785 500.309 841.751 504.782 841.751 510.361C841.751 515.889 846.729 520.413 852.937 520.413H1172.3C1178.46 520.413 1183.49 515.94 1183.49 510.361C1183.43 504.832 1178.46 500.309 1172.25 500.309Z" fill="#172554"/>
<path d="M852.937 87.3151H1172.3C1178.46 87.3151 1183.49 82.8419 1183.49 77.263C1183.49 71.7343 1178.51 67.2109 1172.3 67.2109H852.937C846.785 67.2109 841.751 71.6842 841.751 77.263C841.751 82.7917 846.729 87.3151 852.937 87.3151Z" fill="#172554"/>
<path d="M1172.25 564.141H852.937C846.785 564.141 841.751 568.614 841.751 574.193C841.751 579.721 846.729 584.245 852.937 584.245H1172.3C1178.46 584.245 1183.49 579.772 1183.49 574.193C1183.43 568.664 1178.46 564.141 1172.25 564.141Z" fill="#172554"/>
<path d="M1172.25 627.971H852.937C846.785 627.971 841.751 632.444 841.751 638.023C841.751 643.551 846.729 648.075 852.937 648.075H1172.3C1178.46 648.075 1183.49 643.602 1183.49 638.023C1183.43 632.494 1178.46 627.971 1172.25 627.971Z" fill="#172554"/>
</svg>
