<svg width="48" height="48" viewBox="0 0 48 48" fill="none" xmlns="http://www.w3.org/2000/svg">
<path fill-rule="evenodd" clip-rule="evenodd" d="M40.3429 20.8989C39.2747 20.5879 38.18 20.6893 37.1491 21.2011L36.3672 21.5894V15.9507C36.3672 14.8984 35.9179 13.9519 35.2043 13.2857C42.1752 11.7591 45.9198 12.3614 46.4639 13.6762C46.9066 14.7417 45.5494 17.2634 40.3429 20.8989ZM42.6864 23.5418C42.6864 23.608 42.6621 23.6499 42.5983 23.6764L22.1253 32.5363C21.0681 32.9929 19.8434 32.5848 19.262 31.5854L16.9052 27.4976H16.9295L19.773 29.8382C20.5351 30.4669 21.5615 30.5839 22.4425 30.1449L37.7962 22.5054C38.6222 22.0951 39.4724 22.0686 40.3226 22.4326L42.5978 23.4077C42.6617 23.4342 42.6859 23.4739 42.6859 23.5423L42.6864 23.5418ZM30.44 30.5261L30.7396 37.9719C30.744 37.994 30.7792 38.005 30.7836 37.9763L32.8474 29.4807L30.44 30.5261ZM34.909 40.716V28.5913L34.5214 28.759L32.1955 38.3225C32.0325 38.9954 31.4444 39.4521 30.7704 39.4521C29.9687 39.4521 29.3212 38.8388 29.2881 38.0336L29.0062 31.1464L22.7046 33.8753C21.1738 34.5349 19.3875 34.1025 18.3281 32.792C16.5969 33.3193 14.8216 33.7892 13.0904 34.1664V40.7187C13.0904 41.9233 14.0661 42.905 15.2731 42.905H32.7261C33.9287 42.9028 34.909 41.9206 34.909 40.716ZM31.5523 46.5443H29.2264C29.1758 46.5443 29.1317 46.5002 29.1317 46.4517V44.3581H31.6448V46.4517C31.647 46.5002 31.603 46.5443 31.5523 46.5443ZM18.8701 46.4517C18.8701 46.5002 18.8261 46.5443 18.7754 46.5443H16.4495C16.3989 46.5443 16.3548 46.5002 16.3548 46.4517V44.3581H18.8679L18.8701 46.4517ZM1.54064 32.3503C0.884261 30.7619 4.15287 26.9564 11.637 22.606V32.9788C5.68553 34.1348 2.09096 33.6806 1.54064 32.3503ZM27.1588 26.1713L29.4032 25.055L22.1019 22.9129L22.082 22.9526L27.1588 26.1713ZM15.2761 13.7641C14.0691 13.7641 13.0934 14.7437 13.0934 15.9504V32.6745C14.4678 32.3656 15.9567 31.9796 17.5447 31.5075L15.4765 27.9182C15.3267 27.6623 15.2893 27.3645 15.3642 27.0799C15.4919 26.5967 15.8179 26.4445 16.1835 26.2327C16.7209 25.9217 17.3839 25.9768 17.8597 26.3717L20.7032 28.7123C21.0226 28.9793 21.4279 29.0256 21.8045 28.8381L25.6369 26.9298L21.3111 24.1832C20.679 23.7862 20.4477 23.003 20.7539 22.3257C21.06 21.6485 21.7979 21.3065 22.5159 21.5161L31.3239 24.1016L34.9118 22.3146L34.9096 15.9498C34.9096 14.7453 33.9273 13.7636 32.7269 13.7636L15.2761 13.7641ZM21.3088 4.84495H26.6963V12.3082H21.3088V4.84495ZM19.6194 1.45641H28.3834V3.38675H19.6194V1.45641ZM47.8054 13.1175C46.268 9.41349 37.0087 11.2953 32.9647 12.3167C32.8832 12.3101 32.8084 12.3078 32.7269 12.3078H28.1455V4.84459H28.4385C29.2072 4.84459 29.8393 4.21585 29.8393 3.44151L29.8415 1.40308C29.8415 0.630946 29.2094 0 28.4407 0H19.5645C18.7958 0 18.1637 0.628743 18.1637 1.40308V3.44372C18.1637 4.21585 18.7958 4.8468 19.5645 4.8468H19.853V12.3101H15.2761C13.2696 12.3101 11.6375 13.9425 11.6375 15.9523V20.9292C7.89977 23.0426 4.85998 25.1936 2.82954 27.159C0.453012 29.4555 -0.434663 31.3903 0.197473 32.9082C1.50139 36.0475 8.39083 35.0724 11.6375 34.4591V40.7155C11.6375 42.5973 13.0692 44.1525 14.9017 44.3379V46.4513C14.9017 47.3051 15.5955 48 16.4523 48H18.7782C19.635 48 20.3288 47.3051 20.3288 46.4513V44.3578H27.6809V46.4513C27.6809 47.3051 28.3747 48 29.2315 48H31.5574C32.4142 48 33.108 47.3051 33.108 46.4513L33.1036 44.3401C34.9295 44.1526 36.3678 42.5995 36.3678 40.7177V27.9598L43.1758 25.0125C44.4687 24.4544 44.4687 22.6211 43.1692 22.0651L41.9445 21.5401C43.907 20.1083 45.4268 18.7472 46.4576 17.4875C47.8496 15.7888 48.3009 14.3176 47.8054 13.1175Z" fill="#172554"/>
</svg>
